<?xml version="1.0" standalone="no"?>
<!DOCTYPE svg PUBLIC "-//W3C//DTD SVG 1.1//EN" "http://www.w3.org/Graphics/SVG/1.1/DTD/svg11.dtd" >
<svg xmlns="http://www.w3.org/2000/svg">
<metadata>
Created by FontPrep 20130207 at Sun Oct 16 21:51:16 2016
 By Matthew Higley
Copyright 1990-1993 Bitstream Inc.  All rights reserved.
</metadata>
<defs>
<font id="f78369fb7f540f355d128fc492e4218d" horiz-adv-x='1024' >
  <font-face 
    font-family="FrakturBT-Regular"
    font-weight="400"
    font-stretch="normal"
    units-per-em="2048"
    panose-1="3 2 7 2 4 5 8 4 5 4"
    ascent="1638"
    descent="-410"
    x-height="1010"
    cap-height="1493"
    bbox="-342 -483 2054 2017"
    underline-thickness="80"
    underline-position="-159"
    unicode-range="U+0020-F002"
  />
<missing-glyph horiz-adv-x="1229" 
d="M217 -248h795v1577h-795v-1577zM102 -362v1806h1024v-1806h-1024z" />
    <glyph glyph-name=".notdef" horiz-adv-x="1229" 
d="M217 -248h795v1577h-795v-1577zM102 -362v1806h1024v-1806h-1024z" />
    <glyph glyph-name=".null" horiz-adv-x="0" 
 />
    <glyph glyph-name="nonmarkingreturn" horiz-adv-x="530" 
 />
    <glyph glyph-name="space" unicode=" " horiz-adv-x="530" 
 />
    <glyph glyph-name="exclam" unicode="!" horiz-adv-x="530" 
d="M289 238q19 -92 119 -119v-47q-100 -27 -119 -119h-47q-11 49 -39 77t-80 42v47q52 14 80 42t39 77h47zM170 1319q0 117 95 117t95 -117q0 -27 -8 -105l-63 -753h-47l-64 754q0 15 -4 53t-4 51z" />
    <glyph glyph-name="quotedbl" unicode="&#x22;" horiz-adv-x="678" 
d="M90 1382q0 28 22 54t62 26t63 -26t23 -74l-70 -498h-32l-64 457l-2 17q-2 16 -2 44zM504 1462q84 0 84 -100q0 -23 -2 -41l-68 -457h-31l-65 457l-4 39q0 49 23 75.5t63 26.5z" />
    <glyph glyph-name="numbersign" unicode="#" horiz-adv-x="1575" 
d="M778 1456h133l-168 -471h287l168 471h131l-166 -471h307l-40 -117h-310l-100 -286h332l-43 -115h-330l-166 -469h-133l166 469h-287l-166 -469h-131l166 469h-324l43 115h322l100 286h-348l43 117h348zM700 868l-100 -286h289l102 286h-291z" />
    <glyph glyph-name="dollar" unicode="$" horiz-adv-x="1063" 
d="M954 368q0 -134 -91 -240t-251 -142v-224h-43v218q-40 -5 -61 -5l-47 5v-218h-43v222q-147 23 -243.5 107t-96.5 183t98 99q42 0 67 -25.5t25 -66.5l-4 -91q0 -48 44 -93.5t110 -61.5v678q-159 93 -224 175.5t-65 194.5t78.5 201.5t210.5 118.5v162h43v-156l71 4h6
q17 -2 31 -2v154h43v-158q151 -28 237.5 -102.5t86.5 -172.5t-94 -98t-94 105l4 84q0 41 -38 77.5t-102 55.5v-545q204 -129 273 -219t69 -224zM809 288q0 90 -47 160t-150 138v-551q92 23 144.5 93t52.5 160zM500 25q49 0 69 2v587l-108 68v-655zM525 1366q-20 0 -64 -6
v-451l108 -71v526q-24 2 -44 2zM274 1152q0 -130 144 -218v416q-68 -24 -106 -77t-38 -121z" />
    <glyph glyph-name="percent" unicode="%" horiz-adv-x="1395" 
d="M381 -25h-100l731 1438h102zM344 1413q111 0 191.5 -113.5t80.5 -279.5t-80 -277.5t-192 -111.5t-192 112.5t-80 276.5t80.5 278.5t191.5 114.5zM213 1020q0 -188 30.5 -266t100.5 -78t99.5 77.5t29.5 267.5t-29.5 268.5t-99.5 78.5t-100.5 -80t-30.5 -268zM1050 758
q111 0 192 -113t81 -278t-80.5 -278.5t-192.5 -113.5t-192 114t-80 278t80.5 277.5t191.5 113.5zM920 367q0 -188 30 -267.5t100 -79.5t100 78.5t30 268.5t-30 268t-100 78t-100 -79t-30 -267z" />
    <glyph glyph-name="ampersand" unicode="&#x26;" horiz-adv-x="1298" 
d="M1081 633q-95 0 -174 -225q-35 -99 -59 -156q62 -99 112.5 -141.5t101.5 -42.5t86.5 29t68.5 100l47 -11q-41 -113 -111.5 -173t-145.5 -60t-128.5 37.5t-118.5 128.5q-75 -89 -156 -127.5t-192 -38.5q-160 0 -262.5 98.5t-102.5 249.5q0 221 311 410q-127 209 -127 321
q0 113 76 190.5t188 77.5t180 -64t68 -161q0 -152 -235 -319l309 -463q11 32 31 93q118 364 270 364q85 0 129 -56q-22 -47 -67 -123l-33 7q-3 24 -21.5 39.5t-44.5 15.5zM643 1069q0 83 -41 132.5t-109 49.5t-107.5 -42.5t-39.5 -106.5t30.5 -131.5t108.5 -173.5
q89 68 123.5 128.5t34.5 143.5zM211 379q0 -134 87.5 -229t220.5 -95t210 105l-344 512q-174 -99 -174 -293z" />
    <glyph glyph-name="quotesingle" unicode="'" horiz-adv-x="348" 
d="M90 1360q0 102 62.5 102t85 -26t22.5 -74l-70 -498h-32l-66 457q-2 16 -2 39z" />
    <glyph glyph-name="parenleft" unicode="(" horiz-adv-x="541" 
d="M244 623q0 -232 70 -438t202 -365v-58q-209 162 -320.5 384.5t-111.5 475.5t113 479.5t319 383.5v-58q-132 -158 -202 -365t-70 -439z" />
    <glyph glyph-name="parenright" unicode=")" horiz-adv-x="541" 
d="M295 623q0 233 -69.5 440t-200.5 364v56q208 -162 320 -384t112 -475t-112.5 -477.5t-319.5 -384.5v58q270 326 270 803z" />
    <glyph glyph-name="asterisk" unicode="*" 
d="M565 1190l273 115l14 -25l-236 -180l236 -178l-14 -27l-275 115l-37 -293h-28l-39 295l-273 -117l-14 27l236 178l-236 180l14 25l275 -115l37 295h28z" />
    <glyph glyph-name="plus" unicode="+" horiz-adv-x="1706" 
d="M795 1221h118v-551h539v-117h-539v-553h-118v553h-541v117h541v551z" />
    <glyph glyph-name="comma" unicode="," horiz-adv-x="530" 
d="M373 174q0 -16 -31 -88l-211 -432h-41l105 467q26 121 100 121q78 0 78 -68z" />
    <glyph glyph-name="hyphen" unicode="-" horiz-adv-x="541" 
d="M47 178v92l447 297v-94zM47 412v94l447 295v-92z" />
    <glyph glyph-name="period" unicode="." horiz-adv-x="530" 
d="M289 238q19 -92 119 -119v-47q-100 -27 -119 -119h-47q-11 49 -39 77t-80 42v47q52 14 80 42t39 77h47z" />
    <glyph glyph-name="slash" unicode="/" horiz-adv-x="569" 
d="M-49 -190l586 1675h81l-587 -1675h-80z" />
    <glyph glyph-name="zero" unicode="0" horiz-adv-x="1063" 
d="M289 694q0 -368 55.5 -518.5t185.5 -150.5t186 150.5t56 518.5t-56 520t-186 152t-185.5 -152t-55.5 -520zM530 1413q178 0 307.5 -207.5t129.5 -511.5t-129.5 -511.5t-307.5 -207.5t-307 207.5t-129 512.5t129 511.5t307 206.5z" />
    <glyph glyph-name="one" unicode="1" horiz-adv-x="1063" 
d="M502 1161q0 115 -14.5 115t-63.5 -49l-199 -191l-32 35q309 299 330 320q21 22 71 22h59v-1270q0 -53 26.5 -74.5t94.5 -21.5h80v-47h-551v47h80q69 0 94 21.5t25 81.5v1011z" />
    <glyph glyph-name="two" unicode="2" horiz-adv-x="1063" 
d="M72 0v31q72 118 303 343q231 224 303 344t72 247t-82 212t-210 85t-217 -80t-118 -219h-45q23 207 142 328.5t292 121.5t285 -111.5t112 -279.5q0 -119 -66.5 -233.5t-224.5 -258.5q-19 -17 -60 -54q-210 -186 -316 -322h395q124 0 174 37t98 163l39 -8
q-63 -168 -94 -346h-782z" />
    <glyph glyph-name="three" unicode="3" horiz-adv-x="1063" 
d="M723 1071q0 100 -75.5 168t-190.5 68q-161 0 -293 -174l-37 18q73 137 170 199.5t240 62.5t244.5 -84t101.5 -201t-78 -196t-275 -160h31q176 0 290 -99.5t114 -272.5t-131.5 -299t-317.5 -126t-303 84t-117 195q0 47 25 74.5t67 27.5t67.5 -23t25.5 -61l-7 -84
q0 -71 63 -117t163 -46q140 0 215.5 78.5t75.5 236.5t-94 260t-248 102q-68 0 -134 -12l-6 45q414 111 414 336z" />
    <glyph glyph-name="four" unicode="4" horiz-adv-x="1063" 
d="M727 403v-260q0 -53 26.5 -74.5t94.5 -21.5h80v-47h-551v47h80q69 0 93.5 21.5t24.5 81.5v253h-509v119l546 885l115 6v-891h238v-119h-238zM127 522h451l6 742z" />
    <glyph glyph-name="five" unicode="5" horiz-adv-x="1063" 
d="M571 1360q193 0 312 53h43q-141 -219 -449 -219q-108 0 -203 33q-18 -256 -38 -428q118 98 300 98t301 -122.5t119 -326.5t-135.5 -338.5t-339.5 -134.5q-162 0 -275.5 86t-113.5 197q0 50 25.5 77t70.5 27q88 0 88 -90l-16 -100q0 -69 58.5 -108t162.5 -39
q149 0 229.5 92.5t80.5 268.5t-95 296.5t-233 120.5t-266 -121l-35 14q51 143 76 717h36q104 -53 297 -53z" />
    <glyph glyph-name="six" unicode="6" horiz-adv-x="1063" 
d="M821 1094q-88 0 -88 92v59q0 51 -40 84t-105 33q-148 0 -226.5 -158.5t-78.5 -460.5q0 -63 2 -95q44 106 133.5 170.5t189.5 64.5q163 0 262 -110t99 -303t-122 -344t-290 -151q-201 0 -331 172.5t-130 444.5q0 155 44 310.5t119 275.5q146 234 351 235
q122 0 209.5 -69.5t87.5 -163.5q0 -41 -22.5 -63.5t-63.5 -22.5zM561 25q116 0 178 88.5t62 264.5t-75.5 291t-187.5 115t-176.5 -94t-64.5 -266t74 -285.5t190 -113.5z" />
    <glyph glyph-name="seven" unicode="7" horiz-adv-x="1063" 
d="M344 155q0 263 238 627l295 455h-471q-102 0 -153.5 -43.5t-92.5 -163.5h-43q73 224 112 383h37q5 -14 16 -19t50 -5h665v-37q-46 -79 -134 -223q-347 -568 -347 -816q0 -150 68 -301l-210 -72q-30 92 -30 215z" />
    <glyph glyph-name="eight" unicode="8" horiz-adv-x="1063" 
d="M971 354q0 -161 -126.5 -270t-314.5 -109t-314 110t-126 269q0 112 76.5 209.5t220.5 169.5q-116 60 -179 152t-63 200q0 146 107.5 237t277.5 91t280 -88t110 -217q0 -212 -283 -313q334 -179 334 -441zM209 377q0 -156 93.5 -254t227.5 -98t211.5 72.5t77.5 190.5
t-84 212t-303 207q-108 -49 -165.5 -134t-57.5 -196zM805 1102q0 122 -76.5 193t-196.5 71t-186.5 -56t-66.5 -148t80 -180.5t229 -158.5q217 81 217 279z" />
    <glyph glyph-name="nine" unicode="9" horiz-adv-x="1063" 
d="M241 46q-85 71 -85 161t90 90q44 0 64 -24.5t20 -98.5q0 -147 143 -147q149 0 228 160t79 462q0 62 -2 94q-47 -110 -136.5 -173.5t-197.5 -63.5q-155 0 -253.5 112t-98.5 304t123 341.5t289 149.5q200 0 331.5 -171.5t131.5 -438.5q0 -156 -45.5 -319.5t-119.5 -279.5
q-146 -230 -358 -229q-118 0 -203 71zM502 1364q-116 0 -179 -88t-63 -264t75.5 -292t187.5 -116t176.5 94t64.5 266t-73 286t-189 114z" />
    <glyph glyph-name="colon" unicode=":" horiz-adv-x="530" 
d="M289 963q19 -92 119 -119v-47q-100 -27 -119 -119h-47q-21 93 -119 119v47q52 14 80 42t39 77h47zM289 238q19 -92 119 -119v-47q-100 -27 -119 -119h-47q-11 49 -39 77t-80 42v47q52 14 80 42t39 77h47z" />
    <glyph glyph-name="semicolon" unicode=";" horiz-adv-x="530" 
d="M371 174q0 -16 -31 -88l-213 -432h-39l105 467q26 121 102 121t76 -68zM418 797q-51 -14 -78.5 -42t-38.5 -77h-49q-11 49 -38.5 77t-78.5 42v47q51 14 78.5 42t38.5 77h49q11 -49 38.5 -77t78.5 -42v-47z" />
    <glyph glyph-name="less" unicode="&#x3c;" horiz-adv-x="1706" 
d="M1442 1145v-127l-1000 -408l1000 -405v-129l-1178 483v103z" />
    <glyph glyph-name="equal" unicode="=" horiz-adv-x="1706" 
d="M254 860h1198v-117h-1198v117zM254 477h1198v-117h-1198v117z" />
    <glyph glyph-name="greater" unicode="&#x3e;" horiz-adv-x="1706" 
d="M264 1145l1178 -483v-103l-1178 -483v129l1000 405l-1000 408v127z" />
    <glyph glyph-name="question" unicode="?" horiz-adv-x="692" 
d="M291 238q19 -92 119 -119v-47q-100 -27 -119 -119h-47q-11 49 -39 77t-80 42v47q52 14 80 42t39 77h47zM225 551q0 149 137 311l17 20q156 180 156 274t-58.5 156t-143.5 62t-122 -94q-4 -11 -12 -36q-31 -99 -97 -99q-32 0 -53.5 22t-21.5 54q0 91 75 154t200 63
t222 -105t97 -256q0 -93 -42.5 -183.5t-178.5 -226.5q-111 -117 -111 -198q0 -28 10 -82h-43q-31 88 -31 164z" />
    <glyph glyph-name="at" unicode="@" horiz-adv-x="2019" 
d="M1108 965q-64 0 -109 -31.5t-105 -119.5t-102 -214t-42 -222t40.5 -150t107.5 -54q131 0 243 178q57 94 91 202.5t34 199.5t-47 151t-111 60zM604 439q0 252 187 431q65 64 144 100t155 36q176 0 221 -195l53 180h143l-170 -610q0 -2 -9 -33t-9 -77t25.5 -73.5
t63.5 -27.5q83 0 169 66q122 90 187 231t65 298q0 293 -196 465q-196 173 -490 173q-375 0 -617 -234q-264 -256 -264 -663q0 -175 57 -304.5t176 -230.5q236 -200 575 -200t624 206l30 -36q-299 -222 -665 -222q-367 0 -606 185q-308 230 -308 633q0 204 86 381t250 313
q263 221 623 221q359 0 565.5 -187t206.5 -499q0 -157 -58 -297t-170 -242t-251 -102q-195 0 -207 211q-123 -211 -309 -211q-125 0 -201 92t-76 222z" />
    <glyph glyph-name="A" unicode="A" horiz-adv-x="1360" 
d="M446 14q0 26 -170 156q-61 48 -85.5 61t-43.5 13t-71 -14l-15 44q342 98 491.5 247t149.5 386q0 183 -84 290.5t-214 107.5t-209.5 -91t-79.5 -229t81 -226t232 -114l-14 -43q-169 25 -263 135.5t-94 296.5t111.5 318.5t283.5 132.5t285 -139.5t113 -351.5t-120 -371.5
t-368 -286.5l193 -164q46 -41 88 -41t142.5 55t224.5 148v844q0 98 -21 186l37 12l35 -108q15 90 86.5 154.5t146.5 64.5l17 2v-39q-140 -64 -140 -295v-813q0 -87 12 -109t46 -22t90 47l29 -29q-141 -154 -234 -286l-37 12q9 27 9 36q-1 9 -38.5 72t-37.5 166
q0 18 0.5 27.5t0.5 17.5q-120 -88 -312 -186.5t-246 -138.5l-35 26q28 29 28 39z" />
    <glyph glyph-name="B" unicode="B" horiz-adv-x="1688" 
d="M90 150q0 89 72.5 148.5t193.5 70.5q211 53 305.5 165.5t94.5 323.5t-96.5 341t-262.5 130q-113 0 -192.5 -82.5t-79.5 -213.5t94.5 -233.5t239.5 -115.5l-15 -47q-164 20 -266 137t-102 292t111 297t282 122q236 0 375 -232q39 21 185 95t249 141l28 -32
q-28 -24 -28 -43t28.5 -74.5t85.5 -137.5t85 -82q17 0 45 15l20 -35l-319 -195q178 -36 278.5 -148t100.5 -258t-69 -256t-181 -167t-255.5 -90t-269.5 -33q-57 0 -177 84q-298 213 -398 213q-50 0 -83.5 -29t-33.5 -63t17 -74l-37 -23q-25 48 -25 89zM1090 47
q148 0 251 101.5t103 257.5t-116.5 260t-295.5 104q-52 0 -114 -20q-27 -152 -104.5 -227.5t-362.5 -168.5q96 -37 293.5 -172t345.5 -135zM926 795q385 204 385 229t-87 144t-102.5 134t-28.5 15t-79.5 -30.5t-149.5 -78.5q68 -165 68 -311q0 -17 -3 -52.5t-3 -49.5z" />
    <glyph glyph-name="C" unicode="C" horiz-adv-x="1298" 
d="M922 141q168 0 317 88l25 -30q-160 -148 -247 -238q-62 -14 -136 -14q-348 0 -567.5 229t-219.5 598q0 314 120 513.5t304 199.5q83 0 139.5 -42.5t77.5 -121.5l20 22q129 140 147 140t108 -45t129 -45t88 84l35 -25l-140 -201q-11 -16 -35 -16q-25 0 -123.5 45
t-140.5 45q-24 0 -87.5 -67.5t-63.5 -101.5t56 -169t64 -155t64 -152t55 -164q0 -33 -84.5 -145.5t-138.5 -194.5q115 -37 234 -37zM745 434q0 84 -79 266q-28 64 -89 194t-61 160t134 177q29 32 44 49q-6 73 -53.5 116.5t-120.5 43.5q-125 0 -201.5 -154t-76.5 -407
t107.5 -434t295.5 -248q59 87 79.5 139t20.5 98z" />
    <glyph glyph-name="D" unicode="D" horiz-adv-x="1655" 
d="M1079 35q155 0 268 113.5t113 273.5q0 205 -121.5 403.5t-343.5 350.5q-166 -11 -274.5 -62.5t-108.5 -109.5q0 -45 126 -226t126 -256q0 -64 -255 -194q-31 -16 -48 -25q67 -39 179 -117q218 -151 339 -151zM436 338q35 0 65 -6q189 76 189 147q0 72 -184 324
q-62 86 -62 141q0 94 136 171t354 99q-246 127 -465 127q-167 0 -270 -97.5t-103 -252.5q0 -93 48.5 -160.5t138.5 -101.5l-17 -43q-217 82 -217 318q0 209 151.5 350t379.5 141q333 0 596 -215q175 -142 274.5 -337t99.5 -367t-51 -287.5t-143 -197.5t-214 -133.5
t-188 -51.5t-125 24t-115 61t-113 76q-211 146 -283 146t-164 -72l-25 29q168 168 307 168z" />
    <glyph glyph-name="E" unicode="E" horiz-adv-x="1319" 
d="M844 139q219 0 395 107l27 -35q-161 -127 -343 -248q-42 -10 -116 -10q-327 0 -520 228.5t-193 615.5q0 317 118.5 503.5t317.5 186.5q84 0 146.5 -40.5t79.5 -90.5l1 1q107 130 126 130q35 0 121 -24.5t121 -24.5t69 51l37 -16q-33 -57 -71 -133t-48 -76
q-29 0 -127 35.5t-158 35.5q-28 0 -75 -53.5t-47 -79.5q0 -55 177 -302l3 1q137 113 159 162h33q64 -84 154 -115v-37q-64 -41 -96 -106h-37q-44 61 -133 102l-60 -49q80 -125 80 -162q0 -15 -21.5 -80.5t-31.5 -119.5q-23 -116 -73 -166.5t-142 -50.5q-187 0 -252 210
l45 15q63 -178 199 -178q74 0 119.5 45t45.5 100t-19 107t-72 146t-138.5 226t-85.5 152.5t162 214.5q-18 55 -70 89t-116 34q-136 0 -216.5 -141t-80.5 -384q0 -372 157.5 -574t448.5 -202z" />
    <glyph glyph-name="F" unicode="F" horiz-adv-x="1133" 
d="M248 481q70 0 117 -51t47 -134t-87 -208.5t-87 -193.5q0 -98 94 -168t229 -70t216 79t81 224t-201 405q-35 47 -51 68t-40 52q-163 214 -163 318t84 232.5t232 253.5q-197 84 -345 84q-149 0 -241 -84.5t-92 -212.5q0 -155 170 -223l-16 -45q-203 82 -203 267t140.5 306
t339.5 121t410.5 -95t213.5 -95q22 0 63 45l29 -31l-166 -166q-20 -20 -30 -20t-82.5 47.5t-145.5 81.5q-109 -91 -168 -184.5t-59 -157.5q0 -120 114 -262q141 96 180 170h39q37 -64 138 -76v-47q-60 -22 -101 -103h-43q-47 64 -100 64q-25 0 -82 -45q10 -12 28 -36
q289 -363 289 -549t-121 -310.5t-306 -124.5t-303.5 99.5t-118.5 246.5q0 112 90 219q13 17 40 46q64 69 64 116t-27 73.5t-63 26.5q-74 0 -113 -80l-43 19q53 108 150 108z" />
    <glyph glyph-name="G" unicode="G" horiz-adv-x="1546" 
d="M1390 1243q19 0 29 4l19 -22q-56 -44 -134 -161t-135 -165q134 -61 208.5 -168.5t74.5 -241.5q0 -239 -165 -387.5t-437 -148.5q-345 0 -550.5 221t-205.5 590q0 319 147.5 520t374.5 201q78 0 144 -27q37 32 71 60l27 -27q-16 -14 -49 -55q66 -36 115 -74l-29 -39
q-45 43 -115 74q-32 -48 -32 -90t63 -167t63 -182t-79 -196q57 46 134 74t93 34q100 41 163.5 109.5t63.5 124.5t-115 161q-27 25 -50 46t-23 37t121 143l2 2l28 -23l-12 -24q0 -26 105 -129q66 -74 85 -74zM715 837q0 72 -62.5 208.5t-62.5 162.5q0 76 133 213
q-45 13 -90 13q-361 0 -365 -569q162 -187 283 -187q75 0 119.5 43.5t44.5 115.5zM872 -2q184 0 302 109t118 275t-97 280t-234 114q-70 0 -187.5 -74.5t-199.5 -74.5t-152.5 39t-151.5 127q41 -386 196.5 -590.5t405.5 -204.5z" />
    <glyph glyph-name="H" unicode="H" horiz-adv-x="1399" 
d="M371 336q47 0 78.5 31t31.5 83q-1 52 -59 186t-111 257q-53 124 -53 170q0 47 82 171q82 123 140 187t84 64t101 -38t119 -38t88 59l35 -22q-31 -36 -98 -114t-84 -79q-40 0 -124.5 42t-108.5 42t-58.5 -49.5t-34.5 -96.5q0 -85 93 -269q89 66 222.5 137.5t145.5 107.5
h41q14 -18 77 -52.5t101 -65.5q99 -82 152 -205.5t53 -272.5q0 -204 -110 -358.5t-295 -212.5q-88 -27 -190 -43.5t-107 -31.5l-37 9q-17 44 -52.5 70.5t-84.5 26.5t-87 -46t-38 -121t52 -129t130 -54q104 0 147 102l43 -21q-66 -129 -190 -129q-97 0 -163 67.5t-66 163.5
q0 192 213 257q21 6 69 17t55 27l35 -5q-2 -2 -2 -14t44 -47.5t120 -75.5q160 20 258 151t98 333t-107.5 339t-268.5 137q-125 0 -244 -111q117 -265 117 -353t-112.5 -172.5t-218.5 -84.5t-190.5 52.5t-103.5 52.5l-12 -2l-21 28q80 46 168 113q133 -170 238 -170z" />
    <glyph glyph-name="I" unicode="I" horiz-adv-x="1194" 
d="M244 256l154 -18q22 0 51 18l32 -18v-19q0 -72 66.5 -126t159.5 -54t160 62t67 137t-76 203l-27 45q-151 263 -151 345q0 32 28.5 86.5t75.5 108.5t101 85.5t96 31.5q86 0 86 -72q0 -59 -49 -59q-17 0 -31 14q4 11 4 18q1 31 -47 31t-81.5 -40.5t-33.5 -102.5t85 -218
q14 -22 24 -42t36 -67q105 -193 105 -251t-37.5 -128t-101.5 -132t-146 -88t-206 -26h-35q-86 0 -117 -33l-39 18q-14 96 -69.5 158.5t-120.5 62.5q-84 0 -125 -102l-45 12q57 160 207 160zM57 1124q0 112 86.5 206t271.5 129q56 10 56 34h45v-2q0 -20 96 -73
q96 -54 177 -102q82 -48 119 -48t71.5 22.5t34.5 42.5t-23 31q-1 4 -2.5 9t-1.5 15t14.5 22.5t36.5 12.5t37 -17.5t15 -43.5q0 -89 -145.5 -151t-178.5 -62t-121 56q-87 56 -129 80q-90 52 -185 52q-94 0 -160.5 -62.5t-66.5 -153.5t68 -158.5t180 -83.5l-12 -48
q-130 23 -206.5 102t-76.5 191z" />
    <glyph glyph-name="J" unicode="J" horiz-adv-x="1194" 
d="M402.5 -45q20.5 0 50.5 18l34 -18l-2 -18q0 -73 68.5 -128t164.5 -55t159 54.5t63 140.5t-99 325q-179 418 -179 525q0 58 60 149t130.5 143t120.5 52q94 0 94 -72q0 -59 -49 -59q-17 0 -31 14q4 11 4 18q1 31 -49 31t-85.5 -48.5t-35.5 -134.5t124 -378q31 -74 91 -216
t60 -223q0 -152 -172 -296q-53 -45 -136 -63.5t-260 -18.5q-51 0 -86 -33l-41 19q-12 94 -68 157.5t-122 63.5q-85 0 -125 -103l-43 13q56 159 207 159q32 0 82 -9t70.5 -9zM57 1124q0 112 86.5 206t271.5 129q56 10 56 34h45v-2q0 -20 96 -73q96 -54 177 -102
q82 -48 119 -48t71.5 22.5t34.5 42.5t-23 31q-1 4 -2.5 9t-1.5 15t14.5 22.5t36.5 12.5t37 -17.5t15 -43.5q0 -89 -145.5 -151t-178.5 -62t-121 56q-87 56 -129 80q-90 52 -185 52q-94 0 -160.5 -62.5t-66.5 -153.5t68 -158.5t180 -83.5l-12 -48q-130 23 -206.5 102
t-76.5 191z" />
    <glyph glyph-name="K" unicode="K" horiz-adv-x="1327" 
d="M905 819q35 21 35 47t-63 103t-86.5 93.5t-47.5 16.5q-55 0 -123.5 -51t-68.5 -108q0 -30 8 -56l64 -225zM51 41q0 94 -43 143l31 39q34 -16 90 -16t88 35l37 -25q-23 -48 -23 -99q0 -52 37 -87t101 -35q159 0 159 187t-141 427q-39 67 -127 206t-88 182q0 76 94 207
t232 205.5t278 74.5q266 0 426 -150q70 -65 111 -140t41 -136q0 -70 -68 -70q-26 0 -39 17q8 44 8 69q0 143 -131 252t-319 109t-325.5 -109t-137.5 -246q0 -70 228 -447q8 -13 11 -19l5 1l-66 226q-14 52 -14 102t44.5 97.5t214.5 120.5q67 30 93 67h41
q62 -114 132.5 -198.5t92.5 -84.5h2v-43q-82 -46 -252 -164q56 -13 152 -281q127 -354 197 -354q29 0 73 25l27 -33q-66 -51 -163 -140q-8 -3 -23 -3q-49 0 -90.5 49.5t-82.5 151.5t-92 242q-90 245 -139 245q-30 0 -125 -74q54 -137 54 -287t-76 -240.5t-213 -90.5
q-50 0 -126 16.5t-107 16.5t-64 -21l-37 23q12 30 12 57z" />
    <glyph glyph-name="L" unicode="L" horiz-adv-x="1110" 
d="M782 113q72 0 168 123q12 16 19 24l39 -27q-93 -124 -238 -278q-36 -8 -78 -8q-102 0 -342 121q-152 75 -196 75q-23 0 -77 -75q-14 -20 -22 -31l-35 20q45 77 94 178t65 101t97 -27q132 67 132 164q0 69 -124 236t-153 229.5t-29 126.5t45 154q146 276 443 276
q178 0 290.5 -105t112.5 -270q0 -52 -16 -112.5t-16 -73.5t12 -25l-27 -32q-28 10 -47 10q-65 0 -113.5 -35.5t-48.5 -77.5t29.5 -65t75.5 -23t96 25l14 -45q-56 -25 -121 -25t-108 41.5t-43 105.5t22.5 117t22.5 59t-8 23l32 20q33 -6 46 -6q57 0 96 43.5t39 110.5
q0 129 -95 211t-244 82t-243 -79t-94 -191t128 -287t151.5 -230t23.5 -102q0 -148 -235 -270q364 -176 460 -176z" />
    <glyph glyph-name="M" unicode="M" horiz-adv-x="1939" 
d="M932 1509q198 0 299 -249q39 117 114 171t197 54q158 0 240 -98.5t82 -288.5q0 -39 -2 -61l22 -1v-47q-138 -20 -190 -72.5t-52 -193.5v-490q0 -28 11 -46q11 -17 53 -47.5t52 -30.5t110 67l24 -31l-206 -194l-42 1q-4 27 -83.5 76t-79.5 140v504q0 115 44.5 173.5
t178.5 133.5v37q0 193 -53.5 269.5t-180.5 76.5q-164 0 -221 -164q47 -176 47 -392q0 -215 -83.5 -415t-290.5 -442h-39v14q0 24 -57.5 58t-86.5 34q-9 -1 -35 -29t-34 -36l-33 22q79 117 115 159t58 42t191 -96q142 223 142 543t-82 524.5t-196 204.5t-138 -142
q86 -192 86 -489q0 -217 -70 -383t-249 -352q-55 -55 -62 -74h-39v14q0 24 -57 58t-86 34q-8 -1 -35 -29t-35 -36l-33 22q136 201 168 201t173 -82q19 -11 28 -16q156 150 156 499q0 348 -94 531.5t-259 183.5q-121 0 -194.5 -76.5t-73.5 -205.5t70 -221.5t192 -125.5
l-20 -43q-139 40 -217 146t-78 270t111 288t272 124q95 0 179 -49.5t138 -137.5q32 101 93 156t141 55z" />
    <glyph glyph-name="N" unicode="N" horiz-adv-x="1497" 
d="M68 41q0 96 -41 143l28 39q34 -16 89 -16t92 35l34 -25q-22 -46 -22 -99t40.5 -87.5t110.5 -34.5q142 0 218.5 169t76.5 488t-93 493.5t-263 174.5q-111 0 -182.5 -78.5t-71.5 -202.5t70.5 -216.5t191.5 -123.5l-20 -43q-139 40 -216 145.5t-77 267.5t109 286.5
t259 124.5q274 0 373 -281q34 146 113.5 214.5t216.5 68.5q319 0 319 -385q0 -43 -2 -61l25 -1v-47q-138 -20 -190 -72.5t-52 -193.5v-490q0 -28 11 -46t53 -48t54 -30q12 1 54 31q44 30 54 36l24 -31q-159 -151 -207 -194h-41q-4 26 -84 76t-80 141v504q0 115 45 173.5
t179 133.5v45q0 186 -54 262t-164 76t-168.5 -53.5t-86.5 -165.5q53 -196 53 -420q0 -340 -129.5 -557t-327.5 -217q-51 0 -126.5 16.5t-106.5 16.5t-64 -21l-34 24q10 26 10 56z" />
    <glyph glyph-name="O" unicode="O" horiz-adv-x="1583" 
d="M489 1360q-239 -142 -239 -251t96 -230q23 -30 65 -81q124 -148 124 -218t-80 -122t-203 -52q-62 0 -100 14v47q46 -14 98 -14q53 0 86 22.5t33 62.5t-70 124q-70 85 -109 135q-88 113 -88 205t60 166.5t284 222.5q105 68 105 131v4l39 -6q17 -57 65.5 -84t203.5 -44
t242.5 -46t158.5 -80q108 -80 168.5 -210t60.5 -290t-69 -308t-193 -258t-272.5 -178.5t-235.5 -68.5t-293 113q-29 14 -123 66t-124 52t-116 -63l-30 35q227 174 268 174q24 0 93 -37q68 -37 132 -71q248 -136 355 -136q159 0 323 161q82 81 129 199.5t47 260.5
q0 228 -140.5 360.5t-474.5 162.5q-223 23 -276 130z" />
    <glyph glyph-name="P" unicode="P" horiz-adv-x="1360" 
d="M457 51v49q-104 50 -148 50t-94 -80l-33 20l129 258l37 -8q-2 -12 -2 -18q0 -26 44 -40t65 -22v739q0 338 -215 338q-85 0 -138 -59t-53 -156t57 -168.5t156 -95.5l-8 -47q-115 28 -184.5 116t-69.5 220t91 236t220 104t205 -85.5t94 -250.5q177 220 424 340l25 -33
q-43 -39 -43 -68q0 -28 43 -126t51 -119t12 -28q144 -343 144 -469t-59 -246t-210 -289q-19 -24 -71 -80t-58 -78h-34q0 13 -82 43t-140 55q-12 -214 -59 -450h-49q-47 235 -47 448zM910 111q38 1 102 93q118 171 118 303t-142 450q-35 78 -82 181t-48 189
q-139 -105 -242 -244v-872l232 -84q42 -16 62 -16z" />
    <glyph glyph-name="Q" unicode="Q" horiz-adv-x="1583" 
d="M489 1360q-239 -142 -239 -251t96 -230q23 -30 65 -81q124 -148 124 -218t-80 -122t-203 -52q-62 0 -100 14v47q46 -14 98 -14q53 0 86 22.5t33 62.5t-70 124q-70 85 -109 135q-88 113 -88 205t60 166.5t284 222.5q105 68 105 131v4l39 -6q17 -57 65.5 -84t203.5 -44
t242.5 -46t158.5 -80q108 -80 168.5 -210t60.5 -290t-69 -308t-193 -258t-272.5 -178.5t-235.5 -68.5t-293 113q-29 14 -123 66t-124 52t-116 -63l-30 35q227 174 268 174q24 0 93 -37q68 -37 132 -71q248 -136 355 -136q159 0 323 161q82 81 129 199.5t47 260.5
q0 228 -140.5 360.5t-474.5 162.5q-223 23 -276 130zM1171 6q-31 0 -114 -55l-29 33q69 47 154.5 113.5t105.5 66.5t80 -31t83 -31t85 58l31 -29l-185 -178l-24 -4q-21 0 -88.5 28.5t-98.5 28.5z" />
    <glyph glyph-name="R" unicode="R" horiz-adv-x="1475" 
d="M1047 1276q-41 47 -67 47t-92 -42t-138 -107q67 -172 69 -399q181 102 269 164t145 122zM385 -4q281 0 281 642q0 322 -94.5 507.5t-264.5 185.5q-97 0 -158 -72.5t-61 -202.5t73.5 -231.5t196.5 -130.5l-18 -45q-142 38 -223.5 159t-81.5 291t95 278t239 108
q240 0 364 -262q98 88 243 170.5t175 107.5l27 -31q-23 -21 -23 -43q0 -21 48.5 -81t100.5 -106t65 -52t25 -6t35 12l23 -31q-64 -39 -170 -127t-147 -121q30 -37 55 -120.5t63 -319.5q57 -332 121 -332q27 0 82 64l33 -27q-39 -54 -98.5 -129.5t-69.5 -95.5h-39
q-2 12 -52.5 56.5t-77.5 130.5t-56.5 281t-48.5 271t-30.5 93.5t-29.5 17.5q-37 0 -168 -90v-45q0 -329 -117 -525t-313 -196q-50 0 -126 16.5t-107 16.5t-64 -21l-34 24q10 26 10 56q0 96 -41 143l28 39q34 -16 89 -16t92 35l34 -25q-22 -48 -22 -99t37 -86.5t100 -35.5z
" />
    <glyph glyph-name="S" unicode="S" horiz-adv-x="1593" 
d="M1399 1438q0 41 35 41q21 0 34 -23.5t13 -63.5q0 -80 -54 -126t-142 -85.5t-113 -39.5q-24 0 -112 59t-153 97q-118 69 -219 69q-196 0 -339.5 -164t-143.5 -399q0 -297 244 -510q103 -92 235.5 -143.5t263.5 -51.5q216 0 358 120.5t142 303.5q0 139 -81 236.5t-191 97.5
q-77 0 -277 -102t-217 -103q-16 0 -61 45t-63 60q-134 120 -134 228t74.5 179.5t163.5 71.5q174 0 260 -158l-39 -26q-30 63 -86.5 100t-130.5 37t-133.5 -57t-59.5 -133t47.5 -122.5t121.5 -46.5t230.5 89.5t202.5 89.5q88 0 197 -76q223 -156 223 -403q0 -248 -179 -413
t-454 -165q-334 0 -551 212t-217 544q0 156 63 301t174 247t262.5 169t254.5 67q65 0 191 -80l42 -27q179 -108 232 -108q52 0 85.5 27t33.5 53t-16.5 46.5t-16.5 35.5z" />
    <glyph glyph-name="T" unicode="T" horiz-adv-x="1204" 
d="M586 950q0 -34 27 -73.5t149 -127.5q121 -89 121 -167q0 -102 -97 -165t-262 -63q-14 0 -42 4t-37 4q26 -16 75 -47q313 -194 408 -194q55 0 110 26.5t131 92.5l27 -31q-113 -116 -212 -186t-138 -70q-85 0 -510 264q-129 82 -164 82t-96 -63l-33 22q92 133 130.5 172
t62.5 39q24 1 65 -21t57 -30q76 -21 169 -21t152.5 33.5t59.5 80.5t-111 131q-139 101 -167.5 145t-28.5 87q0 148 297 332q-37 20 -104 56q-192 106 -276 106t-150 -67t-66 -176t96 -197l-32 -33q-111 101 -111 230q0 128 84 214q58 61 161 108.5t151 47.5t106 -22
t287 -154q229 -133 261 -133t87 41l32 -27q-47 -38 -110.5 -99t-87.5 -61t-283 144q-188 -122 -188 -234z" />
    <glyph glyph-name="U" unicode="U" horiz-adv-x="1214" 
d="M190 322v882q0 78 -61 78q-34 0 -70 -16l-22 34q70 56 115 106.5t51 78.5l39 -1q3 -20 55.5 -52t52.5 -82v-1094q0 -18 15 -33l147 -114q19 -17 44 -17t306 184v902q0 60 -21.5 87.5t-71.5 34.5l-1 48q118 14 156 137h39q17 -58 58 -94t99 -43v-48q-51 -7 -73.5 -35
t-22.5 -87v-928q0 -54 13 -77t47 -23t87 49l29 -33q-110 -83 -209 -213h-43l2 24q0 8 -26 32t-44 49t-18 79v86q-141 -101 -289.5 -182t-148.5 -88h-43v6q0 28 -59 65q-140 93 -187 93v45q30 12 42.5 47t12.5 113z" />
    <glyph glyph-name="V" unicode="V" horiz-adv-x="1659" 
d="M811 850q0 219 -96.5 347t-250.5 128t-246.5 -96.5t-92.5 -240.5t90 -238t252 -125l-12 -47q-192 43 -285.5 152t-93.5 299t120.5 323t303.5 133q227 0 360 -201q112 201 338 201q312 0 342 -301q2 -25 6 -77t27 -52h6v-41q-153 -26 -223 -62t-70 -90q0 -34 32 -83
t155 -172q96 -98 96 -179q0 -184 -185 -329.5t-436 -145.5q-53 0 -141 75q-89 76 -113 94t-29 22q-160 122 -233 122q-46 0 -164 -41l-18 39q304 113 338 113l45 -8q84 67 131 193t47 288zM958 913q0 -331 -274 -565q96 -62 240.5 -182.5t205.5 -120.5q115 0 213.5 80
t98.5 178q0 53 -29 103.5t-121 142.5l-19 19q-151 149 -151 261q0 65 44 100.5t237 90.5q-25 38 -27 110t-6 99q-14 89 -73.5 142.5t-144.5 53.5q-173 0 -265 -192q71 -158 71 -320z" />
    <glyph glyph-name="W" unicode="W" horiz-adv-x="2142" 
d="M565 356q14 0 46 -7q180 162 180 495q0 212 -95.5 343.5t-243.5 131.5t-236.5 -96.5t-88.5 -246.5t90.5 -243.5t243.5 -111.5l-10 -48q-175 24 -274 132t-99 276q0 209 121.5 351.5t297.5 142.5t279 -121q25 82 81.5 128t142.5 46t146.5 -67t67.5 -179q126 197 365 197
q155 0 259 -87t114 -286q4 -64 39 -64v-36q-129 -16 -186.5 -55.5t-57.5 -110.5q0 -44 31.5 -89.5t123.5 -125.5t122 -129.5t30 -109.5q0 -155 -130 -241.5t-237 -142.5t-133 -57q-55 0 -395 209q-180 -143 -340 -207q-50 42 -131 113q-178 157 -248 157q-38 0 -114 -47
l-27 39q220 147 266 147zM930 909q0 -369 -281 -581q72 -54 170.5 -149t130.5 -95t114 57t144 123q112 121 111 228q-1 94 -95 262l-8 16q-100 193 -100 275t51 184v28q0 105 -48.5 163.5t-123.5 58.5t-120 -43.5t-60 -118.5q115 -177 115 -408zM1933 299q0 45 -26.5 86.5
t-130.5 132.5t-140.5 147t-36.5 117q0 159 220 226q-25 34 -34.5 113.5t-17.5 111.5q-21 86 -88 134t-171 48t-184.5 -74.5t-80.5 -174.5t102.5 -284t102.5 -259t-37 -153t-127 -187q349 -205 404 -205q78 0 161.5 74t83.5 147z" />
    <glyph glyph-name="X" unicode="X" horiz-adv-x="1165" 
d="M766 690h-84v-256q0 -146 57 -230.5t154 -84.5q51 0 102.5 32.5t124.5 114.5l35 -30l-199 -195q-8 -10 -40 -40t-37 -47h-44q-11 15 -55.5 28t-64.5 22q-145 62 -176 246q-51 -154 -170 -264q-26 -23 -33 -33h-39q-6 25 -68.5 58.5t-100.5 33.5t-83 -47l-29 22l156 197
h41q9 -29 80.5 -70t97.5 -41q45 0 92 122.5t47 275.5v186h-75q-85 0 -130.5 -34.5t-78.5 -125.5h-47q51 145 88 287q32 -8 96 -8h147v172q0 171 -57 261.5t-164 90.5q-69 0 -194 -125l-35 25l194 231q17 21 68 21q120 0 212 -81.5t110 -207.5q41 123 142 199t105 90h39
q21 -32 82.5 -70.5t75.5 -38.5t38 18l30 -22q-36 -37 -76 -88t-54 -51t-80 44.5t-118 74.5q-166 -68 -166 -418v-125h70q97 0 137 25t72 100h43q-51 -92 -115 -254q-82 10 -123 10z" />
    <glyph glyph-name="Y" unicode="Y" horiz-adv-x="1470" 
d="M316 246q-34 0 -74 -8l-9 47q232 49 334.5 168t102.5 346t-100.5 377.5t-256.5 150.5q-104 0 -177 -84.5t-73 -211.5t76.5 -214.5t206.5 -105.5l-6 -45q-147 15 -236.5 118.5t-89.5 271.5t114.5 298.5t266.5 130.5q119 0 217.5 -84.5t155.5 -235.5q170 203 330 326
l26 -25q-12 -22 -12 -48t52 -112t65 -108q141 -242 141 -507q0 -266 -117.5 -519.5t-322.5 -427.5q-171 -147 -332 -147q-104 0 -178 54.5t-74 127.5q0 40 26 66t64 26t61 -18t23 -41t-7 -43t-7 -23q0 -27 38 -50.5t87 -23.5q238 0 424 301q70 115 111.5 275t41.5 330
t-49.5 327.5t-200.5 399.5q-121 -123 -172 -193q21 -126 21 -203q0 -347 -277 -553q60 -46 146.5 -124t117.5 -78t107 43l29 -41q-167 -99 -303 -199l-37 27q28 34 28 44q0 11 -57.5 66.5t-113.5 95.5t-76.5 48t-54.5 8z" />
    <glyph glyph-name="Z" unicode="Z" horiz-adv-x="1100" 
d="M41 -293q0 77 43 124t150 84q106 36 106 58v4h45q11 -52 78 -116t112 -64q106 0 189.5 90.5t83.5 218.5q0 189 -152.5 336.5t-343.5 147.5q-76 0 -125 -29t-49 -74q0 -2 4 -22q-30 0 -52 -12l-33 26q20 71 81 118t149 60q-133 20 -198 121l37 29q88 -88 251 -88t266 89.5
t103 237.5t-103 245.5t-245 97.5t-230 -78t-104 -203h-47q19 174 139 275.5t315 101.5t319 -108.5t124 -270.5t-100.5 -271t-278.5 -147q180 -21 295 -149.5t115 -315.5t-107.5 -313t-347.5 -176q-97 -20 -104 -49h-43q-108 157 -178 157q-46 0 -81.5 -37.5t-35.5 -91.5
t47 -96l-26 -39q-68 52 -68 129z" />
    <glyph glyph-name="bracketleft" unicode="[" horiz-adv-x="541" 
d="M137 -238v1674h379v-47h-242v-1579h242v-48h-379z" />
    <glyph glyph-name="backslash" unicode="\" horiz-adv-x="569" 
d="M537 -190l-586 1675h80l587 -1675h-81z" />
    <glyph glyph-name="bracketright" unicode="]" horiz-adv-x="541" 
d="M403 1436v-1674h-378v48h241v1579h-241v47h378z" />
    <glyph glyph-name="asciicircum" unicode="^" horiz-adv-x="2048" 
d="M934 1462h178l520 -565h-92l-518 436l-520 -436h-90z" />
    <glyph glyph-name="underscore" unicode="_" 
d="M0 -365h1024v-118h-1024v118z" />
    <glyph glyph-name="grave" unicode="`" 
d="M270.5 1449.5q29.5 27.5 56.5 27.5t68 -50l242 -307h-49l-273 236q-74 66 -44.5 93.5z" />
    <glyph glyph-name="a" unicode="a" horiz-adv-x="848" 
d="M47 442q0 252 329 542l30 26h40l3 -11q106 -78 296 -147v-39q-38 -11 -50.5 -33.5t-12.5 -81.5v-424q0 -67 20 -104t56 -37q16 0 55 45l31 -24l-166 -201l-31 16l15 23q-74 58 -95.5 98t-21.5 105v18q-177 -140 -299 -260l-27 18q11 18 10 23q0 4 -24 33
q-158 189 -158 415zM178 543q0 -149 66.5 -277.5t120.5 -128.5q16 0 47 25l133 104v510q-107 50 -197 123q-170 -128 -170 -356z" />
    <glyph glyph-name="b" unicode="b" horiz-adv-x="819" 
d="M594 983q-21 -17 -21 -32t58 -98q141 -210 141 -330t-90.5 -253.5t-298.5 -316.5h-39q0 25 -73.5 66.5t-180.5 70.5v41q27 4 37 20.5t10 79.5v977q0 64 -37 123l29 21q47 -47 59 -109q63 199 275 199v-43q-103 -6 -146 -64.5t-43 -197.5v-330l297 203zM274 219
q0 -34 23 -45l136 -68q36 -22 70 14t74 94q74 108 74 194q0 115 -144 345q-45 73 -69 113l-164 -112v-535z" />
    <glyph glyph-name="c" unicode="c" horiz-adv-x="645" 
d="M119 317v349q0 63 10 87.5t39 51.5l194 180q25 25 46 25t70.5 -46t63.5 -46t42 14l26 -23l-102 -96q-20 -18 -31 -18q-12 0 -49 26l-98 74l-29 -25q-25 -22 -35 -46t-10 -72v-371q0 -103 18 -139t63 -67.5t79 -31.5t151 105l31 -25q-139 -135 -274 -270l-25 14l14 25
q-113 68 -153.5 134.5t-40.5 190.5z" />
    <glyph glyph-name="d" unicode="d" horiz-adv-x="819" 
d="M137 322v501q22 3 34 13t15 12l137 94q-2 2 -8 6q-252 160 -252 285q0 93 64 151t168 58v-43h-16q-47 0 -79 -26.5t-32 -66.5t36.5 -80t96.5 -78t98 -61q373 -230 373 -469q0 -163 -86 -320t-280 -345h-35q-4 42 -92.5 92.5t-210.5 75.5v41q39 14 54 42.5t15 117.5z
M659 504q0 138 -64.5 232t-223.5 184l-62 -41q-35 -24 -35 -68v-592l183 -98q12 -8 28 -8q45 0 109.5 126.5t64.5 264.5z" />
    <glyph glyph-name="e" unicode="e" horiz-adv-x="721" 
d="M450 143q74 0 177 99l24 -25l-278 -264l-27 16l6 17q-125 54 -179 127t-54 188v299l-2 94q0 34 8 50t35 38l268 228h45l174 -305q10 -16 10 -30t-10 -24l-387 -313q10 -85 63 -140t127 -55zM256 741v-352l250 203q10 8 10 17q0 10 -10 30l-146 254q-71 -52 -87.5 -78.5
t-16.5 -73.5z" />
    <glyph glyph-name="f" unicode="f" horiz-adv-x="487" 
d="M137 627v184h-96v47q78 23 113 217q12 66 20 103q26 120 87 192t132 72q37 0 85 -11.5t62 -11.5t25 21l37 -15l-84 -172q-84 62 -180 62q-50 0 -78.5 -30.5t-28.5 -80.5t27 -141t35 -133h194v-119h-196l-2 -268q0 -288 -62 -940h-43q-47 627 -47 1024z" />
    <glyph glyph-name="g" unicode="g" horiz-adv-x="844" 
d="M211 -10q6 18 6 37t-57 95q-113 150 -113 294t68.5 263t298.5 331h39l-2 -4q0 -26 88 -75.5t209 -82.5v-39q-66 -96 -66 -341q0 -244 86 -370l2 -45q0 -197 -108 -323.5t-265 -126.5t-247 72t-105 198l123 1q2 -110 61 -170t167 -60t188 81.5t80 178.5q0 15 -47 121
t-60 204l-307 -249zM547 412q0 205 51 329q-115 32 -254 138q-164 -152 -164 -365q0 -132 73.5 -244t131.5 -112q16 0 46 23l120 96q-4 46 -4 135z" />
    <glyph glyph-name="h" unicode="h" horiz-adv-x="815" 
d="M137 197v1011q0 64 -37 123l29 21q47 -47 59 -109q63 199 275 199v-43q-103 -6 -146 -64.5t-43 -197.5v-369l263 242l24 -21q-6 -16 -6 -27q1 -10 11 -22t12 -15q108 -135 149 -234.5t41 -211.5q0 -349 -410 -882l-36 24q157 215 240 409t83 330t-53.5 251t-167.5 235
l-150 -135v-480q0 -63 22 -77l34 -19l92 78l27 -31q-151 -149 -177 -229h-39q-8 31 -54.5 69t-102.5 56v37q33 4 47 22.5t14 59.5z" />
    <glyph glyph-name="i" unicode="i" horiz-adv-x="469" 
d="M166 711q0 51 -7 69.5t-28 18.5t-61 -39l-27 26q102 100 197 224l28 -19q-16 -30 -16 -46t42 -46.5t47 -30.5t21 -6v-45q-34 -7 -46.5 -28t-12.5 -80v-490q0 -33 14.5 -55.5t32.5 -22.5t66 49l30 -30q-104 -104 -178 -207l-32 16l8 19q-51 39 -66.5 64.5t-15.5 66.5
l4 125v467zM326 1460q69 0 69 -65q0 -29 -28.5 -70.5t-139.5 -159.5h-37q3 14 7 38q45 257 129 257z" />
    <glyph glyph-name="j" unicode="j" horiz-adv-x="440" 
d="M326 1460q69 0 69 -65q0 -29 -28.5 -70.5t-139.5 -159.5h-37q3 14 7 38q45 257 129 257zM166 236v475q0 51 -7 69.5t-28 18.5t-61 -39l-27 26q102 100 197 224l28 -19q-16 -30 -16 -43q0 -39 110 -86v-45q-34 -7 -46.5 -28t-12.5 -80v-537q0 -102 35 -219h-39
q-21 60 -33 106q-30 -191 -180 -456h-47q67 122 97 266t30 367z" />
    <glyph glyph-name="k" unicode="k" horiz-adv-x="768" 
d="M274 231q0 -41 5 -54.5t17 -22.5l40 -25l47 43l27 -29q-120 -135 -138 -190h-39q-8 31 -54.5 69t-102.5 56v37q33 4 47 22.5t14 59.5v1011q0 64 -37 123l29 21q47 -47 59 -109q63 199 275 199v-43q-103 -6 -146 -64.5t-43 -197.5v-340l318 213l16 -27q-16 -24 -16 -35
t43 -81.5t43 -118.5t-32.5 -89.5t-131.5 -115.5q79 -56 136 -313q10 -46 16 -70l34 -23l39 33l29 -25q-100 -120 -156 -192l-28 14l8 21q-65 58 -80 178q-23 191 -117 299l-121 -78v-156zM547 672q0 34 -39 99.5t-53 96.5l-181 -123v-309l193 125q80 50 80 111z" />
    <glyph glyph-name="l" unicode="l" horiz-adv-x="440" 
d="M137 1208q0 64 -37 123l29 21q47 -47 59 -109q63 199 275 199v-43q-103 -6 -146 -64.5t-43 -197.5v-906q0 -40 5 -52.5t18 -20.5l47 -29q16 -8 28 -8t33 14l72 51l29 -30l-252 -203l-27 16l11 15v2q0 16 -45.5 42.5t-116.5 49.5v37q33 4 47 22.5t14 59.5v1011z" />
    <glyph glyph-name="m" unicode="m" horiz-adv-x="1341" 
d="M602 213v532q0 34 -39.5 71.5t-58.5 37.5t-60 -37l-141 -135v-469q0 -103 70 -115l-1 -41q-88 -18 -116 -108h-43q-28 90 -116 108l-1 41q70 12 70 115v512q0 45 -9.5 64.5t-33.5 39.5l-47 -45l-33 27l174 199l33 -23q-10 -14 -10 -27t18 -33.5t30 -38.5t13 -72t2 -74
l221 212q33 33 41 55l35 1v-4q0 -22 34 -50t58 -49q46 -40 47 -137v-29l267 269h34q21 -46 76 -84.5t106 -42.5l1 -41q-47 -22 -47 -92v-549q0 -68 36 -68q30 0 58 45l33 -22l-158 -207l-33 20l14 23q-57 38 -74.5 63.5t-17.5 63.5l4 153v473q0 35 -40 72t-62 37t-59 -37
l-138 -135v-469q0 -103 70 -115l-1 -41q-88 -18 -116 -108h-43q-26 90 -116 108l-1 41q70 12 70 115z" />
    <glyph glyph-name="n" unicode="n" horiz-adv-x="909" 
d="M606 745q0 35 -41 71t-63 36t-58 -37l-141 -135v-467q0 -103 70 -115l-1 -41q-88 -18 -116 -108h-43q-28 90 -116 108l-1 41q70 12 70 115v510q0 45 -9.5 64.5t-33.5 39.5l-47 -45l-33 27l174 201l33 -23q-14 -20 -14 -28t12 -20q57 -53 57 -157q0 -28 -2 -40l262 268h43
q32 -54 84.5 -90.5t97.5 -38.5l1 -39q-48 -22 -48 -92v-549q0 -68 37 -68q30 0 58 45l32 -22l-159 -207l-31 20l12 23q-57 38 -74.5 63.5t-17.5 63.5l6 153v473z" />
    <glyph glyph-name="o" unicode="o" horiz-adv-x="811" 
d="M137 653q0 102 -10 174l444 183l21 -37l-31 -17q20 -43 111.5 -183t91.5 -253q0 -198 -346 -567h-41q-15 68 -287 137v41q26 8 36.5 44.5t10.5 125.5v352zM481 102q37 0 97.5 99t60.5 202q0 135 -139 339q-67 97 -97 153l-129 -53v-643q36 -17 113 -57t94 -40z" />
    <glyph glyph-name="p" unicode="p" horiz-adv-x="844" 
d="M162 594q0 133 -23 168q-9 15 -35 47t-26 54q0 23 50 95t65 93l36 -21q-18 -34 -18 -54q0 -19 44 -73t44 -104v-11l303 222l31 -31l-29 -21q15 -41 104 -168.5t89 -234.5q0 -147 -196 -399q-102 -131 -144 -203h-39q-9 31 -131 82q-27 -314 -35 -432h-43q-26 250 -37 460
q-16 7 -38 7q-23 0 -56 -37l-33 20l117 164v377zM684 438q0 98 -146 317q-45 68 -69 105l-170 -123v-536q168 -92 190 -92q41 0 118 115.5t77 213.5z" />
    <glyph glyph-name="q" unicode="q" horiz-adv-x="815" 
d="M178 543q0 -149 66.5 -277.5t120.5 -128.5q16 0 47 25l133 104v510q-107 50 -197 123q-170 -128 -170 -356zM47 442q0 252 329 542l30 26h40q88 -83 283 -158v-39q-45 -17 -51 -434t-45 -776h-43q-23 161 -45 609q-172 -134 -299 -259l-27 18q11 18 10 23q0 4 -24 33
q-158 189 -158 415z" />
    <glyph glyph-name="r" unicode="r" horiz-adv-x="616" 
d="M166 244v475q0 46 -10 64.5t-39 39.5l-47 -41l-27 27l43 50q95 112 129 151l33 -21q-8 -18 -8 -31t31.5 -48t31.5 -83v-59q36 61 94.5 139t61.5 103h35q14 -75 92 -150v-53q-45 -49 -78 -125h-39q-24 70 -82 139l-43 -65q-23 -35 -32 -61.5t-9 -78.5v-409q0 -27 16 -39
l54 -39q34 -23 55 -2l104 90l31 -31l-239 -233l-33 14l8 15q-96 84 -207 124v37q40 5 57 28t17 73z" />
    <glyph glyph-name="s" unicode="s" horiz-adv-x="786" 
d="M387 1139q43 108 173 108q68 0 125.5 -61.5t57.5 -148.5t-67 -175l-150 -192q102 -53 156.5 -129t54.5 -209t-186 -254q-24 -16 -93 -52t-102 -73h-37q-12 53 -260 192v39q67 30 114.5 92t47.5 114t-76.5 158.5t-76.5 146.5t53 96q208 219 250 219q5 0 33 -21
q99 -74 164 -74q132 0 132 126q0 63 -36.5 108t-90.5 45q-81 0 -100 -106q-45 37 -86 51zM285 877q-17 0 -57 -40.5t-40 -66.5t61 -108.5t95 -157.5l209 266q-90 5 -170.5 56t-97.5 51zM631 291q0 81 -74 160t-123 79q-14 0 -37 -28l-198 -254q31 -22 124 -92t139 -70
t107.5 62t61.5 143z" />
    <glyph glyph-name="t" unicode="t" horiz-adv-x="494" 
d="M166 213v598h-103v47q71 48 127.5 135t114.5 242h43q-45 -178 -45 -305h182v-119h-182v-641l47 -35q16 -12 26.5 -12t24.5 10l58 45l24 -28q-104 -96 -196 -201l-35 14l8 23q-89 61 -151 82v38q33 8 45 27.5t12 79.5z" />
    <glyph glyph-name="u" unicode="u" horiz-adv-x="905" 
d="M664 -12q-64 40 -64 110q0 32 1 65t1 54q-68 -64 -174 -149t-129 -115l-29 12q2 10 2 15q0 16 -122 72q-19 9 -29 13v44q26 6 35.5 26.5t9.5 91.5v502q0 40 -10.5 61t-38.5 44l-39 -35l-33 26l160 185l30 -17q-8 -17 -8 -23t24 -27t38 -40t14 -78v-596q0 -54 19 -63
l51 -29q18 -10 35 -10t73 42.5t121 111.5v469q0 100 -70 112v43q89 18 117 105h43q30 -87 117 -105v-43q-70 -12 -70 -112v-543q0 -68 29 -68q22 0 59 56l33 -27q-52 -64 -146 -175l-34 -40l-29 16z" />
    <glyph glyph-name="v" unicode="v" horiz-adv-x="840" 
d="M162 205v399q0 65 -52.5 134.5t-52.5 95.5q0 57 131 221l33 -15q-24 -46 -24 -86t47 -98.5t55 -89.5l287 244h32v-27q0 -17 87.5 -160.5t87.5 -273.5q0 -230 -321 -541q-37 -36 -56 -55h-43q-113 93 -258 123v41q28 5 37.5 21.5t9.5 66.5zM487 98q41 0 112 106.5
t71 214.5q0 210 -191 443l-180 -151v-527l168 -82q8 -4 20 -4z" />
    <glyph glyph-name="w" unicode="w" horiz-adv-x="1229" 
d="M205 967q0 -25 44.5 -92.5t45.5 -110.5l237 246h33v-17q0 -21 61.5 -86t75.5 -145l281 248h33v-35q0 -33 82 -169t82 -267q0 -239 -348 -584l-3 -2h-43q-81 66 -258 108v41q28 6 36.5 21.5t8.5 66.5v414q0 100 -33 167t-70 67t-75 -35l-96 -94v-496q0 -103 70 -115
l-1 -41q-88 -18 -116 -104h-43q-28 86 -116 104l-1 41q70 12 70 115v391q0 82 -44 149t-44 91t31 83.5t83 127.5l33 -15q-16 -48 -16 -73zM889 88q37 0 103.5 106t66.5 214t-42 212t-140 238l-166 -147v-541l162 -78q6 -4 16 -4z" />
    <glyph glyph-name="x" unicode="x" horiz-adv-x="829" 
d="M582 799q-51 -89 -113 -228l145 -342q41 -94 68 -94q16 0 55 45l29 -22q-98 -122 -166 -215l-31 18l12 27q-27 9 -61 96l-117 299q-88 -199 -208 -426h-33q-41 93 -92 154v43q43 56 77 120h37q24 -64 66 -118q62 122 127 278l-109 256q-27 67 -59 103l-39 45l-55 -58
l-33 31l180 203l27 -27l-8 -29q57 -47 118 -216l47 -119q127 259 187 376h41q23 -86 80 -143v-43q-44 -57 -72 -131h-37q-23 55 -63 117z" />
    <glyph glyph-name="y" unicode="y" horiz-adv-x="840" 
d="M162 231v420q0 84 -44 131.5t-44 67.5q0 42 129 211l35 -19q-17 -38 -17 -59q0 -22 39 -84.5t39 -118.5v-12l262 242l24 -20q-5 -20 -5 -31t22 -33q109 -136 150 -235.5t41 -211.5q0 -347 -410 -882l-37 24q157 215 240.5 409t83.5 330t-54 251t-167 235l-150 -135v-502
q0 -74 45 -74l86 58l27 -31q-108 -97 -145 -137.5t-52 -71.5h-39q-42 74 -121 119v41q37 6 49.5 25.5t12.5 92.5z" />
    <glyph glyph-name="z" unicode="z" horiz-adv-x="578" 
d="M326 674q0 62 -33.5 104.5t-71.5 42.5t-59.5 -10.5t-55.5 -46.5l-32 27l207 253l34 -20q-8 -14 -8 -25q0 -6 82 -61t82 -147q0 -64 -46 -138.5t-149 -177.5q88 -76 115 -115q40 24 103 46l12 -39q-43 -17 -90 -43q92 -139 92 -319q0 -181 -71.5 -291.5t-175.5 -110.5
t-166 78t-62 204q0 228 198 387q-38 50 -120 101v37q215 113 215 264zM76 -115q0 -101 49.5 -167t119.5 -66t109 62t39 162q0 201 -137 364q-180 -157 -180 -355z" />
    <glyph glyph-name="braceleft" unicode="{" 
d="M600 1200v-143q0 -226 -61 -308.5t-226 -113.5q165 -31 226 -113.5t61 -308.5v-143q0 -156 51.5 -208.5t193.5 -54.5l1 -51h-10q-217 0 -298 73.5t-81 272.5v213q0 158 -59 218t-222 73v60q165 15 223 74t58 216v213q0 200 81 273.5t298 73.5h10l-1 -52
q-141 -1 -193 -54.5t-52 -209.5z" />
    <glyph glyph-name="bar" unicode="|" 
d="M449 1565h126v-2048h-126v2048z" />
    <glyph glyph-name="braceright" unicode="}" 
d="M188 1516q216 0 297.5 -74t81.5 -273v-213q0 -157 58 -216t223 -74v-60q-163 -13 -222 -73t-59 -218v-213q0 -198 -81.5 -272t-297.5 -74h-10l1 51q142 2 193.5 54.5t51.5 208.5v143q0 226 61 308.5t226 113.5q-165 31 -226 113.5t-61 308.5v143q0 156 -52 209.5
t-193 54.5l-1 52h10z" />
    <glyph glyph-name="asciitilde" unicode="~" horiz-adv-x="1706" 
d="M1143 483q-82 1 -151 23q-70 22 -127 43q-202 72 -302 72q-157 0 -385 -160v133q209 145 387 145q127 0 326 -78q164 -59 254 -59q163 0 385 156v-131q-202 -144 -387 -144z" />
    <glyph glyph-name="nonbreakingspace" unicode="&#xa0;" horiz-adv-x="1063" 
 />
    <glyph glyph-name="exclamdown" unicode="&#xa1;" horiz-adv-x="530" 
d="M242 1151q-21 93 -119 119v47q98 26 119 119h47q19 -92 119 -119v-47q-100 -27 -119 -119h-47zM360 70q0 -117 -95 -117t-95 113q0 7 3 44.5t5 65.5l64 754h47l63 -754q2 -29 5 -65.5t3 -40.5z" />
    <glyph glyph-name="cent" unicode="&#xa2;" horiz-adv-x="1063" 
d="M305 496q0 -190 63.5 -306.5t174.5 -132.5v924q-238 -58 -238 -485zM913 756q1 -80 -81 -80q-40 0 -63.5 27.5t-23.5 76.5l5 64q0 58 -39 95t-111 46l1 -932q105 2 179.5 80.5t89.5 206.5h48q-16 -148 -101 -238t-217 -98v-213h-57v209q-195 17 -306.5 153.5
t-111.5 352.5t117.5 359.5t300.5 160.5v154h57v-152q137 -15 225 -92.5t88 -179.5z" />
    <glyph glyph-name="sterling" unicode="&#xa3;" horiz-adv-x="1063" 
d="M775 123q77 0 174 127q10 13 16 20l39 -26q-93 -130 -219 -262q-26 -7 -74 -7q-104 0 -346 121q-156 76 -197 76q-22 0 -76 -76q-14 -19 -22 -30l-35 20q47 75 93.5 167.5t61.5 92.5l96 -26q136 64 136 180q0 63 -62 149h-284v58h248q-101 109 -146 194.5t-45 167.5
q0 146 123.5 245t301.5 99t295.5 -81t117.5 -191q0 -90 -88 -90q-97 0 -97 100l7 76q0 67 -61.5 103t-181.5 36t-197 -57t-77 -149t111 -235.5t152 -217.5h356v-58h-332q6 -24 6 -51q0 -82 -52 -150.5t-181 -150.5q362 -174 439 -174z" />
    <glyph glyph-name="currency" unicode="&#xa4;" horiz-adv-x="1241" 
d="M623 1303q139 0 258 -91l204 207l72 -73l-205 -205q86 -114 86 -257t-86 -255l205 -205l-72 -74l-204 207q-114 -88 -259.5 -88t-256.5 88l-207 -207l-72 74l207 205q-88 116 -88 256t88 256l-207 205l72 73l207 -207q119 91 258 91zM623 1200q-130 0 -222 -92t-92 -222
t91.5 -222.5t221.5 -92.5t222 92.5t92 222.5t-91.5 222t-221.5 92z" />
    <glyph glyph-name="yen" unicode="&#xa5;" horiz-adv-x="1063" 
d="M887 1280q0 61 -121 61h-14v48h370v-48h-18q-59 0 -105.5 -36.5t-93.5 -120.5l-125 -230h277v-57h-309l-115 -209h424v-55h-441v-490q0 -54 26 -75t93 -21h80v-47h-549v47h80q69 0 94 21.5t25 81.5v483h-459v55h440l-122 209h-318v57h283l-168 281q-63 106 -178 106h-17
v48h504v-48h-22q-123 0 -123 -55q0 -26 34 -88l275 -481l244 440q49 91 49 123z" />
    <glyph glyph-name="brokenbar" unicode="&#xa6;" 
d="M449 1432h126v-758h-126v758zM449 408h126v-758h-126v758z" />
    <glyph glyph-name="section" unicode="&#xa7;" 
d="M418 -195q-86 0 -130 33.5t-44 77.5t25 69t69 25t90.5 -54t81.5 -54q58 0 101.5 51t43.5 127q0 119 -186 317t-229 286t-43 182t34 208.5t94 209.5t138.5 148.5t152.5 53.5t116 -30.5t42 -70.5t-22 -64t-56 -24t-87 43t-99 43t-86.5 -54t-40.5 -132t42.5 -157t182.5 -233
t179.5 -240t39.5 -179q0 -184 -88 -342q-63 -116 -149 -178t-172 -62zM766 299q0 172 -223 415q-38 42 -91 102t-102.5 144.5t-54.5 142.5q-29 -64 -29 -154t39.5 -174.5t186.5 -244.5q20 -21 59 -62q167 -174 192 -300q23 65 23 131z" />
    <glyph glyph-name="dieresis" unicode="&#xa8;" 
d="M356 1384q16 -69 90 -90v-34q-75 -23 -90 -93l-37 1q-13 69 -90 92v34q76 21 90 90h37zM705 1384q14 -69 90 -90v-34q-77 -23 -90 -92l-37 -1q-15 70 -90 93v34q74 21 90 90h37z" />
    <glyph glyph-name="copyright" unicode="&#xa9;" horiz-adv-x="1683" 
d="M842 1382q140 0 269 -53.5t227 -150.5t152 -228.5t54 -346t-204 -421.5t-495.5 -207t-498.5 205t-207 496t205 500q98 99 228 152.5t270 53.5zM842 1303q-121 0 -235.5 -48.5t-201.5 -136.5q-180 -183 -180 -441t181 -439t437 -181t436 184q179 184 179 372.5t-47 305
t-133 202.5t-200.5 134t-235.5 48zM588 680q0 -377 266 -377q170 0 283 174l34 -24q-115 -209 -342 -209q-167 0 -285 123t-118 303t116 306t285 126q74 0 148 -34t82 -34q52 0 63 62h35l2 -314h-41q-68 275 -280 275q-248 0 -248 -377z" />
    <glyph glyph-name="ordfeminine" unicode="&#xaa;" horiz-adv-x="637" 
d="M172 768q0 4 -18 25q-119 131 -119 299t245 368l25 21h31v-6q80 -54 223 -105v-27q-28 -7 -37.5 -22.5t-9.5 -56.5v-297q0 -99 57 -99q13 0 41 31l23 -16l-125 -142l-23 13l11 14q-56 43 -71 70.5t-15 72.5v13q-142 -107 -226 -183l-20 13q8 10 8 14zM133 1155
q0 -105 50 -195t91 -90q7 0 35 17l101 74v356q-84 36 -148 86q-129 -86 -129 -248z" />
    <glyph glyph-name="guillemotleft" unicode="&#xab;" horiz-adv-x="639" 
d="M322 86l-275 401v58l275 346v-113l-138 -262l138 -305v-125zM569 86l-274 401v58l274 346v-113l-137 -262l137 -305v-125z" />
    <glyph glyph-name="logicalnot" unicode="&#xac;" horiz-adv-x="1706" 
d="M254 858h1198v-502h-115v385h-1083v117z" />
    <glyph glyph-name="sfthyphen" unicode="&#xad;" horiz-adv-x="541" 
d="M47 178v92l447 297v-94zM47 412v94l447 295v-92z" />
    <glyph glyph-name="registered" unicode="&#xae;" horiz-adv-x="1683" 
d="M842 1382q140 0 270 -54t228 -152t151 -228.5t53 -269.5t-56 -269.5t-156 -230.5q-202 -202 -490 -203q-288 0 -495.5 205t-207.5 496t205 500q98 99 228 152.5t270 53.5zM842 1303q-120 0 -234 -48t-248.5 -184t-134.5 -394t181 -439t437 -181t436 184
q179 184 179 372.5t-47 306t-133 202.5t-201 133t-235 48zM1286 451q0 -179 -160 -179q-94 0 -127 66q-18 40 -21 113.5t-9 95.5q-39 133 -207 133h-33v-248q0 -54 26.5 -75.5t98.5 -24.5v-41h-385v41q72 2 99.5 23.5t27.5 76.5v516q0 55 -26 76t-101 25v43h393
q147 0 232.5 -54.5t85.5 -138.5t-69.5 -132t-217.5 -75q93 -29 150.5 -86t73.5 -188q13 -88 59 -88q67 0 67 133h43v-12zM795 717q112 0 173.5 45.5t61.5 123.5t-53 122.5t-151 44.5t-97 -72v-262q32 -2 66 -2z" />
    <glyph glyph-name="macron" unicode="&#xaf;" 
d="M256 1323h512v-96h-512v96z" />
    <glyph glyph-name="degree" unicode="&#xb0;" horiz-adv-x="674" 
d="M338 1454q118 0 200.5 -83t82.5 -199t-83.5 -199.5t-201.5 -83.5t-199.5 82.5t-81.5 200.5t82.5 200t200.5 82zM338 1372q-84 0 -143.5 -58.5t-59.5 -142.5t59.5 -143t143.5 -59t142.5 59t58.5 143t-58.5 142.5t-142.5 58.5z" />
    <glyph glyph-name="plusminus" unicode="&#xb1;" horiz-adv-x="1706" 
d="M795 1180h118v-344h539v-117h-539v-344h-118v344h-541v117h541v344zM254 158h1198v-117h-1198v117z" />
    <glyph glyph-name="twosuperior" unicode="&#xb2;" horiz-adv-x="702" 
d="M47 555v18q50 71 203 207q152 136 199 207t47 147t-55 127.5t-139 51.5t-143 -48.5t-77 -131.5h-31q15 125 94 197.5t193 72.5t188 -67.5t74 -153.5t-44 -154t-148 -156q-15 -11 -45 -36q-136 -108 -203 -189h260q82 0 115.5 22.5t64.5 98.5l27 -6q-43 -103 -64 -207
h-516z" />
    <glyph glyph-name="threesuperior" unicode="&#xb3;" horiz-adv-x="702" 
d="M477 1198q0 60 -50 100.5t-126 40.5q-106 0 -192 -104l-25 10q49 83 112.5 120.5t157.5 37.5t161 -50.5t67 -120.5t-50.5 -117.5t-181.5 -96.5h21q116 0 191 -59t75 -163t-87.5 -179.5t-209.5 -75.5t-199.5 50t-77.5 116q0 28 16.5 44.5t44.5 16.5t44 -13.5t16 -35.5
l-4 -51q0 -43 42 -71t121 -28t129 47.5t50 142.5t-61.5 156.5t-163.5 61.5q-48 0 -88 -8l-4 26q272 69 272 203z" />
    <glyph glyph-name="acute" unicode="&#xb4;" 
d="M697 1477q27 0 56.5 -27.5t-44.5 -93.5l-273 -236h-49l242 307q41 50 68 50z" />
    <glyph glyph-name="mu" unicode="&#xb5;" horiz-adv-x="1120" 
d="M0 -418q-37 0 -58.5 24t-21.5 64t64.5 273.5t105.5 427.5l109 514h147l-104 -492q-13 -65 -13 -130t42 -111t129 -46t152.5 68.5t94.5 200.5l111 510h149l-114 -531q-21 -95 -21 -140t26 -75t64 -30t68 18t51 51t41 93.5t39 60.5q26 0 26 -31q0 -63 -39 -150
q-75 -169 -231 -169q-68 0 -108.5 51t-40.5 139v23q-91 -218 -283 -218t-221 216q-27 -136 -52 -339q-34 -272 -112 -272z" />
    <glyph glyph-name="paragraph" unicode="&#xb6;" 
d="M948 1479v-78h-125v-1401h-94v1401h-182v-1401h-96v782q-173 8 -274 102.5t-101 248.5t107.5 250t285.5 96h479z" />
    <glyph glyph-name="glyph121" unicode="&#xb7;" horiz-adv-x="530" 
d="M156 694q0 44 32 76.5t77 32.5t77.5 -32.5t32.5 -76.5t-33.5 -76t-77.5 -32t-76 32t-32 76z" />
    <glyph glyph-name="cedilla" unicode="&#xb8;" 
d="M540.5 -314q83.5 -46 103.5 -46t20 12v168h-220l29 33v147h66v-113h223v-182h39v-29q-77 -21 -133 -74t-58 -53q-31 0 -117 46.5t-102 46.5t-42 -28t-32 -34l-32 21q110 131 149 131q23 0 106.5 -46z" />
    <glyph glyph-name="onesuperior" unicode="&#xb9;" horiz-adv-x="700" 
d="M332 1251q0 70 -8 70q-15 0 -43 -31l-131 -112l-23 20l205 178q27 27 59 27h41v-762q0 -32 16.5 -44.5t61.5 -12.5h53v-29h-362v29h51q47 0 63.5 12.5t16.5 48.5v606z" />
    <glyph glyph-name="ordmasculine" unicode="&#xba;" horiz-adv-x="608" 
d="M102 1231q0 85 -5 123l331 127l16 -25l-22 -12q15 -32 83 -129.5t68 -175.5q0 -135 -229 -367l-31 -31h-30q-11 48 -215 97v28q19 6 26.5 31t7.5 88v246zM360 846q29 0 74 69t45 151t-103 226q-50 69 -73 109l-96 -37v-451q19 -9 79 -38t74 -29z" />
    <glyph glyph-name="guillemotright" unicode="&#xbb;" horiz-adv-x="639" 
d="M72 891l274 -404v-55l-274 -346v113l137 262l-137 305v125zM317 891l275 -404v-55l-275 -346v113l138 262l-138 305v125z" />
    <glyph glyph-name="onequarter" unicode="&#xbc;" horiz-adv-x="1681" 
d="M315 1262q0 63 -9 63t-40 -29l-125 -106l-20 20l194 168q3 3 15 13t45 10h37v-711q0 -30 16.5 -41.5t58.5 -11.5h52v-27h-349v27h52q43 0 58 12t15 45v568zM328 -25l923 1438h101l-922 -1438h-102zM1470 225v-145q0 -30 16.5 -41.5t59.5 -11.5h49v-27h-346v27h49
q45 0 60.5 11.5t15.5 45.5v141h-321v68l344 495l73 3v-498h150v-68h-150zM1092 293h284l4 416z" />
    <glyph glyph-name="onehalf" unicode="&#xbd;" horiz-adv-x="1681" 
d="M315 1262q0 63 -9 63t-40 -29l-125 -106l-20 20l194 168q3 3 15 13t45 10h37v-711q0 -30 16.5 -41.5t58.5 -11.5h52v-27h-349v27h52q43 0 58 12t15 45v568zM328 -25l923 1438h101l-922 -1438h-102zM1057 0v16q44 65 191 192q146 128 191.5 196t45.5 138t-52.5 117.5
t-132.5 47.5t-136 -45t-74 -123h-29q14 115 88.5 183.5t184.5 68.5t180.5 -62.5t70.5 -142.5t-42.5 -144.5t-141.5 -144.5q-160 -125 -238 -211h250q78 0 109.5 20.5t62.5 92.5l25 -4q-37 -81 -60 -195h-493z" />
    <glyph glyph-name="threequarters" unicode="&#xbe;" horiz-adv-x="1681" 
d="M455 1210q0 56 -48 93.5t-120 37.5q-103 0 -185 -96l-22 10q86 146 254 146q94 0 158.5 -47t64.5 -112t-48.5 -109t-174.5 -91h20q110 0 182 -56t72 -152t-82.5 -167t-199.5 -71t-191 47t-74 109q0 26 15.5 41.5t40.5 15.5q59 0 59 -47l-4 -45q0 -41 40 -66.5t116 -25.5
t123 44.5t47 132.5t-59 145t-156 57q-47 0 -84 -7l-4 25q260 61 260 188zM328 -25l923 1438h101l-922 -1438h-102zM1470 225v-145q0 -30 16.5 -41.5t59.5 -11.5h49v-27h-346v27h49q45 0 60.5 11.5t15.5 45.5v141h-321v68l344 495l73 3v-498h150v-68h-150zM1092 293h284
l4 416z" />
    <glyph glyph-name="questiondown" unicode="&#xbf;" horiz-adv-x="692" 
d="M401 1151q-19 92 -118 119v47q99 27 118 119h48q19 -92 118 -119v-47q-99 -27 -118 -119h-48zM467 838q0 -152 -137 -311l-8 -10q-164 -187 -164 -283t58 -158t143 -62t122 95q6 13 14 40q31 95 99 95q30 0 51 -23t21 -57q0 -86 -76 -149.5t-184 -63.5q-140 0 -237 105
t-97 267t143 316q17 19 50 52q138 145 138 224q0 39 -10 86h43q31 -84 31 -163z" />
    <glyph glyph-name="Agrave" unicode="&#xc0;" horiz-adv-x="1360" 
d="M446 14q0 26 -170 156q-62 48 -86 61t-43 13t-71 -14l-15 44q341 98 491 247t150 386q0 183 -84 291t-214 107q-130 0 -210 -91q-79 -91 -79 -229t81 -226t232 -114l-14 -43q-169 26 -263 136t-94 296q-1 186 111 319q112 132 284 132t284 -139q114 -140 114 -352
t-120 -372t-368 -286l193 -164q46 -41 88 -41q43 0 143 55t224 148v844q0 98 -21 186l37 12l35 -108q15 90 87 154t146 65l17 2v-39q-140 -64 -140 -295v-813q0 -87 12 -109t46 -22t90 47l29 -29q-141 -154 -234 -286l-37 12q9 27 9 36t-38 72t-38 166v27t1 18
q-120 -88 -312 -186t-246 -139l-35 26q28 29 28 39zM646 1935q16 15 43 15t68 -50l242 -307h-49l-273 236q-74 66 -31 106z" />
    <glyph glyph-name="Aacute" unicode="&#xc1;" horiz-adv-x="1360" 
d="M446 14q0 26 -170 156q-62 48 -86 61t-43 13t-71 -14l-15 44q341 98 491 247t150 386q0 183 -84 291t-214 107q-130 0 -210 -91q-79 -91 -79 -229t81 -226t232 -114l-14 -43q-169 26 -263 136t-94 296q-1 186 111 319q112 132 284 132t284 -139q114 -140 114 -352
t-120 -372t-368 -286l193 -164q46 -41 88 -41q43 0 143 55t224 148v844q0 98 -21 186l37 12l35 -108q15 90 87 154t146 65l17 2v-39q-140 -64 -140 -295v-813q0 -87 12 -109t46 -22t90 47l29 -29q-141 -154 -234 -286l-37 12q9 27 9 36t-38 72t-38 166v27t1 18
q-120 -88 -312 -186t-246 -139l-35 26q28 29 28 39zM1059 1950q27 0 43 -15q43 -40 -31 -106l-273 -236h-49l242 307q41 50 68 50z" />
    <glyph glyph-name="Acircumflex" unicode="&#xc2;" horiz-adv-x="1360" 
d="M446 14q0 26 -170 156q-62 48 -86 61t-43 13t-71 -14l-15 44q341 98 491 247t150 386q0 183 -84 291t-214 107q-130 0 -210 -91q-79 -91 -79 -229t81 -226t232 -114l-14 -43q-169 26 -263 136t-94 296q-1 186 111 319q112 132 284 132t284 -139q114 -140 114 -352
t-120 -372t-368 -286l193 -164q46 -41 88 -41q43 0 143 55t224 148v844q0 98 -21 186l37 12l35 -108q15 90 87 154t146 65l17 2v-39q-140 -64 -140 -295v-813q0 -87 12 -109t46 -22t90 47l29 -29q-141 -154 -234 -286l-37 12q9 27 9 36t-38 72t-38 166v27t1 18
q-120 -88 -312 -186t-246 -139l-35 26q28 29 28 39zM827 1943h94l223 -350h-47l-223 232l-223 -232h-47z" />
    <glyph glyph-name="Atilde" unicode="&#xc3;" horiz-adv-x="1360" 
d="M446 14q0 26 -170 156q-62 48 -86 61t-43 13t-71 -14l-15 44q341 98 491 247t150 386q0 183 -84 291t-214 107q-130 0 -210 -91q-79 -91 -79 -229t81 -226t232 -114l-14 -43q-169 26 -263 136t-94 296q-1 186 111 319q112 132 284 132t284 -139q114 -140 114 -352
t-120 -372t-368 -286l193 -164q46 -41 88 -41q43 0 143 55t224 148v844q0 98 -21 186l37 12l35 -108q15 90 87 154t146 65l17 2v-39q-140 -64 -140 -295v-813q0 -87 12 -109t46 -22t90 47l29 -29q-141 -154 -234 -286l-37 12q9 27 9 36t-38 72t-38 166v27t1 18
q-120 -88 -312 -186t-246 -139l-35 26q28 29 28 39zM704 1747q-23 -1 -37 -19t-35 -77h-43q6 17 17 47q52 147 99 147t144 -29l117 -32q54 -15 78 -15q22 0 36 14t36 79h43q-64 -193 -111 -193q-73 0 -142 23l-116 36q-63 19 -86 19z" />
    <glyph glyph-name="Adieresis" unicode="&#xc4;" horiz-adv-x="1360" 
d="M446 14q0 26 -170 156q-62 48 -86 61t-43 13t-71 -14l-15 44q341 98 491 247t150 386q0 183 -84 291t-214 107q-130 0 -210 -91q-79 -91 -79 -229t81 -226t232 -114l-14 -43q-169 26 -263 136t-94 296q-1 186 111 319q112 132 284 132t284 -139q114 -140 114 -352
t-120 -372t-368 -286l193 -164q46 -41 88 -41q43 0 143 55t224 148v844q0 98 -21 186l37 12l35 -108q15 90 87 154t146 65l17 2v-39q-140 -64 -140 -295v-813q0 -87 12 -109t46 -22t90 47l29 -29q-141 -154 -234 -286l-37 12q9 27 9 36t-38 72t-38 166v27t1 18
q-120 -88 -312 -186t-246 -139l-35 26q28 29 28 39zM718 1857q16 -69 90 -90v-34q-75 -23 -90 -93l-37 1q-13 69 -90 92v34q76 21 90 90h37zM1067 1857q14 -69 90 -90v-34q-77 -23 -90 -92l-37 -1q-15 70 -90 93v34q74 21 90 90h37z" />
    <glyph glyph-name="Aring" unicode="&#xc5;" horiz-adv-x="1360" 
d="M446 14q0 26 -170 156q-61 48 -85.5 61t-43.5 13t-71 -14l-15 44q342 99 493 247.5t151 385.5q0 182 -85 290t-216 108t-210 -91t-79 -229t81 -226t232 -114l-14 -43q-169 25 -263 135.5t-94 296.5t111.5 318.5t283.5 132.5t285 -139.5t113 -351.5t-120 -371.5
t-368 -286.5l193 -164q46 -41 88 -41t142.5 55t224.5 148v844q0 98 -21 186l37 12l35 -108q15 90 86.5 154.5t146.5 64.5l17 2v-39q-140 -64 -140 -295v-813q0 -87 12 -109t46 -22t90 47l29 -29q-141 -154 -234 -286l-37 12q9 27 9 36q-1 9 -38.5 72t-37.5 166
q0 18 0.5 27.5t0.5 17.5q-120 -88 -312 -186.5t-246 -138.5l-35 26q28 29 28 39zM856 1935q-63 0 -108.5 -44.5t-45.5 -107.5t44.5 -107t109.5 -44t108.5 43.5t43.5 107.5t-44.5 108t-107.5 44zM856 2017q98 0 166 -68t68 -165t-68 -165.5t-166 -68.5t-165.5 68t-67.5 166
t67.5 165.5t165.5 67.5z" />
    <glyph glyph-name="AE" unicode="&#xc6;" horiz-adv-x="2052" 
d="M1624 139q188 0 352 107l25 -35q-142 -125 -314 -248q-40 -10 -96 -10q-183 0 -327 93t-222 263q-149 -108 -357 -215.5t-251 -140.5l-35 27q27 22 27 34q0 23 -122 127q-122 103 -163 103q-17 0 -67 -15l-15 45q327 98 472 247.5t145 385.5q0 177 -80 287.5t-201 110.5
t-200.5 -91.5t-79.5 -229.5t81 -225.5t232 -113.5l-14 -43q-169 25 -263 135.5t-94 294.5t109.5 318.5t270.5 134.5t269.5 -139.5t108.5 -351.5t-115 -371.5t-352 -286.5l203 -180q25 -23 70 -23q86 0 401 221q-39 112 -56.5 239.5t-17.5 371.5v190q0 115 -22 209l39 12
l36 -114q56 107 140.5 166t168.5 59q164 0 222 -125q104 125 117 125q33 0 112 -24.5t110 -24.5t64 51l35 -16q-29 -57 -65 -133t-45 -76q-35 0 -126 38.5t-143 38.5q-27 0 -69.5 -52.5t-42.5 -80.5q0 -62 172 -299q83 77 109 107t36 55h31q56 -83 141 -115v-36
q-61 -44 -90 -107h-33q-44 64 -123 102l-45 -41q82 -129 82 -169q0 -19 -40 -173t-92 -203.5t-139 -49.5t-140.5 61.5t-53.5 165.5v6l43 2v-6q0 -83 41.5 -132.5t111.5 -49.5t113.5 50t43.5 117t-22.5 125t-60.5 118t-132 207q-93 146 -93 168q0 23 69 107t89 109
q-21 52 -66.5 82.5t-101.5 30.5q-122 0 -179.5 -114.5t-57.5 -354.5q0 -412 134 -622t398 -210z" />
    <glyph glyph-name="Ccedilla" unicode="&#xc7;" horiz-adv-x="1298" 
d="M922 141q168 0 317 88l25 -30q-160 -148 -247 -238q-62 -14 -125 -14t-111 5v-65h223v-182h39v-29q-77 -21 -133 -74t-58 -53q-31 1 -117 47t-102 46t-42 -28t-32 -34l-32 21q110 131 149 131q23 0 107 -46q83 -46 103 -46t20 12v168h-220l29 33v108q-237 43 -401 215
q-220 229 -220 598q0 314 120 514t304 199q84 -1 140 -43t77 -121l20 22q129 140 147 140t108 -45t129 -45t88 84l35 -25l-140 -201q-11 -16 -35 -16q-25 0 -123 45t-141 45q-23 1 -87 -67t-64 -102t56 -169t64 -155t64 -152t55 -164q-1 -34 -85 -146t-138 -194
q115 -37 234 -37zM745 434q0 84 -79 266q-28 64 -89 194t-61 160t134 177q29 32 44 49q-6 72 -54 116t-120 44q-126 0 -202 -154t-76 -407t108 -434t295 -248q59 87 79 139t21 98z" />
    <glyph glyph-name="Egrave" unicode="&#xc8;" horiz-adv-x="1319" 
d="M844 139q219 0 395 107l27 -35q-161 -127 -343 -248q-42 -10 -116 -10q-327 1 -520 229t-193 615q0 317 118 503t318 187q84 -1 146 -41t80 -90l1 1q107 130 126 130q35 -1 121 -25t121 -24t69 51l37 -16q-33 -57 -71 -133t-48 -76q-29 0 -127 36t-158 35q-28 1 -75 -53
t-47 -80q0 -55 177 -302l3 1q137 113 159 162h33q64 -84 154 -115v-37q-64 -41 -96 -106h-37q-44 61 -133 102l-60 -49q80 -125 80 -162q1 -14 -21 -80t-32 -120q-23 -116 -73 -166t-142 -51q-187 0 -252 210l45 15q63 -178 199 -178q73 0 119 45t46 100t-19 107t-72 146
t-139 226t-85 152q0 20 162 215q-18 55 -70 89t-116 34q-137 0 -217 -141t-80 -384q0 -372 158 -574t448 -202zM517 1935q16 15 43 15t68 -50l242 -307h-49l-273 236q-74 66 -31 106z" />
    <glyph glyph-name="Eacute" unicode="&#xc9;" horiz-adv-x="1319" 
d="M844 139q219 0 395 107l27 -35q-161 -127 -343 -248q-42 -10 -116 -10q-327 1 -520 229t-193 615q0 317 118 503t318 187q84 -1 146 -41t80 -90l1 1q107 130 126 130q35 -1 121 -25t121 -24t69 51l37 -16q-33 -57 -71 -133t-48 -76q-29 0 -127 36t-158 35q-28 1 -75 -53
t-47 -80q0 -55 177 -302l3 1q137 113 159 162h33q64 -84 154 -115v-37q-64 -41 -96 -106h-37q-44 61 -133 102l-60 -49q80 -125 80 -162q1 -14 -21 -80t-32 -120q-23 -116 -73 -166t-142 -51q-187 0 -252 210l45 15q63 -178 199 -178q73 0 119 45t46 100t-19 107t-72 146
t-139 226t-85 152q0 20 162 215q-18 55 -70 89t-116 34q-137 0 -217 -141t-80 -384q0 -372 158 -574t448 -202zM930 1950q27 0 43 -15q43 -40 -31 -106l-273 -236h-49l242 307q41 50 68 50z" />
    <glyph glyph-name="Ecircumflex" unicode="&#xca;" horiz-adv-x="1319" 
d="M844 139q219 0 395 107l27 -35q-161 -127 -343 -248q-42 -10 -116 -10q-327 1 -520 229t-193 615q0 317 118 503t318 187q84 -1 146 -41t80 -90l1 1q107 130 126 130q35 -1 121 -25t121 -24t69 51l37 -16q-33 -57 -71 -133t-48 -76q-29 0 -127 36t-158 35q-28 1 -75 -53
t-47 -80q0 -55 177 -302l3 1q137 113 159 162h33q64 -84 154 -115v-37q-64 -41 -96 -106h-37q-44 61 -133 102l-60 -49q80 -125 80 -162q1 -14 -21 -80t-32 -120q-23 -116 -73 -166t-142 -51q-187 0 -252 210l45 15q63 -178 199 -178q73 0 119 45t46 100t-19 107t-72 146
t-139 226t-85 152q0 20 162 215q-18 55 -70 89t-116 34q-137 0 -217 -141t-80 -384q0 -372 158 -574t448 -202zM698 1943h94l223 -350h-47l-223 232l-223 -232h-47z" />
    <glyph glyph-name="Edieresis" unicode="&#xcb;" horiz-adv-x="1319" 
d="M844 139q219 0 395 107l27 -35q-161 -127 -343 -248q-42 -10 -116 -10q-327 1 -520 229t-193 615q0 317 118 503t318 187q84 -1 146 -41t80 -90l1 1q107 130 126 130q35 -1 121 -25t121 -24t69 51l37 -16q-33 -57 -71 -133t-48 -76q-29 0 -127 36t-158 35q-28 1 -75 -53
t-47 -80q0 -55 177 -302l3 1q137 113 159 162h33q64 -84 154 -115v-37q-64 -41 -96 -106h-37q-44 61 -133 102l-60 -49q80 -125 80 -162q1 -14 -21 -80t-32 -120q-23 -116 -73 -166t-142 -51q-187 0 -252 210l45 15q63 -178 199 -178q73 0 119 45t46 100t-19 107t-72 146
t-139 226t-85 152q0 20 162 215q-18 55 -70 89t-116 34q-137 0 -217 -141t-80 -384q0 -372 158 -574t448 -202zM589 1857q16 -69 90 -90v-34q-75 -23 -90 -93l-37 1q-13 69 -90 92v34q76 21 90 90h37zM938 1857q14 -69 90 -90v-34q-77 -23 -90 -92l-37 -1q-15 70 -90 93v34
q74 21 90 90h37z" />
    <glyph glyph-name="Igrave" unicode="&#xcc;" horiz-adv-x="1194" 
d="M244 256l154 -18q22 0 51 18l32 -18v-19q1 -72 67 -126t159 -54t160 62t67 137t-76 203l-27 45q-151 263 -151 345q0 32 28 87q28 54 76 108q47 54 101 86t96 31q86 0 86 -72q0 -59 -49 -59q-17 0 -31 14q4 11 4 18q1 31 -47 31q-48 -1 -82 -41t-33 -102q0 -62 85 -218
q14 -22 24 -42t36 -67q105 -193 105 -251q1 -58 -37 -128t-102 -132t-146 -88t-206 -26h-35q-86 0 -117 -33l-39 18q-13 97 -69 159t-121 62q-84 0 -125 -102l-45 12q57 160 207 160zM57 1124q0 112 87 207q87 94 271 128q56 10 56 34h45v-2q0 -20 96 -73q96 -54 177 -102
q82 -48 119 -48q38 0 72 22t34 43q0 20 -23 31q-1 4 -3 10t-1 14q1 10 15 22t36 13t38 -17q14 -18 14 -44q0 -89 -214 -180q-78 -33 -110 -33q-33 0 -121 56q-87 56 -129 80q-90 52 -185 52q-95 -1 -161 -63t-66 -153t68 -159t180 -83l-12 -48q-130 23 -206 102t-77 191z
M419 1935q16 15 43 15t68 -50l242 -307h-49l-273 236q-74 66 -31 106z" />
    <glyph glyph-name="Iacute" unicode="&#xcd;" horiz-adv-x="1194" 
d="M244 256l154 -18q22 0 51 18l32 -18v-19q1 -72 67 -126t159 -54t160 62t67 137t-76 203l-27 45q-151 263 -151 345q0 32 28 87q28 54 76 108q47 54 101 86t96 31q86 0 86 -72q0 -59 -49 -59q-17 0 -31 14q4 11 4 18q1 31 -47 31q-48 -1 -82 -41t-33 -102q0 -62 85 -218
q14 -22 24 -42t36 -67q105 -193 105 -251q1 -58 -37 -128t-102 -132t-146 -88t-206 -26h-35q-86 0 -117 -33l-39 18q-13 97 -69 159t-121 62q-84 0 -125 -102l-45 12q57 160 207 160zM57 1124q0 112 87 207q87 94 271 128q56 10 56 34h45v-2q0 -20 96 -73q96 -54 177 -102
q82 -48 119 -48q38 0 72 22t34 43q0 20 -23 31q-1 4 -3 10t-1 14q1 10 15 22t36 13t38 -17q14 -18 14 -44q0 -89 -214 -180q-78 -33 -110 -33q-33 0 -121 56q-87 56 -129 80q-90 52 -185 52q-95 -1 -161 -63t-66 -153t68 -159t180 -83l-12 -48q-130 23 -206 102t-77 191z
M832 1950q27 0 43 -15q43 -40 -31 -106l-273 -236h-49l242 307q41 50 68 50z" />
    <glyph glyph-name="Icircumflex" unicode="&#xce;" horiz-adv-x="1194" 
d="M244 256l154 -18q22 0 51 18l32 -18v-19q1 -72 67 -126t159 -54t160 62t67 137t-76 203l-27 45q-151 263 -151 345q0 32 28 87q28 54 76 108q47 54 101 86t96 31q86 0 86 -72q0 -59 -49 -59q-17 0 -31 14q4 11 4 18q1 31 -47 31q-48 -1 -82 -41t-33 -102q0 -62 85 -218
q14 -22 24 -42t36 -67q105 -193 105 -251q1 -58 -37 -128t-102 -132t-146 -88t-206 -26h-35q-86 0 -117 -33l-39 18q-13 97 -69 159t-121 62q-84 0 -125 -102l-45 12q57 160 207 160zM57 1124q0 112 87 207q87 94 271 128q56 10 56 34h45v-2q0 -20 96 -73q96 -54 177 -102
q82 -48 119 -48q38 0 72 22t34 43q0 20 -23 31q-1 4 -3 10t-1 14q1 10 15 22t36 13t38 -17q14 -18 14 -44q0 -89 -214 -180q-78 -33 -110 -33q-33 0 -121 56q-87 56 -129 80q-90 52 -185 52q-95 -1 -161 -63t-66 -153t68 -159t180 -83l-12 -48q-130 23 -206 102t-77 191z
M600 1943h94l223 -350h-47l-223 232l-223 -232h-47z" />
    <glyph glyph-name="Idieresis" unicode="&#xcf;" horiz-adv-x="1194" 
d="M244 256l154 -18q22 0 51 18l32 -18v-19q1 -72 67 -126t159 -54t160 62t67 137t-76 203l-27 45q-151 263 -151 345q0 32 28 87q28 54 76 108q47 54 101 86t96 31q86 0 86 -72q0 -59 -49 -59q-17 0 -31 14q4 11 4 18q1 31 -47 31q-48 -1 -82 -41t-33 -102q0 -62 85 -218
q14 -22 24 -42t36 -67q105 -193 105 -251q1 -58 -37 -128t-102 -132t-146 -88t-206 -26h-35q-86 0 -117 -33l-39 18q-13 97 -69 159t-121 62q-84 0 -125 -102l-45 12q57 160 207 160zM57 1124q0 112 87 207q87 94 271 128q56 10 56 34h45v-2q0 -20 96 -73q96 -54 177 -102
q82 -48 119 -48q38 0 72 22t34 43q0 20 -23 31q-1 4 -3 10t-1 14q1 10 15 22t36 13t38 -17q14 -18 14 -44q0 -89 -214 -180q-78 -33 -110 -33q-33 0 -121 56q-87 56 -129 80q-90 52 -185 52q-95 -1 -161 -63t-66 -153t68 -159t180 -83l-12 -48q-130 23 -206 102t-77 191z
M491 1857q16 -69 90 -90v-34q-75 -23 -90 -93l-37 1q-13 69 -90 92v34q76 21 90 90h37zM840 1857q14 -69 90 -90v-34q-77 -23 -90 -92l-37 -1q-15 70 -90 93v34q74 21 90 90h37z" />
    <glyph glyph-name="Eth" unicode="&#xd0;" horiz-adv-x="1655" 
d="M864 524q0 -66 -229 -183q-48 -24 -74 -38q67 -39 179 -117q218 -151 339 -151q155 0 268 113.5t113 273.5q0 205 -121.5 403.5t-343.5 350.5q-166 -11 -274.5 -62.5t-108.5 -109.5q0 -42 86.5 -168t132.5 -209h308v-58h-283q8 -32 8 -45zM436 338q35 0 65 -6
q189 76 189 147q0 32 -31 90h-311v58h279q-31 51 -107 157t-76 160q0 94 136 171t354 99q-246 127 -465 127q-167 0 -270 -97.5t-103 -252.5q0 -93 48.5 -160.5t138.5 -101.5l-17 -43q-217 82 -217 318q0 209 151.5 350t379.5 141q333 0 596 -215q175 -142 274.5 -337
t99.5 -367t-51 -287.5t-143 -197.5t-214 -133.5t-188 -51.5t-125 24t-115 61t-113 76q-211 146 -283 146t-164 -72l-25 29q168 168 307 168z" />
    <glyph glyph-name="Ntilde" unicode="&#xd1;" horiz-adv-x="1497" 
d="M68 41q0 96 -41 143l28 39q34 -16 89 -16t92 35l34 -25q-22 -46 -22 -99q0 -54 40 -88t111 -34q143 0 219 169t76 488t-93 493t-263 175q-110 0 -182 -78q-72 -79 -72 -203t70 -216t192 -124l-20 -43q-139 39 -216 145t-77 268t109 287q109 124 259 124q274 0 373 -281
q34 146 114 214t216 69q319 0 319 -385q0 -43 -2 -61l25 -1v-47q-138 -21 -190 -73t-52 -193v-490q0 -28 11 -46t53 -48t54 -30q12 1 54 31q44 30 54 36l24 -31q-159 -151 -207 -194h-41q-4 26 -84 76t-80 141v504q0 116 45 174t179 133v45q0 186 -54 262t-164 76t-168 -54
t-87 -165q53 -196 53 -420q0 -340 -130 -557t-327 -217q-51 1 -127 17t-106 16q-31 0 -64 -21l-34 24q10 26 10 56zM752 1747q-23 -1 -37 -19t-35 -77h-43q6 17 17 47q52 147 99 147t144 -29l117 -32q54 -15 78 -15q22 0 36 14t36 79h43q-64 -193 -111 -193q-73 0 -142 23
l-116 36q-63 19 -86 19z" />
    <glyph glyph-name="Ograve" unicode="&#xd2;" horiz-adv-x="1583" 
d="M489 1360q-239 -142 -239 -251t96 -230q23 -30 65 -81q124 -148 124 -218t-80 -122t-203 -52q-62 0 -100 14v47q46 -14 98 -14q53 1 86 23t33 62t-70 124q-70 85 -109 135q-88 113 -88 205t60 166t284 223q105 68 105 131v4l39 -6q18 -57 66 -84t203 -44t243 -46t158 -80
q108 -80 168 -210t61 -290q0 -160 -69 -307q-69 -149 -193 -259q-125 -110 -273 -178t-235 -69q-87 0 -293 113q-29 14 -123 66t-124 52t-116 -63l-30 35q227 174 268 174q24 0 93 -37q68 -37 132 -71q248 -136 355 -136q159 0 323 161q82 81 129 199t47 261q0 228 -141 360
t-474 163q-223 23 -276 130zM614 1935q16 15 43 15t68 -50l242 -307h-49l-273 236q-74 66 -31 106z" />
    <glyph glyph-name="Oacute" unicode="&#xd3;" horiz-adv-x="1583" 
d="M489 1360q-239 -142 -239 -251t96 -230q23 -30 65 -81q124 -148 124 -218t-80 -122t-203 -52q-62 0 -100 14v47q46 -14 98 -14q53 1 86 23t33 62t-70 124q-70 85 -109 135q-88 113 -88 205t60 166t284 223q105 68 105 131v4l39 -6q18 -57 66 -84t203 -44t243 -46t158 -80
q108 -80 168 -210t61 -290q0 -160 -69 -307q-69 -149 -193 -259q-125 -110 -273 -178t-235 -69q-87 0 -293 113q-29 14 -123 66t-124 52t-116 -63l-30 35q227 174 268 174q24 0 93 -37q68 -37 132 -71q248 -136 355 -136q159 0 323 161q82 81 129 199t47 261q0 228 -141 360
t-474 163q-223 23 -276 130zM1027 1950q27 0 43 -15q43 -40 -31 -106l-273 -236h-49l242 307q41 50 68 50z" />
    <glyph glyph-name="Ocircumflex" unicode="&#xd4;" horiz-adv-x="1583" 
d="M489 1360q-239 -142 -239 -251t96 -230q23 -30 65 -81q124 -148 124 -218t-80 -122t-203 -52q-62 0 -100 14v47q46 -14 98 -14q53 1 86 23t33 62t-70 124q-70 85 -109 135q-88 113 -88 205t60 166t284 223q105 68 105 131v4l39 -6q18 -57 66 -84t203 -44t243 -46t158 -80
q108 -80 168 -210t61 -290q0 -160 -69 -307q-69 -149 -193 -259q-125 -110 -273 -178t-235 -69q-87 0 -293 113q-29 14 -123 66t-124 52t-116 -63l-30 35q227 174 268 174q24 0 93 -37q68 -37 132 -71q248 -136 355 -136q159 0 323 161q82 81 129 199t47 261q0 228 -141 360
t-474 163q-223 23 -276 130zM795 1943h94l223 -350h-47l-223 232l-223 -232h-47z" />
    <glyph glyph-name="Otilde" unicode="&#xd5;" horiz-adv-x="1583" 
d="M489 1360q-239 -142 -239 -251t96 -230q23 -30 65 -81q124 -148 124 -218t-80 -122t-203 -52q-62 0 -100 14v47q46 -14 98 -14q53 1 86 23t33 62t-70 124q-70 85 -109 135q-88 113 -88 205t60 166t284 223q105 68 105 131v4l39 -6q18 -57 66 -84t203 -44t243 -46t158 -80
q108 -80 168 -210t61 -290q0 -160 -69 -307q-69 -149 -193 -259q-125 -110 -273 -178t-235 -69q-87 0 -293 113q-29 14 -123 66t-124 52t-116 -63l-30 35q227 174 268 174q24 0 93 -37q68 -37 132 -71q248 -136 355 -136q159 0 323 161q82 81 129 199t47 261q0 228 -141 360
t-474 163q-223 23 -276 130zM672 1747q-23 -1 -37 -19t-35 -77h-43q6 17 17 47q52 147 99 147t144 -29l117 -32q54 -15 78 -15q22 0 36 14t36 79h43q-64 -193 -111 -193q-73 0 -142 23l-116 36q-63 19 -86 19z" />
    <glyph glyph-name="Odieresis" unicode="&#xd6;" horiz-adv-x="1583" 
d="M489 1360q-239 -142 -239 -251t96 -230q23 -30 65 -81q124 -148 124 -218t-80 -122t-203 -52q-62 0 -100 14v47q46 -14 98 -14q53 1 86 23t33 62t-70 124q-70 85 -109 135q-88 113 -88 205t60 166t284 223q105 68 105 131v4l39 -6q18 -57 66 -84t203 -44t243 -46t158 -80
q108 -80 168 -210t61 -290q0 -160 -69 -307q-69 -149 -193 -259q-125 -110 -273 -178t-235 -69q-87 0 -293 113q-29 14 -123 66t-124 52t-116 -63l-30 35q227 174 268 174q24 0 93 -37q68 -37 132 -71q248 -136 355 -136q159 0 323 161q82 81 129 199t47 261q0 228 -141 360
t-474 163q-223 23 -276 130zM686 1857q16 -69 90 -90v-34q-75 -23 -90 -93l-37 1q-13 69 -90 92v34q76 21 90 90h37zM1035 1857q14 -69 90 -90v-34q-77 -23 -90 -92l-37 -1q-15 70 -90 93v34q74 21 90 90h37z" />
    <glyph glyph-name="multiply" unicode="&#xd7;" horiz-adv-x="1706" 
d="M381 1169l477 -477l475 477l82 -82l-475 -477l475 -475l-82 -82l-475 475l-477 -475l-80 82l475 475l-475 477z" />
    <glyph glyph-name="Oslash" unicode="&#xd8;" horiz-adv-x="1583" 
d="M489 1360q-239 -142 -239 -251t96 -230q23 -30 65 -81q124 -148 124 -218t-80 -122t-203 -52q-62 0 -100 14v47q46 -14 98 -14q53 0 86 22.5t33 62.5t-70 124q-70 85 -109 135q-88 113 -88 205t60 166.5t284 222.5q105 68 105 131v4l39 -6q28 -95 257 -127
q169 -24 273 -54l107 197h65l-121 -219q149 -70 233.5 -214.5t84.5 -320.5q0 -348 -270 -589q-116 -104 -264 -172t-233 -68t-249 88l-104 -193h-66l119 220q-14 8 -112 62t-130 54t-117 -63l-30 35q227 174 265 174t214 -103l522 959q-96 24 -255 42q-242 28 -290 132z
M1380 718q0 150 -75.5 269.5t-214.5 177.5l-531 -966q202 -113 330 -113q69 0 152 41t164 122t128 200t47 269z" />
    <glyph glyph-name="Ugrave" unicode="&#xd9;" horiz-adv-x="1214" 
d="M190 322v882q0 78 -61 78q-34 0 -70 -16l-22 34q70 56 115 106t51 79l39 -1q4 -20 56 -52t52 -82v-1094q0 -18 15 -33l147 -114q19 -17 44 -17t306 184v902q0 60 -22 88t-71 34l-1 48q118 14 156 137h39q17 -58 58 -94t99 -43v-48q-52 -7 -74 -35t-22 -87v-928
q0 -54 13 -77t47 -23t87 49l29 -33q-110 -83 -209 -213h-43l2 24q0 8 -26 32t-44 49t-18 79v86q-142 -101 -290 -182t-148 -88h-43v6q0 28 -59 65q-140 93 -187 93v45q31 12 43 47t12 113zM354 1935q16 15 43 15t68 -50l242 -307h-49l-273 236q-74 66 -31 106z" />
    <glyph glyph-name="Uacute" unicode="&#xda;" horiz-adv-x="1214" 
d="M190 322v882q0 78 -61 78q-34 0 -70 -16l-22 34q70 56 115 106t51 79l39 -1q4 -20 56 -52t52 -82v-1094q0 -18 15 -33l147 -114q19 -17 44 -17t306 184v902q0 60 -22 88t-71 34l-1 48q118 14 156 137h39q17 -58 58 -94t99 -43v-48q-52 -7 -74 -35t-22 -87v-928
q0 -54 13 -77t47 -23t87 49l29 -33q-110 -83 -209 -213h-43l2 24q0 8 -26 32t-44 49t-18 79v86q-142 -101 -290 -182t-148 -88h-43v6q0 28 -59 65q-140 93 -187 93v45q31 12 43 47t12 113zM699 1900q41 50 68 50t43 -15q43 -40 -31 -106l-273 -236h-49z" />
    <glyph glyph-name="Ucircumflex" unicode="&#xdb;" horiz-adv-x="1214" 
d="M190 322v882q0 78 -61 78q-34 0 -70 -16l-22 34q70 56 115 106t51 79l39 -1q4 -20 56 -52t52 -82v-1094q0 -18 15 -33l147 -114q19 -17 44 -17t306 184v902q0 60 -22 88t-71 34l-1 48q118 14 156 137h39q17 -58 58 -94t99 -43v-48q-52 -7 -74 -35t-22 -87v-928
q0 -54 13 -77t47 -23t87 49l29 -33q-110 -83 -209 -213h-43l2 24q0 8 -26 32t-44 49t-18 79v86q-142 -101 -290 -182t-148 -88h-43v6q0 28 -59 65q-140 93 -187 93v45q31 12 43 47t12 113zM535 1943h94l223 -350h-47l-223 232l-223 -232h-47z" />
    <glyph glyph-name="Udieresis" unicode="&#xdc;" horiz-adv-x="1214" 
d="M190 322v882q0 78 -61 78q-34 0 -70 -16l-22 34q70 56 115 106t51 79l39 -1q4 -20 56 -52t52 -82v-1094q0 -18 15 -33l147 -114q19 -17 44 -17t306 184v902q0 60 -22 88t-71 34l-1 48q118 14 156 137h39q17 -58 58 -94t99 -43v-48q-52 -7 -74 -35t-22 -87v-928
q0 -54 13 -77t47 -23t87 49l29 -33q-110 -83 -209 -213h-43l2 24q0 8 -26 32t-44 49t-18 79v86q-142 -101 -290 -182t-148 -88h-43v6q0 28 -59 65q-140 93 -187 93v45q31 12 43 47t12 113zM426 1857q16 -69 90 -90v-34q-75 -23 -90 -93l-37 1q-13 69 -90 92v34q76 21 90 90
h37zM775 1857q14 -69 90 -90v-34q-77 -23 -90 -92l-37 -1q-15 70 -90 93v34q74 21 90 90h37z" />
    <glyph glyph-name="Yacute" unicode="&#xdd;" horiz-adv-x="1470" 
d="M316 246q-34 0 -74 -8l-9 47q233 49 335 168t102 346t-100 377t-257 151q-104 -1 -177 -85t-73 -211q1 -127 77 -215t206 -105l-6 -45q-146 14 -236 118t-90 272t114 298t267 131q119 -1 217 -85t156 -235q170 203 330 326l26 -25q-12 -22 -12 -48t52 -112t65 -108
q141 -242 141 -507t-118 -519t-322 -428q-171 -147 -332 -147q-104 1 -178 55t-74 127q0 40 26 66t64 26t61 -18t23 -41t-7 -43t-7 -23q0 -26 38 -50t87 -24q238 0 424 301q69 115 111 275t42 330t-50 328t-200 399q-121 -123 -172 -193q21 -126 21 -203q0 -347 -277 -553
q60 -46 146 -124t118 -78q31 0 107 43l29 -41q-167 -99 -303 -199l-37 27q28 34 28 44q0 11 -58 66q-58 56 -113 96q-57 40 -77 48t-54 8zM969 1950q27 0 43 -15q43 -40 -31 -106l-273 -236h-49l242 307q41 50 68 50z" />
    <glyph glyph-name="Thorn" unicode="&#xde;" horiz-adv-x="1360" 
d="M455 70q0 12 1 37.5t0 38.5q-6 2 -56 19t-77 17t-90 -73l-32 20l129 258l36 -10l-1 -12q0 -24 37 -36t53 -18v688q0 338 -215 338q-85 0 -138 -59t-53 -156t57 -168.5t156 -95.5l-8 -47q-115 28 -184.5 116t-69.5 220t91 236t229 104t214 -106.5t76 -309.5v-39
q177 190 424 293l25 -33q-43 -32 -43 -57q0 -26 43 -110t99 -198q108 -223 108 -332t-62 -215.5t-194 -229.5t-142 -150h-34q0 17 -98 49t-123 41q-8 -231 -60 -487h-49q-49 225 -49 467zM913 156q60 0 138.5 111t78.5 215q0 109 -183 459q-87 166 -89 239
q-136 -91 -242 -209v-715l232 -82q48 -18 65 -18z" />
    <glyph glyph-name="germandbls" unicode="&#xdf;" horiz-adv-x="797" 
d="M623 672q0 91 -56.5 149t-113.5 58q-23 -2 -52 -21l-101 -71q-13 -268 -15 -432q164 56 251 141t87 176zM350 -182q111 0 173.5 75.5t62.5 198.5t-50 184.5t-127 61.5t-128 -33q-21 -324 -33 -459q39 -28 102 -28zM137 627v184h-96v47q79 24 113 214q16 88 28 138
q29 113 91.5 172.5t135.5 59.5t132 -12.5t61 -12.5q21 0 31 21l37 -15l-92 -186q-5 2 -16 7q-154 71 -214 71q-117 0 -117 -115q0 -44 34 -161.5t34 -198.5l246 170l33 -9q1 -5 86.5 -72.5t85.5 -150.5t-45 -156.5t-148 -164.5q89 -29 130.5 -96t41.5 -183
q0 -172 -102 -287.5t-252 -115.5q-69 0 -129 22q-12 -91 -19 -194h-43q-47 627 -47 1024z" />
    <glyph glyph-name="agrave" unicode="&#xe0;" horiz-adv-x="848" 
d="M47 442q0 252 329 542l30 26h40l3 -11q106 -78 296 -147v-39q-39 -11 -51 -33t-12 -82v-424q0 -67 20 -104t56 -37q16 0 55 45l31 -24l-166 -201l-31 16l15 23q-74 58 -96 98t-21 105v18q-177 -140 -299 -260l-27 18q11 18 10 23q0 4 -24 33q-158 189 -158 415zM178 543
q0 -149 66 -277t121 -129q16 0 47 25l133 104v510q-107 50 -197 123q-170 -128 -170 -356zM196 1462q16 15 43 15t68 -50l242 -307h-49l-273 236q-74 66 -31 106z" />
    <glyph glyph-name="aacute" unicode="&#xe1;" horiz-adv-x="848" 
d="M47 442q0 252 329 542l30 26h40l3 -11q106 -78 296 -147v-39q-39 -11 -51 -33t-12 -82v-424q0 -67 20 -104t56 -37q16 0 55 45l31 -24l-166 -201l-31 16l15 23q-74 58 -96 98t-21 105v18q-177 -140 -299 -260l-27 18q11 18 10 23q0 4 -24 33q-158 189 -158 415zM178 543
q0 -149 66 -277t121 -129q16 0 47 25l133 104v510q-107 50 -197 123q-170 -128 -170 -356zM609 1477q27 0 43 -15q43 -40 -31 -106l-273 -236h-49l242 307q41 50 68 50z" />
    <glyph glyph-name="acircumflex" unicode="&#xe2;" horiz-adv-x="848" 
d="M47 442q0 252 329 542l30 26h40l3 -11q106 -78 296 -147v-39q-39 -11 -51 -33t-12 -82v-424q0 -67 20 -104t56 -37q16 0 55 45l31 -24l-166 -201l-31 16l15 23q-74 58 -96 98t-21 105v18q-177 -140 -299 -260l-27 18q11 18 10 23q0 4 -24 33q-158 189 -158 415zM178 543
q0 -149 66 -277t121 -129q16 0 47 25l133 104v510q-107 50 -197 123q-170 -128 -170 -356zM377 1470h94l223 -350h-47l-223 232l-223 -232h-47z" />
    <glyph glyph-name="atilde" unicode="&#xe3;" horiz-adv-x="848" 
d="M47 442q0 252 329 542l30 26h40l3 -11q106 -78 296 -147v-39q-39 -11 -51 -33t-12 -82v-424q0 -67 20 -104t56 -37q16 0 55 45l31 -24l-166 -201l-31 16l15 23q-74 58 -96 98t-21 105v18q-177 -140 -299 -260l-27 18q11 18 10 23q0 4 -24 33q-158 189 -158 415zM178 543
q0 -149 66 -277t121 -129q16 0 47 25l133 104v510q-107 50 -197 123q-170 -128 -170 -356zM598 1196q-73 0 -142 23l-116 36q-63 19 -86 19t-37 -18t-35 -78h-43q6 17 17 47q52 147 99 147t144 -29l117 -32q54 -15 78 -15q22 0 36 14t36 79h43q-64 -193 -111 -193z" />
    <glyph glyph-name="adieresis" unicode="&#xe4;" horiz-adv-x="848" 
d="M47 442q0 252 329 542l30 26h40l3 -11q106 -78 296 -147v-39q-39 -11 -51 -33t-12 -82v-424q0 -67 20 -104t56 -37q16 0 55 45l31 -24l-166 -201l-31 16l15 23q-74 58 -96 98t-21 105v18q-177 -140 -299 -260l-27 18q11 18 10 23q0 4 -24 33q-158 189 -158 415zM178 543
q0 -149 66 -277t121 -129q16 0 47 25l133 104v510q-107 50 -197 123q-170 -128 -170 -356zM268 1384q16 -69 90 -90v-34q-75 -23 -90 -93l-37 1q-13 69 -90 92v34q76 21 90 90h37zM617 1384q14 -69 90 -90v-34q-77 -23 -90 -92l-37 -1q-15 70 -90 93v34q74 21 90 90h37z" />
    <glyph glyph-name="aring" unicode="&#xe5;" horiz-adv-x="848" 
d="M47 442q0 252 329 542l30 26h40l3 -11q106 -78 296 -147v-39q-38 -11 -50.5 -33.5t-12.5 -81.5v-424q0 -67 20 -104t56 -37q16 0 55 45l31 -24l-166 -201l-31 16l15 23q-74 58 -95.5 98t-21.5 105v18q-177 -140 -299 -260l-27 18q11 18 10 23q0 4 -24 33
q-158 189 -158 415zM178 543q0 -149 66.5 -277.5t120.5 -128.5q16 0 47 25l133 104v510q-107 50 -197 123q-170 -128 -170 -356zM448 1542q98 0 166 -68t68 -164t-68.5 -165.5t-165.5 -69.5t-165 68.5t-68 166.5t67.5 165t165.5 67zM449 1460q-64 0 -108 -43t-44 -107
t43.5 -108.5t107.5 -44.5t108 44.5t44 107.5t-43 107t-104 44h-4z" />
    <glyph glyph-name="ae" unicode="&#xe6;" horiz-adv-x="1147" 
d="M682 741v-352l250 203q10 8 10 19q0 12 -8 28l-146 254q-73 -53 -89.5 -80t-16.5 -72zM178 543q0 -149 66.5 -277.5t120.5 -128.5q16 0 47 25l133 104v510q-107 50 -197 123q-170 -128 -170 -356zM47 442q0 252 329 542l30 26h40l3 -11q94 -67 241 -127l164 138h45
l174 -305q10 -16 10 -30t-10 -24l-387 -313q10 -85 63 -140t127 -55t177 99l24 -25l-276 -264l-29 16l8 17q-205 87 -227 235q-162 -129 -307 -268l-27 18q11 18 10 23q0 4 -24 33q-158 189 -158 415z" />
    <glyph glyph-name="ccedilla" unicode="&#xe7;" horiz-adv-x="645" 
d="M351 -113h223v-182h39v-29q-77 -21 -133 -74t-58 -53q-31 1 -117 47t-102 46t-42 -28t-32 -34l-32 21q110 131 149 131q23 0 107 -46q83 -46 103 -46t20 12v168h-220l29 33v147h15q-102 64 -142 128q-39 65 -39 189v349q0 64 10 88t39 51l194 180q25 25 46 25t70 -46
q50 -46 64 -46t42 14l26 -23l-102 -96q-20 -18 -31 -18q-12 0 -49 26l-98 74l-29 -25q-25 -22 -35 -46t-10 -72v-371q0 -103 18 -139t64 -67q44 -32 78 -32t151 105l31 -25q-127 -124 -247 -243v-93z" />
    <glyph glyph-name="egrave" unicode="&#xe8;" horiz-adv-x="721" 
d="M450 143q74 0 177 99l24 -25l-278 -264l-27 16l6 17q-125 54 -179 127t-54 188v299l-2 94q0 34 8 50t35 38l268 228h45l174 -305q10 -16 10 -30t-10 -24l-387 -313q10 -85 63 -140t127 -55zM256 741v-352l250 203q10 8 10 17q0 10 -10 30l-146 254q-72 -53 -88 -79
t-16 -73zM169 1462q16 15 43 15t68 -50l242 -307h-49l-273 236q-74 66 -31 106z" />
    <glyph glyph-name="eacute" unicode="&#xe9;" horiz-adv-x="721" 
d="M450 143q74 0 177 99l24 -25l-278 -264l-27 16l6 17q-125 54 -179 127t-54 188v299l-2 94q0 34 8 50t35 38l268 228h45l174 -305q10 -16 10 -30t-10 -24l-387 -313q10 -85 63 -140t127 -55zM256 741v-352l250 203q10 8 10 17q0 10 -10 30l-146 254q-72 -53 -88 -79
t-16 -73zM582 1477q27 0 43 -15q43 -40 -31 -106l-273 -236h-49l242 307q41 50 68 50z" />
    <glyph glyph-name="ecircumflex" unicode="&#xea;" horiz-adv-x="721" 
d="M450 143q74 0 177 99l24 -25l-278 -264l-27 16l6 17q-125 54 -179 127t-54 188v299l-2 94q0 34 8 50t35 38l268 228h45l174 -305q10 -16 10 -30t-10 -24l-387 -313q10 -85 63 -140t127 -55zM256 741v-352l250 203q10 8 10 17q0 10 -10 30l-146 254q-72 -53 -88 -79
t-16 -73zM350 1470h94l223 -350h-47l-223 232l-223 -232h-47z" />
    <glyph glyph-name="edieresis" unicode="&#xeb;" horiz-adv-x="721" 
d="M450 143q74 0 177 99l24 -25l-278 -264l-27 16l6 17q-125 54 -179 127t-54 188v299l-2 94q0 34 8 50t35 38l268 228h45l174 -305q10 -16 10 -30t-10 -24l-387 -313q10 -85 63 -140t127 -55zM256 741v-352l250 203q10 8 10 17q0 10 -10 30l-146 254q-72 -53 -88 -79
t-16 -73zM241 1384q16 -69 90 -90v-34q-75 -23 -90 -93l-37 1q-13 69 -90 92v34q76 21 90 90h37zM590 1384q14 -69 90 -90v-34q-77 -23 -90 -92l-37 -1q-15 70 -90 93v34q74 21 90 90h37z" />
    <glyph glyph-name="igrave" unicode="&#xec;" horiz-adv-x="469" 
d="M166 711q0 51 -7 69t-28 19q-21 0 -61 -39l-27 26q102 100 197 224l28 -19q-16 -30 -16 -46q0 -17 42 -47t47 -30t21 -6v-45q-34 -7 -46 -28t-13 -80v-490q1 -33 15 -55t32 -23q18 0 66 49l30 -30q-104 -104 -178 -207l-32 16l8 19q-50 38 -66 64t-16 67l4 125v467z
M12 1462q16 15 43 15t68 -50l242 -307h-49l-273 236q-74 66 -31 106z" />
    <glyph glyph-name="iacute" unicode="&#xed;" horiz-adv-x="469" 
d="M166 711q0 51 -7 69t-28 19q-21 0 -61 -39l-27 26q102 100 197 224l28 -19q-16 -30 -16 -46q0 -17 42 -47t47 -30t21 -6v-45q-34 -7 -46 -28t-13 -80v-490q1 -33 15 -55t32 -23q18 0 66 49l30 -30q-104 -104 -178 -207l-32 16l8 19q-50 38 -66 64t-16 67l4 125v467z
M425 1477q27 0 43 -15q43 -40 -31 -106l-273 -236h-49l242 307q41 50 68 50z" />
    <glyph glyph-name="icircumflex" unicode="&#xee;" horiz-adv-x="469" 
d="M166 711q0 51 -7 69t-28 19q-21 0 -61 -39l-27 26q102 100 197 224l28 -19q-16 -30 -16 -46q0 -17 42 -47t47 -30t21 -6v-45q-34 -7 -46 -28t-13 -80v-490q1 -33 15 -55t32 -23q18 0 66 49l30 -30q-104 -104 -178 -207l-32 16l8 19q-50 38 -66 64t-16 67l4 125v467z
M193 1470h94l223 -350h-47l-223 232l-223 -232h-47z" />
    <glyph glyph-name="idieresis" unicode="&#xef;" horiz-adv-x="469" 
d="M166 711q0 51 -7 69t-28 19q-21 0 -61 -39l-27 26q102 100 197 224l28 -19q-16 -30 -16 -46q0 -17 42 -47t47 -30t21 -6v-45q-34 -7 -46 -28t-13 -80v-490q1 -33 15 -55t32 -23q18 0 66 49l30 -30q-104 -104 -178 -207l-32 16l8 19q-50 38 -66 64t-16 67l4 125v467z
M84 1384q16 -69 90 -90v-34q-75 -23 -90 -93l-37 1q-13 69 -90 92v34q76 21 90 90h37zM433 1384q14 -69 90 -90v-34q-77 -23 -90 -92l-37 -1q-15 70 -90 93v34q74 21 90 90h37z" />
    <glyph glyph-name="eth" unicode="&#xf0;" horiz-adv-x="811" 
d="M137 301v352q0 102 -10 174l280 116q-1 3 -35 57t-77 110l-238 -115l-22 47l229 111q-128 156 -155 156q-8 0 -25 -15l-29 27l133 111q6 4 21 4q32 0 194 -207l230 110l24 -47l-223 -108q330 -449 330 -666q0 -188 -301 -516q-30 -32 -45 -49h-41q-15 68 -287 137v41
q26 8 36.5 44.5t10.5 125.5zM481 102q37 0 97.5 99t60.5 195t-46 208t-165 303l-154 -65v-643q36 -17 113 -57t94 -40z" />
    <glyph glyph-name="ntilde" unicode="&#xf1;" horiz-adv-x="909" 
d="M606 745q0 35 -41 71t-63 36t-58 -37l-141 -135v-467q0 -103 70 -115l-1 -41q-88 -18 -116 -108h-43q-28 90 -116 108l-1 41q70 12 70 115v510q0 45 -10 65t-33 39l-47 -45l-33 27l174 201l33 -23q-14 -20 -14 -28t12 -20q57 -53 57 -157q0 -28 -2 -40l262 268h43
q32 -54 84 -90t98 -39l1 -39q-48 -22 -48 -92v-549q0 -68 37 -68q30 0 58 45l32 -22l-159 -207l-31 20l12 23q-56 38 -74 64t-18 63l6 153v473zM629 1196q-73 0 -142 23l-116 36q-63 19 -86 19t-37 -18t-35 -78h-43q6 17 17 47q52 147 99 147t144 -29l117 -32q54 -15 78 -15
q23 0 37 14t35 79h43q-64 -193 -111 -193z" />
    <glyph glyph-name="ograve" unicode="&#xf2;" horiz-adv-x="811" 
d="M137 653q0 102 -10 174l444 183l21 -37l-31 -17q19 -43 111 -183t92 -253q0 -198 -346 -567h-41q-15 68 -287 137v41q26 9 36 45t11 125v352zM481 102q37 0 97 99t61 202q0 135 -139 339q-67 97 -97 153l-129 -53v-643q36 -17 113 -57t94 -40zM178 1462q16 15 43 15
t68 -50l242 -307h-49l-273 236q-74 66 -31 106z" />
    <glyph glyph-name="oacute" unicode="&#xf3;" horiz-adv-x="811" 
d="M137 653q0 102 -10 174l444 183l21 -37l-31 -17q19 -43 111 -183t92 -253q0 -198 -346 -567h-41q-15 68 -287 137v41q26 9 36 45t11 125v352zM481 102q37 0 97 99t61 202q0 135 -139 339q-67 97 -97 153l-129 -53v-643q36 -17 113 -57t94 -40zM591 1477q27 0 43 -15
q43 -40 -31 -106l-273 -236h-49l242 307q41 50 68 50z" />
    <glyph glyph-name="ocircumflex" unicode="&#xf4;" horiz-adv-x="811" 
d="M137 653q0 102 -10 174l444 183l21 -37l-31 -17q19 -43 111 -183t92 -253q0 -198 -346 -567h-41q-15 68 -287 137v41q26 9 36 45t11 125v352zM481 102q37 0 97 99t61 202q0 135 -139 339q-67 97 -97 153l-129 -53v-643q36 -17 113 -57t94 -40zM359 1470h94l223 -350h-47
l-223 232l-223 -232h-47z" />
    <glyph glyph-name="otilde" unicode="&#xf5;" horiz-adv-x="811" 
d="M137 653q0 102 -10 174l444 183l21 -37l-31 -17q19 -43 111 -183t92 -253q0 -198 -346 -567h-41q-15 68 -287 137v41q26 9 36 45t11 125v352zM481 102q37 0 97 99t61 202q0 135 -139 339q-67 97 -97 153l-129 -53v-643q36 -17 113 -57t94 -40zM580 1196q-73 0 -142 23
l-116 36q-63 19 -86 19t-37 -18t-35 -78h-43q6 17 17 47q52 147 99 147t144 -29l117 -32q54 -15 78 -15q22 0 36 14t36 79h43q-64 -193 -111 -193z" />
    <glyph glyph-name="odieresis" unicode="&#xf6;" horiz-adv-x="811" 
d="M137 653q0 102 -10 174l444 183l21 -37l-31 -17q19 -43 111 -183t92 -253q0 -198 -346 -567h-41q-15 68 -287 137v41q26 9 36 45t11 125v352zM481 102q37 0 97 99t61 202q0 135 -139 339q-67 97 -97 153l-129 -53v-643q36 -17 113 -57t94 -40zM250 1384q16 -69 90 -90
v-34q-75 -23 -90 -93l-37 1q-13 69 -90 92v34q76 21 90 90h37zM599 1384q14 -69 90 -90v-34q-77 -23 -90 -92l-37 -1q-15 70 -90 93v34q74 21 90 90h37z" />
    <glyph glyph-name="divide" unicode="&#xf7;" horiz-adv-x="1706" 
d="M854 1085q48 0 81.5 -33.5t33.5 -81.5t-33.5 -81t-81.5 -33t-81.5 33t-33.5 81t33.5 81.5t81.5 33.5zM254 670h1198v-117h-1198v117zM854 365q47 0 81 -34t34 -81t-33.5 -81t-81.5 -34t-81.5 33.5t-33.5 81.5t34 81.5t81 33.5z" />
    <glyph glyph-name="oslash" unicode="&#xf8;" horiz-adv-x="811" 
d="M274 229l258 465l-50 75q-66 95 -78 125l-130 -52v-613zM764 520q0 -191 -298 -515q-32 -34 -48 -52h-41q-17 55 -144 92l-86 -160h-59l96 178q-48 18 -93 27l-1 41q26 8 36.5 44.5t10.5 125.5v352q0 102 -10 174l444 183l21 -37l-31 -17q21 -51 55 -104l109 201h59
l-135 -248q115 -151 115 -285zM481 102q37 0 97.5 99t60.5 182t-18 142t-56 122l-256 -465q13 -6 83 -43t89 -37z" />
    <glyph glyph-name="ugrave" unicode="&#xf9;" horiz-adv-x="905" 
d="M664 -12q-64 40 -64 110q0 32 1 66q1 32 1 53q-68 -64 -174 -149t-129 -115l-29 12q2 10 2 15q0 16 -122 72q-19 9 -29 13v44q25 7 35 27t10 91v502q0 40 -10 61t-39 44l-39 -35l-33 26l160 185l30 -17q-8 -17 -8 -23t24 -27t38 -40t14 -78v-596q0 -54 19 -63l51 -29
q18 -10 35 -10q17 1 73 43t121 111v469q0 100 -70 112v43q89 18 117 105h43q30 -87 117 -105v-43q-70 -12 -70 -112v-543q0 -68 29 -68q22 0 59 56l33 -27q-52 -64 -146 -175l-34 -40l-29 16zM225 1462q16 15 43 15t68 -50l242 -307h-49l-273 236q-74 66 -31 106z" />
    <glyph glyph-name="uacute" unicode="&#xfa;" horiz-adv-x="905" 
d="M664 -12q-64 40 -64 110q0 32 1 66q1 32 1 53q-68 -64 -174 -149t-129 -115l-29 12q2 10 2 15q0 16 -122 72q-19 9 -29 13v44q25 7 35 27t10 91v502q0 40 -10 61t-39 44l-39 -35l-33 26l160 185l30 -17q-8 -17 -8 -23t24 -27t38 -40t14 -78v-596q0 -54 19 -63l51 -29
q18 -10 35 -10q17 1 73 43t121 111v469q0 100 -70 112v43q89 18 117 105h43q30 -87 117 -105v-43q-70 -12 -70 -112v-543q0 -68 29 -68q22 0 59 56l33 -27q-52 -64 -146 -175l-34 -40l-29 16zM638 1477q27 0 43 -15q43 -40 -31 -106l-273 -236h-49l242 307q41 50 68 50z" />
    <glyph glyph-name="ucircumflex" unicode="&#xfb;" horiz-adv-x="905" 
d="M664 -12q-64 40 -64 110q0 32 1 66q1 32 1 53q-68 -64 -174 -149t-129 -115l-29 12q2 10 2 15q0 16 -122 72q-19 9 -29 13v44q25 7 35 27t10 91v502q0 40 -10 61t-39 44l-39 -35l-33 26l160 185l30 -17q-8 -17 -8 -23t24 -27t38 -40t14 -78v-596q0 -54 19 -63l51 -29
q18 -10 35 -10q17 1 73 43t121 111v469q0 100 -70 112v43q89 18 117 105h43q30 -87 117 -105v-43q-70 -12 -70 -112v-543q0 -68 29 -68q22 0 59 56l33 -27q-52 -64 -146 -175l-34 -40l-29 16zM406 1470h94l223 -350h-47l-223 232l-223 -232h-47z" />
    <glyph glyph-name="udieresis" unicode="&#xfc;" horiz-adv-x="905" 
d="M664 -12q-64 40 -64 110q0 32 1 66q1 32 1 53q-68 -64 -174 -149t-129 -115l-29 12q2 10 2 15q0 16 -122 72q-19 9 -29 13v44q25 7 35 27t10 91v502q0 40 -10 61t-39 44l-39 -35l-33 26l160 185l30 -17q-8 -17 -8 -23t24 -27t38 -40t14 -78v-596q0 -54 19 -63l51 -29
q18 -10 35 -10q17 1 73 43t121 111v469q0 100 -70 112v43q89 18 117 105h43q30 -87 117 -105v-43q-70 -12 -70 -112v-543q0 -68 29 -68q22 0 59 56l33 -27q-52 -64 -146 -175l-34 -40l-29 16zM297 1384q16 -69 90 -90v-34q-75 -23 -90 -93l-37 1q-13 69 -90 92v34
q76 21 90 90h37zM646 1384q14 -69 90 -90v-34q-77 -23 -90 -92l-37 -1q-15 70 -90 93v34q74 21 90 90h37z" />
    <glyph glyph-name="yacute" unicode="&#xfd;" horiz-adv-x="840" 
d="M162 231v420q0 84 -44 131q-44 48 -44 68q0 42 129 211l35 -19q-17 -38 -17 -59q0 -23 39 -85t39 -118v-12l262 242l24 -20q-5 -20 -5 -31t22 -33q109 -136 150 -236t41 -211q0 -347 -410 -882l-37 24q156 215 240 409t84 330t-54 250q-54 116 -167 236l-150 -135v-502
q0 -74 45 -74l86 58l27 -31q-108 -98 -145 -138t-52 -71h-39q-42 74 -121 119v41q38 5 50 25t12 93zM605 1477q27 0 43 -15q43 -40 -31 -106l-273 -236h-49l242 307q41 50 68 50z" />
    <glyph glyph-name="thorn" unicode="&#xfe;" horiz-adv-x="819" 
d="M109 70q-22 0 -56 -37l-33 20l117 164v991q0 64 -37 123l29 21q47 -47 59 -109q63 199 275 199v-43q-103 -6 -146 -64.5t-43 -197.5v-349l304 222l30 -31l-26 -21q14 -40 102 -167.5t88 -235.5q0 -147 -195 -401q-101 -129 -143 -201l-41 1q-10 32 -131 80
q-7 -70 -35 -431h-43q-21 207 -37 461q-16 6 -38 6zM659 438q0 98 -146 317q-45 68 -69 105l-170 -123v-536q168 -92 191 -92q41 0 117.5 115.5t76.5 213.5z" />
    <glyph glyph-name="ydieresis" unicode="&#xff;" horiz-adv-x="840" 
d="M162 231v420q0 84 -44 131q-44 48 -44 68q0 42 129 211l35 -19q-17 -38 -17 -59q0 -23 39 -85t39 -118v-12l262 242l24 -20q-5 -20 -5 -31t22 -33q109 -136 150 -236t41 -211q0 -347 -410 -882l-37 24q156 215 240 409t84 330t-54 250q-54 116 -167 236l-150 -135v-502
q0 -74 45 -74l86 58l27 -31q-108 -98 -145 -138t-52 -71h-39q-42 74 -121 119v41q38 5 50 25t12 93zM264 1384q16 -69 90 -90v-34q-75 -23 -90 -93l-37 1q-13 69 -90 92v34q76 21 90 90h37zM613 1384q14 -69 90 -90v-34q-77 -23 -90 -92l-37 -1q-15 70 -90 93v34
q74 21 90 90h37z" />
    <glyph glyph-name="Cacute" unicode="&#x106;" horiz-adv-x="1298" 
d="M922 141q168 0 317 88l25 -30q-160 -148 -247 -238q-62 -14 -136 -14q-347 0 -567 229t-220 598q0 314 120 514t304 199q84 -1 140 -43t77 -121l20 22q129 140 147 140t108 -45t129 -45t88 84l35 -25l-140 -201q-11 -16 -35 -16q-25 0 -123 45t-141 45q-23 1 -87 -67
t-64 -102t56 -169t64 -155t64 -152t55 -164q-1 -34 -85 -146t-138 -194q115 -37 234 -37zM745 434q0 84 -79 266q-28 64 -89 194t-61 160t134 177q29 32 44 49q-6 72 -54 116t-120 44q-126 0 -202 -154t-76 -407t108 -434t295 -248q59 87 79 139t21 98zM939 1950
q27 0 43 -15q43 -40 -31 -106l-273 -236h-49l242 307q41 50 68 50z" />
    <glyph glyph-name="cacute" unicode="&#x107;" horiz-adv-x="645" 
d="M119 317v349q0 64 10 88t39 51l194 180q25 25 46 25t70 -46q50 -46 64 -46t42 14l26 -23l-102 -96q-20 -18 -31 -18q-12 0 -49 26l-98 74l-29 -25q-25 -22 -35 -46t-10 -72v-371q0 -103 18 -139t64 -67q44 -32 78 -32t151 105l31 -25q-139 -135 -274 -270l-25 14l14 25
q-113 68 -153 134t-41 191zM547 1477q27 0 43 -15q43 -40 -31 -106l-273 -236h-49l242 307q41 50 68 50z" />
    <glyph glyph-name="Ccaron" unicode="&#x10c;" horiz-adv-x="1298" 
d="M922 141q168 0 317 88l25 -30q-160 -148 -247 -238q-62 -14 -136 -14q-347 0 -567 229t-220 598q0 314 120 514t304 199q84 -1 140 -43t77 -121l20 22q129 140 147 140t108 -45t129 -45t88 84l35 -25l-140 -201q-11 -16 -35 -16q-25 0 -123 45t-141 45q-23 1 -87 -67
t-64 -102t56 -169t64 -155t64 -152t55 -164q-1 -34 -85 -146t-138 -194q115 -37 234 -37zM745 434q0 84 -79 266q-28 64 -89 194t-61 160t134 177q29 32 44 49q-6 72 -54 116t-120 44q-126 0 -202 -154t-76 -407t108 -434t295 -248q59 87 79 139t21 98zM484 1943h47
l223 -233l223 233h47l-223 -350h-94z" />
    <glyph glyph-name="ccaron" unicode="&#x10d;" horiz-adv-x="645" 
d="M119 317v349q0 64 10 88t39 51l194 180q25 25 46 25t70 -46q50 -46 64 -46t42 14l26 -23l-102 -96q-20 -18 -31 -18q-12 0 -49 26l-98 74l-29 -25q-25 -22 -35 -46t-10 -72v-371q0 -103 18 -139t64 -67q44 -32 78 -32t151 105l31 -25q-139 -135 -274 -270l-25 14l14 25
q-113 68 -153 134t-41 191zM92 1470h47l223 -233l223 233h47l-223 -350h-94z" />
    <glyph glyph-name="dcroat" unicode="&#x111;" horiz-adv-x="819" 
d="M772 604q0 -301 -366 -651h-35q-4 42 -92.5 92.5t-210.5 75.5v41q39 14 54 42.5t15 117.5v501q17 2 51 25l197 129q-29 30 -57 68t-29 40h-215v54h180q-20 44 -20 94q0 88 70 148.5t178 60.5v-43q-130 -4 -130 -103q0 -58 95 -157h248v-54h-207q179 -176 226.5 -270
t47.5 -211zM659 500q0 134 -53 231.5t-190 214.5l-107 -67q-35 -24 -35 -74v-586l183 -98q12 -8 28 -8q45 0 109.5 126.5t64.5 260.5z" />
    <glyph glyph-name="Gbreve" unicode="&#x11e;" horiz-adv-x="1546" 
d="M1390 1243q19 0 29 4l19 -22q-56 -44 -134 -161t-135 -165q135 -61 209 -169t74 -241q0 -239 -165 -387t-437 -149q-344 0 -550 221t-206 590q0 319 148 520t374 201q78 0 144 -27q37 32 71 60l27 -27q-16 -14 -49 -55q66 -36 115 -74l-29 -39q-45 43 -115 74
q-32 -48 -32 -90t63 -167t63 -182t-79 -196q57 46 134 74t93 34q100 42 164 110t63 124q0 56 -115 161q-27 25 -50 46t-23 37t121 143l2 2l28 -23l-12 -24q0 -26 105 -129q66 -74 85 -74zM715 837q-1 73 -63 209t-62 162q0 76 133 213q-45 13 -90 13q-361 0 -365 -569
q162 -187 283 -187q75 0 119 44t45 115zM872 -2q184 0 302 109t118 275t-97 280t-234 114q-70 0 -188 -74q-117 -74 -199 -75q-82 0 -152 39t-152 127q40 -387 196 -591t406 -204zM824 1745q108 0 164 37t71 118h47q-20 -128 -92 -196t-190 -68t-192 68q-72 68 -92 196h45
q19 -82 75 -118t164 -37z" />
    <glyph glyph-name="gbreve" unicode="&#x11f;" horiz-adv-x="844" 
d="M211 -10q6 18 6 37t-57 95q-113 150 -113 294q1 144 69 263t298 331h39l-2 -4q0 -26 88 -76t209 -82v-39q-66 -96 -66 -341q0 -244 86 -370l2 -45q0 -197 -108 -323t-265 -127q-157 0 -247 72t-105 198l123 1q2 -110 61 -170t167 -60t188 82t80 178q0 15 -47 121t-60 204
l-307 -249zM547 412q0 205 51 329q-115 32 -254 138q-164 -152 -164 -365q0 -132 74 -244t131 -112q16 0 46 23l120 96q-4 46 -4 135zM423 1272q107 0 163 37t72 118h47q-19 -128 -91 -196t-192 -68q-118 -1 -190 67t-93 197h45q19 -83 75 -119t164 -36z" />
    <glyph glyph-name="Idotaccent" unicode="&#x130;" horiz-adv-x="1194" 
d="M244 256l154 -18q22 0 51 18l32 -18v-19q1 -72 67 -126t159 -54t160 62t67 137t-76 203l-27 45q-151 263 -151 345q0 32 28 87q28 54 76 108q47 54 101 86t96 31q86 0 86 -72q0 -59 -49 -59q-17 0 -31 14q4 11 4 18q1 31 -47 31q-48 -1 -82 -41t-33 -102q0 -62 85 -218
q14 -22 24 -42t36 -67q105 -193 105 -251q1 -58 -37 -128t-102 -132t-146 -88t-206 -26h-35q-86 0 -117 -33l-39 18q-13 97 -69 159t-121 62q-84 0 -125 -102l-45 12q57 160 207 160zM57 1124q0 112 87 207q87 94 271 128q56 10 56 34h45v-2q0 -20 96 -73q96 -54 177 -102
q82 -48 119 -48q38 0 72 22t34 43q0 20 -23 31q-1 4 -3 10t-1 14q1 10 15 22t36 13t38 -17q14 -18 14 -44q0 -89 -214 -180q-78 -33 -110 -33q-33 0 -121 56q-87 56 -129 80q-90 52 -185 52q-95 -1 -161 -63t-66 -153t68 -159t180 -83l-12 -48q-130 23 -206 102t-77 191z
M665 1857q16 -69 91 -90v-34q-76 -23 -91 -93h-36q-15 70 -91 93v34q75 21 91 90h36z" />
    <glyph glyph-name="dotlessi" unicode="&#x131;" horiz-adv-x="469" 
d="M166 711q0 51 -7 69.5t-28 18.5t-61 -39l-27 26q102 100 197 224l28 -19q-16 -30 -16 -46t42 -46.5t47 -30.5t21 -6v-45q-34 -7 -46.5 -28t-12.5 -80v-490q0 -33 14.5 -55.5t32.5 -22.5t66 49l30 -30q-104 -104 -178 -207l-32 16l8 19q-51 39 -66.5 64.5t-15.5 66.5
l4 125v467z" />
    <glyph glyph-name="Lslash" unicode="&#x141;" horiz-adv-x="1110" 
d="M782 113q72 0 168 123q12 16 19 24l39 -27q-93 -124 -238 -278q-36 -8 -78 -8q-102 0 -342 121q-152 75 -196 75q-23 0 -77 -75q-14 -20 -22 -31l-35 20q45 77 94 178t65 101t97 -27q132 67 132 164q0 64 -78 174l-209 -88l-25 53l199 80q-122 166 -157.5 235t-35.5 119
q0 112 76 227q145 222 428 222q170 0 276.5 -81.5t106.5 -207.5q0 -52 -8 -106.5t-8 -63.5t10 -24l-21 -33q-18 6 -34 6q-56 0 -99 -35.5t-43 -75.5t25.5 -61.5t64.5 -21.5t87 26l16 -41q-54 -28 -112 -28t-96 44t-38 103t16.5 103t16.5 54t-10 23l32 21q8 -4 42 -4t69 37
t35 90q0 104 -92 166.5t-246 62.5t-248 -80t-94 -194t168 -339q29 -39 45 -61l195 80l22 -53l-186 -76q59 -90 59 -166q0 -148 -235 -270q364 -176 460 -176z" />
    <glyph glyph-name="lslash" unicode="&#x142;" horiz-adv-x="440" 
d="M137 1208q0 64 -37 123l29 21q47 -47 59 -109q63 199 275 199v-43q-103 -6 -146 -64.5t-43 -197.5v-363l138 92v-61l-138 -92v-482q0 -40 5 -52.5t18 -20.5l47 -29q16 -8 28 -8t33 14l72 51l29 -30l-252 -203l-27 16l11 15v2q0 16 -45.5 42.5t-116.5 49.5v37
q33 4 47 22.5t14 59.5v430l-137 -92v63l137 92v518z" />
    <glyph glyph-name="OE" unicode="&#x152;" horiz-adv-x="2109" 
d="M489 1360q-239 -142 -239 -251t96 -230q22 -29 63 -78q126 -153 126 -221t-77 -121t-186 -53q-31 0 -73 6v43q22 -2 62 -2q41 0 74.5 22.5t33.5 62.5t-70 124q-71 84 -109 134q-88 114 -88 212q0 153 337 378q63 44 84.5 71t27.5 63h39q24 -68 208 -120t283 -110
q49 94 126 145.5t159 51.5t139.5 -35.5t81.5 -95.5q100 131 121 131q20 0 100 -24.5t115 -24.5t66 51l34 -16q-33 -62 -67 -135.5t-41 -73.5q-30 0 -119.5 35.5t-140.5 35.5q-28 0 -72.5 -53.5t-44.5 -79.5q0 -52 170 -303l18 18q109 105 125 146h31q61 -86 139 -115v-37
q-57 -40 -88 -106h-32q-43 62 -123 102l-49 -49q75 -129 75 -154t-19.5 -89t-29.5 -113q-43 -219 -184 -219q-74 0 -127.5 54t-73.5 148l47 11q35 -166 154 -166q54 0 89.5 47t35.5 119t-66 194q-66 124 -148.5 257.5t-82.5 151.5q-1 18 65 103t88 115q-15 54 -64 88.5
t-117 34.5t-127.5 -50t-98.5 -145q89 -87 136.5 -212t47.5 -269q0 -201 -106 -391q157 -234 442 -234q206 0 367 107l22 -35q-178 -151 -314 -248q-36 -10 -106 -10q-323 0 -514 274q-126 -120 -253 -198t-169 -78q-83 0 -333 137q-158 84 -188 84q-29 0 -71 -33l-28 35
q127 102 167 129t59 27q20 0 86 -37t119 -66q195 -106 285 -106t160 36.5t142 114.5q-119 236 -119 521q0 195 43 344q-104 57 -294.5 103.5t-236.5 119.5zM1253 675q0 140 -40.5 249t-110.5 163q-15 -101 -15 -217q0 -256 109 -450q57 115 57 255z" />
    <glyph glyph-name="oe" unicode="&#x153;" horiz-adv-x="1237" 
d="M772 723v-334l250 203q10 8 10 19q0 12 -8 28l-145 252q-69 -52 -88 -83t-19 -85zM481 102q37 0 97.5 99t60.5 202q0 135 -139 339q-67 97 -97 153l-129 -53v-643q36 -17 113 -57t94 -40zM137 301v352q0 102 -10 174l440 183l23 -37l-31 -17q16 -41 57 -104.5t54 -87.5
l274 246h45l174 -305q11 -18 11 -30q0 -13 -11 -24l-387 -313q11 -85 63.5 -140t126.5 -55t177 99l24 -25l-276 -264l-29 16l8 17q-207 90 -223 227q-47 -65 -128.5 -147.5t-100.5 -112.5h-41q-15 68 -287 137v41q26 8 36.5 44.5t10.5 125.5z" />
    <glyph glyph-name="Scedilla" unicode="&#x15e;" horiz-adv-x="1593" 
d="M1399 1438q0 41 35 41q21 1 34 -23t13 -64q0 -80 -54 -126t-142 -86t-113 -39q-24 0 -112 59t-153 97q-118 69 -219 69q-196 0 -340 -164t-143 -399q0 -297 244 -510q103 -91 235 -143t264 -52q216 0 358 120t142 304q0 138 -81 236t-191 98q-77 0 -277 -102t-217 -103
q-16 0 -61 45t-63 60q-134 120 -134 228t74 180t164 71q174 0 260 -158l-39 -26q-31 63 -87 100t-130 37t-134 -57q-59 -57 -59 -133t47 -123q48 -46 122 -46q74 -1 230 89t203 90q88 0 197 -76q223 -156 223 -403q0 -248 -179 -413t-454 -165q-19 0 -38 1v-65h223v-182h39
v-29q-77 -21 -133 -74t-58 -53q-31 1 -117 47t-102 46t-42 -28t-32 -34l-32 21q110 131 149 131q23 0 107 -46t104 -46t19 12v168h-220l29 33v103q-265 29 -447 207q-217 212 -217 544q0 156 63 301t174 247t263 169t254 67q65 0 191 -80l42 -27q179 -108 232 -108
q51 0 85 27t34 53t-16 46t-17 36z" />
    <glyph glyph-name="scedilla" unicode="&#x15f;" horiz-adv-x="786" 
d="M387 1139q43 108 173 108q68 1 126 -61t57 -149q0 -87 -67 -175l-150 -192q102 -53 156 -129t55 -164q0 -178 -186 -299q-24 -15 -66 -37t-71 -41h6v-113h223v-182h39v-29q-77 -21 -133 -74t-58 -53q-31 1 -117 47t-102 46t-42 -28t-32 -34l-32 21q110 131 149 131
q23 0 107 -46t104 -46t19 12v168h-220l29 33v100h-35q-12 53 -260 192v39q67 30 115 92t47 114t-77 158t-76 147q0 40 53 96q208 219 250 219q5 0 33 -21q99 -74 164 -74q132 0 132 126q0 63 -36 108t-91 45q-81 0 -100 -106q-45 37 -86 51zM285 877q-17 -1 -57 -41t-40 -66
t61 -108t95 -158l209 266q-91 5 -171 56t-97 51zM631 291q0 81 -74 160t-123 79q-14 0 -37 -28l-198 -254q31 -22 124 -92t139 -70t108 62t61 143z" />
    <glyph glyph-name="Scaron" unicode="&#x160;" horiz-adv-x="1593" 
d="M1399 1438q0 41 35 41q21 1 34 -23t13 -64q0 -80 -54 -126t-142 -86t-113 -39q-24 0 -112 59t-153 97q-118 69 -219 69q-196 0 -340 -164t-143 -399q0 -297 244 -510q103 -91 235 -143t264 -52q216 0 358 120t142 304q0 138 -81 236t-191 98q-77 0 -277 -102t-217 -103
q-16 0 -61 45t-63 60q-134 120 -134 228t74 180t164 71q174 0 260 -158l-39 -26q-31 63 -87 100t-130 37t-134 -57q-59 -57 -59 -133t47 -123q48 -46 122 -46q74 -1 230 89t203 90q88 0 197 -76q223 -156 223 -403q0 -248 -179 -413t-454 -165q-334 0 -551 212t-217 544
q0 156 63 301t174 247t263 169t254 67q65 0 191 -80l42 -27q179 -108 232 -108q51 0 85 27t34 53t-16 46t-17 36zM576 1943h47l223 -233l223 233h47l-223 -350h-94z" />
    <glyph glyph-name="scaron" unicode="&#x161;" horiz-adv-x="786" 
d="M221 388q-1 50 -77 158t-76 149t53 96q215 219 250 219q5 0 32 -20q95 -75 163 -75q134 0 134 121q0 68 -36.5 113t-90.5 45q-81 0 -100 -106q-41 37 -86 51q49 108 160 108q81 0 138.5 -61t57.5 -150t-67 -174l-150 -192q211 -113 211 -292t-186 -300q-23 -15 -94 -53.5
t-101 -71.5h-37q-12 53 -260 192v39q70 34 116 94t46 110zM284 877q-17 0 -56.5 -40.5t-39.5 -65.5t60.5 -108.5t95.5 -158.5l209 266q-89 6 -170.5 56.5t-98.5 50.5zM451 86q59 0 119.5 62.5t60.5 122.5t-16.5 97.5t-52.5 76.5t-74 62t-53 23t-38 -28l-198 -254
q31 -22 124 -92t128 -70zM123 1708h49l221 -233l223 233h50l-226 -350h-94z" />
    <glyph glyph-name="Ydieresis" unicode="&#x178;" horiz-adv-x="1470" 
d="M316 246q-34 0 -74 -8l-9 47q233 49 335 168t102 346t-100 377t-257 151q-104 -1 -177 -85t-73 -211q1 -127 77 -215t206 -105l-6 -45q-146 14 -236 118t-90 272t114 298t267 131q119 -1 217 -85t156 -235q170 203 330 326l26 -25q-12 -22 -12 -48t52 -112t65 -108
q141 -242 141 -507t-118 -519t-322 -428q-171 -147 -332 -147q-104 1 -178 55t-74 127q0 40 26 66t64 26t61 -18t23 -41t-7 -43t-7 -23q0 -26 38 -50t87 -24q238 0 424 301q69 115 111 275t42 330t-50 328t-200 399q-121 -123 -172 -193q21 -126 21 -203q0 -347 -277 -553
q60 -46 146 -124t118 -78q31 0 107 43l29 -41q-167 -99 -303 -199l-37 27q28 34 28 44q0 11 -58 66q-58 56 -113 96q-57 40 -77 48t-54 8zM628 1857q16 -69 90 -90v-34q-75 -23 -90 -93l-37 1q-13 69 -90 92v34q76 21 90 90h37zM977 1857q14 -69 90 -90v-34q-77 -23 -90 -92
l-37 -1q-15 70 -90 93v34q74 21 90 90h37z" />
    <glyph glyph-name="Zcaron" unicode="&#x17d;" horiz-adv-x="1100" 
d="M41 -293q0 77 43 124t150 84q106 36 106 58v4h45q11 -52 78 -116t112 -64q105 1 189 91t84 218q0 188 -152 336t-344 148q-76 0 -125 -29t-49 -74q0 -2 4 -22q-30 0 -52 -12l-33 26q20 71 81 118t149 60q-133 20 -198 121l37 29q88 -88 251 -88q163 -1 266 89t103 238
t-104 245q-104 98 -244 98q-142 0 -230 -78t-104 -203h-47q19 174 139 276t315 101t319 -109t124 -270t-100 -272q-100 -108 -279 -146q180 -22 295 -150t115 -315t-108 -313t-347 -176q-97 -20 -104 -49h-43q-108 157 -178 157q-45 0 -81 -38t-36 -91q0 -54 47 -96l-26 -39
q-68 52 -68 129zM330 1943h47l223 -233l223 233h47l-223 -350h-94z" />
    <glyph glyph-name="zcaron" unicode="&#x17e;" horiz-adv-x="578" 
d="M326 674q0 62 -34 104t-71 43q-37 -1 -59 -11t-56 -46l-32 27l207 253l34 -20q-8 -14 -8 -25q0 -6 82 -61t82 -147q0 -65 -46 -139t-149 -177q88 -76 115 -115q40 24 103 46l12 -39q-43 -17 -90 -43q92 -139 92 -319q0 -181 -72 -291t-175 -111q-104 0 -166 78t-62 204
q0 228 198 387q-38 50 -120 101v37q215 113 215 264zM76 -115q0 -101 50 -167t119 -66q70 0 109 62t39 162q0 201 -137 364q-180 -157 -180 -355zM19 1470h47l223 -233l223 233h47l-223 -350h-94z" />
    <glyph glyph-name="florin" unicode="&#x192;" horiz-adv-x="1063" 
d="M831 1364q-86 0 -132.5 -81t-80.5 -310l-28 -195h282v-57h-290l-93 -610q-35 -239 -137.5 -373.5t-247.5 -134.5q-101 0 -162 53.5t-61 140.5q0 43 22.5 66.5t59.5 23.5t57.5 -19t20.5 -46t-9 -58.5t-9 -53.5t23 -42t58 -20q77 0 118 65.5t69 247.5l115 760h-228v57h234
q49 331 152 483t276 152q107 0 172 -55t65 -146q0 -40 -21 -62t-78.5 -22t-57.5 72l6 90q0 34 -25.5 54t-69.5 20z" />
    <glyph glyph-name="circumflex" unicode="&#x2c6;" 
d="M465 1470h94l223 -350h-47l-223 232l-223 -232h-47z" />
    <glyph glyph-name="caron" unicode="&#x2c7;" 
d="M242 1470h47l223 -233l223 233h47l-223 -350h-94z" />
    <glyph glyph-name="breve" unicode="&#x2d8;" 
d="M513 1272q108 0 163.5 37t71.5 118h47q-19 -128 -92 -196t-191 -68t-190.5 67.5t-92.5 196.5h45q19 -82 75 -118.5t164 -36.5z" />
    <glyph glyph-name="dotaccent" unicode="&#x2d9;" 
d="M530 1384q16 -69 91 -90v-34q-76 -23 -91 -93h-36q-15 70 -91 93v34q75 21 91 90h36z" />
    <glyph glyph-name="ring" unicode="&#x2da;" 
d="M512 1569q98 0 165.5 -68.5t67.5 -164.5t-67.5 -165t-165.5 -69t-165.5 68t-67.5 166t67.5 165.5t165.5 67.5zM512 1487q-63 0 -107.5 -44.5t-44.5 -108.5t43.5 -107t108.5 -43t108.5 43t43.5 107t-44.5 108.5t-107.5 44.5z" />
    <glyph glyph-name="ogonek" unicode="&#x2db;" 
d="M326 -256q0 62 69 127l176 160h45l-151 -160q-39 -41 -39 -76t47.5 -87t65.5 -52t105 70l24 -27l-189 -180l-20 20l10 17q-143 106 -143 188z" />
    <glyph glyph-name="tilde" unicode="&#x2dc;" 
d="M686 1196q-73 0 -142 23l-116 36q-63 19 -86 19t-37 -18.5t-35 -77.5h-43q6 17 17 47q52 147 99 147t144 -29l117 -32q54 -15 78 -15q23 0 36.5 14t35.5 79h43q-64 -193 -111 -193z" />
    <glyph glyph-name="hungarumlaut" unicode="&#x2dd;" 
d="M788 1479q20 0 36 -15t16 -34t-33 -62l-186 -248h-43l141 295q32 64 69 64zM536 1479q22 0 37 -14t15 -36t-27 -63l-166 -246h-43l117 289q27 70 67 70z" />
    <glyph glyph-name="Omega" unicode="&#x3a9;" horiz-adv-x="1567" 
d="M369 864q0 -390 272 -864h-500l-110 365h61l68 -203h311v26q-165 203 -234 361.5t-69 327.5q0 272 174.5 446t443.5 174t443 -174.5t174 -445.5q0 -169 -69 -327.5t-234 -361.5v-26h313l66 203h61l-108 -365h-500q270 469 270 864q0 271 -107.5 416t-308.5 145t-309 -145
t-108 -416z" />
    <glyph glyph-name="pi" unicode="&#x3c0;" horiz-adv-x="1354" 
d="M356 -43q-77 0 -77 96q0 56 77.5 277t118.5 393h-133q-136 0 -180 -43.5t-72 -171.5h-59q37 207 117.5 292t238.5 85h942l-35 -162h-329q-33 -179 -55 -473t-119 -293q-78 0 -78 94q0 58 77 280.5t117 391.5h-375q-34 -177 -56 -471t-120 -295z" />
    <glyph glyph-name="endash" unicode="&#x2013;" 
d="M1024 557v-80h-1024v80h1024z" />
    <glyph glyph-name="emdash" unicode="&#x2014;" horiz-adv-x="2048" 
d="M2048 557v-80h-2048v80h2048z" />
    <glyph glyph-name="quoteleft" unicode="&#x2018;" horiz-adv-x="530" 
d="M332 1016q-26 -121 -103 -121t-77 63q0 31 30 93l213 434h39z" />
    <glyph glyph-name="quoteright" unicode="&#x2019;" horiz-adv-x="530" 
d="M406 1329l-211 -434h-41l104 467q26 123 100 123q38 0 58 -19t20 -48t-30 -89z" />
    <glyph glyph-name="quotesinglbase" unicode="&#x201a;" horiz-adv-x="530" 
d="M246 238q78 0 78 -68q0 -27 -29 -88l-213 -434h-39l102 467q15 66 39 94.5t62 28.5z" />
    <glyph glyph-name="quotedblleft" unicode="&#x201c;" horiz-adv-x="883" 
d="M332 1016q-26 -121 -103 -121t-77 63q0 31 30 93l213 434h39zM582 895q-78 0 -78 65q0 31 31 91l210 434h41l-104 -469q-27 -121 -100 -121z" />
    <glyph glyph-name="quotedblright" unicode="&#x201d;" horiz-adv-x="883" 
d="M406 1329l-211 -434h-41l104 467q26 123 100 123q38 0 58 -19t20 -48t-30 -89zM766.5 1466q19.5 -19 19.5 -48t-30 -89l-211 -434h-39l102 467q26 123 101 123q38 0 57.5 -19z" />
    <glyph glyph-name="quotedblbase" unicode="&#x201e;" horiz-adv-x="883" 
d="M246 238q78 0 78 -68q0 -27 -29 -88l-213 -434h-39l102 467q15 66 39 94.5t62 28.5zM598 238q78 0 78 -68q0 -26 -31 -88l-213 -434h-39l105 467q14 66 38 94.5t62 28.5z" />
    <glyph glyph-name="dagger" unicode="&#x2020;" 
d="M571 1231v-242h68q55 0 78.5 17t27.5 58l41 1q2 -45 28 -72t70 -30l1 -37q-95 -10 -99 -101l-41 1q-4 41 -27.5 58t-78.5 17h-68v-989q0 -55 18 -78t62 -29v-43q-97 -2 -119 -104h-40q-22 102 -119 104v43q44 6 62 29t18 78v989h-68q-56 0 -79.5 -17t-26.5 -58l-41 -1
q-4 91 -99 101l1 37q94 8 98 102l41 -1q3 -41 26.5 -58t79.5 -17h68v242q0 55 -18 78t-62 28v43q97 4 119 105h40q24 -101 119 -105v-43q-44 -5 -62 -28t-18 -78z" />
    <glyph glyph-name="daggerdbl" unicode="&#x2021;" 
d="M571 1231v-195h68q55 0 78.5 17t27.5 59h41q2 -45 28 -72t70 -30l1 -37q-95 -10 -99 -101l-41 1q-4 41 -27.5 58t-78.5 17h-68v-755h68q55 0 78.5 16.5t27.5 58.5h41q4 -92 98 -102v-37q-94 -10 -98 -100h-41q-4 41 -27.5 58t-78.5 17h-68v-192q0 -55 18 -78t62 -29v-43
q-97 -2 -119 -104h-40q-22 102 -119 104v43q44 6 62 29t18 78v192h-68q-56 0 -80 -17t-26 -58h-41q-4 90 -98 100v37q94 10 98 102h41q3 -42 26.5 -58.5t79.5 -16.5h68v755h-68q-56 0 -79.5 -17t-26.5 -58l-41 -1q-4 91 -99 101l1 37q94 8 98 102h41q3 -42 26.5 -59
t79.5 -17h68v195q0 55 -18 78t-62 28v43q97 4 119 105h40q24 -101 119 -105v-43q-44 -5 -62 -28t-18 -78z" />
    <glyph glyph-name="bullet" unicode="&#x2022;" horiz-adv-x="1208" 
d="M307 762q0 123 87.5 209t209.5 86t208.5 -86.5t86.5 -208.5t-87.5 -209.5t-209.5 -87.5t-208.5 87t-86.5 210z" />
    <glyph glyph-name="ellipsis" unicode="&#x2026;" horiz-adv-x="2048" 
d="M365 238q19 -92 119 -119v-47q-100 -27 -119 -119h-47q-11 49 -39 77t-80 42v47q52 14 80 42t39 77h47zM1047 238q19 -92 119 -119v-47q-100 -27 -119 -119h-47q-11 49 -39 77t-80 42v47q52 14 80 42t39 77h47zM1731 238q19 -92 119 -119v-47q-100 -27 -119 -119h-47
q-11 49 -39 77t-80 42v47q52 14 80 42t39 77h47z" />
    <glyph glyph-name="perthousand" unicode="&#x2030;" horiz-adv-x="2038" 
d="M381 -25h-100l731 1438h102zM344 1413q111 0 191.5 -113.5t80.5 -279.5t-80 -277.5t-192 -111.5t-192 112.5t-80 276.5t80.5 278.5t191.5 114.5zM213 1020q0 -188 30.5 -266t100.5 -78t99.5 77.5t29.5 267.5t-29.5 268.5t-99.5 78.5t-100.5 -80t-30.5 -268zM1050 758
q111 0 192 -113t81 -278t-80.5 -278.5t-192.5 -113.5t-192 114t-80 278t80.5 277.5t191.5 113.5zM920 367q0 -188 30 -267.5t100 -79.5t100 78.5t30 268.5t-30 268t-100 78t-100 -79t-30 -267zM1696 758q112 0 192 -113t80 -278t-80.5 -278.5t-192.5 -113.5t-193 113.5
t-81 277.5t81.5 278t193.5 114zM1565 367q0 -188 30.5 -267.5t100.5 -79.5t99.5 78.5t29.5 268.5t-29.5 268t-99.5 78t-100.5 -79t-30.5 -267z" />
    <glyph glyph-name="guilsinglleft" unicode="&#x2039;" horiz-adv-x="393" 
d="M322 86l-275 401v58l275 346v-113l-138 -262l138 -305v-125z" />
    <glyph glyph-name="guilsinglright" unicode="&#x203a;" horiz-adv-x="393" 
d="M72 891l274 -404v-55l-274 -346v113l137 262l-137 305v125z" />
    <glyph glyph-name="franc" unicode="&#x20a3;" horiz-adv-x="1749" 
d="M248 481q70 0 117 -51t47 -134q0 -82 -87 -208t-87 -194q0 -98 94 -168t229 -70t216 79t81 224t-201 405q-35 47 -51 68t-40 52q-163 214 -163 318t84 232t232 254q-197 84 -345 84q-149 0 -241 -84t-92 -213q0 -155 170 -223l-16 -45q-203 82 -203 267t140 306t340 121
q198 0 410 -95t214 -95q22 0 63 45l29 -31l-166 -166q-20 -20 -30 -20q-10 -1 -82 47t-146 82q-109 -91 -168 -184q-59 -94 -59 -158q0 -120 114 -262q141 96 180 170h39q37 -64 138 -76v-47q-60 -22 -101 -103h-43q-47 64 -100 64q-25 0 -82 -45q10 -12 28 -36
q289 -363 289 -549t-121 -310t-306 -125q-186 -1 -304 99t-118 247q0 112 90 219q13 17 40 46q64 69 64 116q0 48 -27 74t-63 26q-74 0 -113 -80l-43 19q53 108 150 108zM1299 244v475q0 47 -10 65t-39 39l-47 -41l-27 27l43 50q95 112 129 151l33 -21q-8 -18 -8 -31
q-1 -13 31 -48t32 -83v-59q36 61 94 139t62 103h35q14 -75 92 -150v-53q-45 -49 -78 -125h-39q-24 70 -82 139l-43 -65q-23 -36 -32 -62t-9 -78v-409q0 -27 16 -39l54 -39q18 -12 32 -12t23 10l104 90l31 -31l-239 -233l-33 14l8 15q-96 84 -207 124v37q40 5 57 28t17 73z
" />
    <glyph glyph-name="trademark" unicode="&#x2122;" horiz-adv-x="1683" 
d="M545 1411h-21v-426q0 -49 45 -53l31 -2v-27h-248v27l31 2q45 2 45 53v426h-20q-64 0 -97 -36t-41 -115h-26l12 178h440l11 -178h-25q-8 79 -40.5 115t-96.5 36zM788 1438h183l141 -400l148 400h174v-25l-30 -2q-46 -4 -46 -53v-373q0 -49 46 -53l30 -2v-27h-236v27l31 2
q45 4 45 53v395l-178 -479h-15l-174 479v-395q0 -49 47 -53l31 -2v-27h-197v27l34 2q44 4 44 53v371q0 49 -47 53l-31 2v27z" />
    <glyph glyph-name="partialdiff" unicode="&#x2202;" horiz-adv-x="1044" 
d="M709 483q0 117 -45 180.5t-127 63.5q-113 0 -184.5 -127.5t-71.5 -333.5q0 -117 44 -178t128 -61q111 0 183.5 128t72.5 328zM780 915q0 149 -40 225.5t-102 76.5t-126 -63.5t-101 -63.5t-59 21.5t-22 51.5q0 59 68 105.5t163 46.5q171 0 273 -152.5t102 -412.5
q0 -335 -139 -555t-344 -220q-147 0 -241.5 106.5t-94.5 284.5t108.5 304.5t266.5 126.5q99 0 162.5 -47t99.5 -146q26 162 26 311z" />
    <glyph glyph-name="Delta" unicode="&#x2206;" horiz-adv-x="1208" 
d="M596 1497h29l555 -1497h-1151zM555 1212l-389 -1042h768z" />
    <glyph glyph-name="product" unicode="&#x220f;" horiz-adv-x="1595" 
d="M57 1473h1479v-70h-186v-1727h186v-69h-555v69h197v1727h-762v-1727h196v-69h-555v69h187v1727h-187v70z" />
    <glyph glyph-name="summation" unicode="&#x2211;" horiz-adv-x="1434" 
d="M12 1473h1135l98 -340h-74l-67 219q-15 51 -105 51h-741l864 -850v-37l-858 -756h893q60 0 77.5 13t29.5 51l71 229h74l-135 -446h-1260v28l959 838l-961 950v50z" />
    <glyph glyph-name="minus" unicode="&#x2212;" horiz-adv-x="1706" 
d="M254 670h1198v-119h-1198v119z" />
    <glyph glyph-name="fraction" unicode="&#x2215;" horiz-adv-x="342" 
d="M-342 -25l924 1438h100l-922 -1438h-102z" />
    <glyph glyph-name="periodcentered" unicode="&#x2219;" horiz-adv-x="530" 
d="M156 694q0 44 32 76.5t77 32.5t77.5 -32.5t32.5 -76.5t-33.5 -76t-77.5 -32t-76 32t-32 76z" />
    <glyph glyph-name="radical" unicode="&#x221a;" horiz-adv-x="1288" 
d="M1288 1647v-82h-119l-594 -1606h-53l-323 893l-119 -43l-23 68l262 92l265 -729l522 1407h182z" />
    <glyph glyph-name="infinity" unicode="&#x221e;" horiz-adv-x="1706" 
d="M1161 997q134 0 226 -108.5t92 -276.5t-82 -273.5t-213 -105.5q-96 0 -169 60t-149 201q-71 -138 -148 -201.5t-173 -63.5q-134 0 -226 108.5t-92 276.5t82.5 273.5t214.5 105.5q97 0 172 -63t144 -203q131 270 321 270zM293 604q0 -110 61 -181t149 -71t155 69t145 245
q-102 190 -273 190q-105 0 -171 -71t-66 -181zM1415 622q0 109 -61 180.5t-149 71.5t-156.5 -72.5t-143.5 -242.5q101 -188 275 -188q102 0 168.5 71t66.5 180z" />
    <glyph glyph-name="integral" unicode="&#x222b;" horiz-adv-x="1020" 
d="M274 -224q0 -44 27 -44q103 0 116 664q3 141 5 216q12 503 102 719.5t281 216.5q76 0 122 -39t46 -95t-31 -86t-83 -30t-84 35t-32 92q0 8 -6 15.5t-14 7.5q-105 0 -119 -634q-10 -508 -34.5 -683.5t-69.5 -279.5t-118.5 -163t-157.5 -59t-130.5 38t-46.5 94t31.5 87
t81.5 31t82 -29.5t32 -73.5z" />
    <glyph glyph-name="approxequal" unicode="&#x2248;" horiz-adv-x="1706" 
d="M1143 659q-100 0 -289.5 69t-281.5 69t-180.5 -36t-213.5 -122v131q211 145 387 145q111 0 300 -68.5t277 -68.5t176 35t212 121v-131q-205 -144 -387 -144zM1141 307q-98 0 -288 69.5t-281 69.5t-178.5 -35.5t-215.5 -123.5v131q215 147 387 147q111 0 301 -69.5
t276 -69.5t174.5 35.5t213.5 122.5v-131q-208 -146 -389 -146z" />
    <glyph glyph-name="notequal" unicode="&#x2260;" horiz-adv-x="1706" 
d="M1452 860v-115h-424l-211 -270h635v-115h-709l-251 -319l-89 70l197 249h-346v115h420l211 270h-631v115h704l252 320l88 -70l-196 -250h350z" />
    <glyph glyph-name="lessequal" unicode="&#x2264;" horiz-adv-x="1706" 
d="M1444 1192v-125l-977 -324l977 -323v-125l-1182 399v101zM262 150h1182v-117h-1182v117z" />
    <glyph glyph-name="greaterequal" unicode="&#x2265;" horiz-adv-x="1706" 
d="M262 1192l1182 -397v-101l-1182 -399v125l979 323l-979 324v125zM262 150h1182v-117h-1182v117z" />
    <glyph glyph-name="lozenge" unicode="&#x25ca;" horiz-adv-x="1012" 
d="M506 1653l500 -1061l-500 -1069l-500 1069zM506 1409l-385 -817l385 -825l385 825z" />
    <glyph glyph-name="apple" unicode="&#xf000;" horiz-adv-x="1618" 
d="M1272 741q0 -113 60 -200t173 -138q-114 -247 -205 -342.5t-204 -95.5q-50 0 -131.5 33t-124.5 33t-129.5 -33t-138.5 -33t-116 44t-148 158t-139.5 269.5t-55.5 300.5q0 219 125 356.5t323 137.5q68 0 154.5 -34t122.5 -34t123 35t175 35q194 0 337 -164
q-201 -128 -201 -328zM834 1253q0 124 95 229.5t236 131.5q2 -20 2 -62q0 -131 -103.5 -234.5t-203.5 -103.5h-8l-16 2q-2 12 -2 37z" />
    <glyph glyph-name="fi" unicode="&#xf001;" horiz-adv-x="891" 
d="M137 627v184h-96v47q78 23 113 217q12 66 20 103q26 120 87 192t132 72q37 0 85 -11.5t62 -11.5t25 21l37 -15l-84 -172q-84 62 -180 62q-50 0 -78.5 -30.5t-28.5 -80.5t27 -141t35 -133h229q53 0 79.5 16.5t60.5 63.5l28 -19q-16 -30 -16 -46t42 -46.5t48 -30.5t20 -6
v-45q-34 -7 -46.5 -28t-12.5 -80v-490q0 -33 14.5 -55.5t32.5 -22.5t66 49l30 -30q-104 -104 -178 -207l-33 16l9 19q-51 39 -66.5 64.5t-15.5 66.5l4 125v467q0 62 -15.5 81t-54.5 19h-227l-2 -268q0 -288 -62 -940h-43q-47 627 -47 1024zM788 1462q28 0 46 -16.5t18 -42.5
q0 -52 -147 -199l-43 1q47 257 126 257z" />
    <glyph glyph-name="fl" unicode="&#xf002;" horiz-adv-x="891" 
d="M137 627v184h-96v47q79 24 113 214q16 88 28 138q28 110 89 171t129 61t153 -38t113 -38t99 38t132 38h16v-43q-102 -6 -145 -64.5t-43 -197.5v-906q0 -40 5 -52.5t18 -20.5l47 -29q15 -8 27 -8t34 14l72 51l28 -30l-251 -203l-27 16l10 15v2q0 16 -46.5 43t-117.5 49
l1 37q63 8 63 82v614h-297l-2 -268q0 -288 -62 -940h-43q-47 627 -47 1024zM588 930v196q0 84 -72.5 136.5t-177.5 52.5q-50 0 -78.5 -30.5t-28.5 -80.5t27 -141t35 -133h295z" />
    </font>
</defs>
</svg>
