<?xml version="1.0" standalone="no"?>
<!DOCTYPE svg PUBLIC "-//W3C//DTD SVG 1.1//EN" "http://www.w3.org/Graphics/SVG/1.1/DTD/svg11.dtd" >
<svg xmlns="http://www.w3.org/2000/svg">
<metadata>
Created by FontPrep 20130207 at Sun Oct 16 21:51:15 2016
 By Matthew Higley
Copyright (c) 1987, 1990, 1994, 2001 Adobe Systems Incorporated.  All Rights Reserved.
</metadata>
<defs>
<font id="eb21f6604ba28d5573abad1c01255830" horiz-adv-x='1024' >
  <font-face 
    font-family="BrushScriptStd"
    font-weight="500"
    font-style="italic"
    font-stretch="normal"
    units-per-em="2048"
    panose-1="0 0 6 0 0 0 0 0 0 0"
    ascent="1399"
    descent="-649"
    x-height="770"
    cap-height="1419"
    bbox="-374.366 -574.41 2718.8 1806.03"
    underline-thickness="102"
    underline-position="-102"
    slope="-14"
    unicode-range="U+0020-FB02"
  />
<missing-glyph horiz-adv-x="1288" 
d="M367 1239v-1044l348 522zM428 102h696l-348 523zM838 717l348 -522v1044zM776 809l348 522h-696zM264 0v1434h1024v-1434h-1024z" />
    <glyph glyph-name="fi" unicode="fi" horiz-adv-x="1183" 
d="M1077 748q-37 0 -59 26t-23 74q1 49 59 97t120 48q29 0 48 -18t19 -45q0 -63 -50 -123q-51 -59 -114 -59zM972 707q85 0 85 -58q-1 -69 -101 -177t-188 -167q-25 -129 109 -129q70 0 156 60q30 20 77 58t64 50l18 -78q-94 -115 -209 -206t-209 -91t-140 77t-46 167
q0 10 2 12l-4 4q-100 -92 -191 -135q6 -31 2 -112q-12 -168 -168 -321t-284 -171q-43 -6 -73 43q-48 78 -48 195t81 287q14 33 62 130q-59 63 -59 117q0 27 6 42l9 22q3 8 13 16t14 13q3 5 16 13q14 8 18 10q4 3 20 11q98 49 156 119q57 70 102 153q217 401 306 503t126 102
q49 0 49 -90q-1 -56 -35 -146t-71 -141l-383 -535q38 -24 53 -50q14 -26 22 -39q8 -14 31 -72l254 157q45 139 159 248t199 109zM45 -342q99 66 157 176t44 221q-88 -6 -148 17q-84 -140 -94 -228t41 -186z" />
    <glyph glyph-name="fl" unicode="fl" horiz-adv-x="1204" 
d="M803 578q102 96 190 224t121 222l-2 -2l-4 4q-166 -135 -309 -444zM-95 15q14 33 62 130q-59 63 -59 117q0 27 6 42l9 22q3 8 13 16t14 13q3 5 16 13q14 8 18 10q4 3 20 11q98 49 156 119q57 70 102 153q217 401 306 503t126 102q49 0 49 -90q-1 -56 -35 -146t-71 -141
l-383 -535q38 -24 53 -50q14 -26 22 -39q8 -14 31 -72l201 126q17 141 77 283t148 254q138 174 266 294t175 120q23 0 33 -25q24 -59 -20 -217q-43 -158 -219 -362q-103 -121 -265 -277q-31 -59 -15 -141q35 -88 103 -88q125 0 352 205l29 -62q-108 -111 -197 -187
q-161 -138 -285 -136q-166 0 -182 227q-84 -74 -166 -113q6 -31 2 -112q-12 -168 -168 -321t-284 -171q-43 -6 -73 43q-48 78 -48 195t81 287zM45 -342q99 66 157 176t44 221q-88 -6 -148 17q-84 -140 -94 -228t41 -186z" />
    <glyph glyph-name=".notdef" horiz-adv-x="1288" 
d="M367 1239v-1044l348 522zM428 102h696l-348 523zM838 717l348 -522v1044zM776 809l348 522h-696zM264 0v1434h1024v-1434h-1024z" />
    <glyph glyph-name=".null" horiz-adv-x="0" 
 />
    <glyph glyph-name="nonmarkingreturn" horiz-adv-x="681" 
 />
    <glyph glyph-name="space" unicode=" " horiz-adv-x="696" 
 />
    <glyph glyph-name="exclam" unicode="!" horiz-adv-x="802" 
d="M709 1411q19 0 51 -9t46 -12q64 -15 64 -44t-59 -148l-367 -715q23 -47 -2 -86q-26 -39 -59 -39t-76 38t-43 73q1 35 62 178l299 684q25 63 53 75q12 6 31 5zM256 -23q-41 0 -76 30q-35 31 -35 85t35 144t86 90t88 -39t37 -101t-36 -135q-36 -74 -99 -74z" />
    <glyph glyph-name="quotedbl" unicode="&#x22;" horiz-adv-x="681" 
d="M516 1458q88 0 88 -121q0 -45 -39 -463q-6 -63 -49 -63t-49 63q-39 418 -39 463q0 121 88 121zM166 1458q88 0 88 -121q0 -45 -39 -463q-6 -63 -49 -63t-49 63q-39 418 -39 463q0 121 88 121z" />
    <glyph glyph-name="numbersign" unicode="#" horiz-adv-x="1153" 
d="M487 514h250l123 285h-250zM272 0h-131l162 385h-194l30 129h219l121 285h-211l33 129h229l162 379h131l-161 -379h249l160 379h133l-160 -379h195l-33 -129h-215l-121 -285h207l-33 -129h-227l-164 -385h-131l162 385h-250z" />
    <glyph glyph-name="dollar" unicode="$" 
d="M1014 1659q71 0 71 -77q1 -36 -43 -89t-64 -87t-46 -108l190 13q117 8 225 -32q16 -7 13 -32q-12 -111 -44 -151t-131 -74q-99 -35 -147 -71t-74 -36t-26 23q8 25 40 48q32 24 42 32t32 22t33 25l-4 4l-247 -33l-89 -309q17 -6 63 -20q160 -48 225 -99q65 -46 66 -118
t-47 -142q-117 -170 -460 -258l-47 -270q-8 2 -42 9q-110 23 -112 79q0 29 11 78t12 63q-86 -6 -242 -2q-233 4 -242 103q-2 36 45 102t105 65l393 5l76 307q-61 12 -135 22t-139 35t-64 111q0 39 26 121t46 116q74 129 462 234q0 11 37 102q37 90 48 110t30 53q18 34 36 51
t48 46q31 29 70 29zM713 592l-66 -248q6 2 32 10t46 16t51 18q107 38 129 67q36 47 -23 80q-38 19 -100 37t-69 20zM582 764l71 235q-51 -10 -156 -65t-106 -90q1 -49 191 -80z" />
    <glyph glyph-name="percent" unicode="%" horiz-adv-x="1316" 
d="M209 53q0 109 211 365l416 500q223 268 489 444q17 -80 -23 -160t-207 -255t-349 -403t-273 -374q-92 -146 -99 -166q-7 -22 -9 -28q-15 -46 -55 -46t-70 40t-31 83zM901 219q0 -16 6 -39t11 -22q90 -14 198 133t109 209q1 24 -25 24t-50 -22t-39 -20q-15 0 -38 18
q-68 -43 -120 -125t-52 -156zM1327 469q0 -151 -124 -317t-269 -166q-82 0 -132 74t-50 159q0 177 146 317t271 154q25 4 50 -18q45 -39 4 -80q104 -2 104 -123zM328 948q0 -16 6 -39t10 -22q90 -14 199 133t108 209q1 25 -25 25t-50 -22t-38 -22q-15 0 -38 19
q-68 -43 -120 -125t-52 -156zM360 715q-82 -1 -132 73t-50 160q0 176 146 316t272 155q26 5 50 -17q45 -39 3 -81q104 -2 105 -123q0 -152 -124 -318t-270 -165z" />
    <glyph glyph-name="ampersand" unicode="&#x26;" horiz-adv-x="1191" 
d="M1190 617q0 -42 -28 -90q-28 -47 -52 -71t-83 -75q-60 -51 -66 -57q14 -55 63 -56q12 0 32 8t29 8q11 0 21 -12t10 -24q0 -49 -70 -150q-71 -100 -114 -100t-102 63t-82 86q-4 -3 -78 -47q-225 -135 -362 -135q-138 0 -235 93t-83 229q27 303 303 452q51 29 89 49t41 23
q3 2 8 4t9 4q-18 119 31 230t136 185t195 121q108 46 197 50t151 -53t62 -135q0 -158 -184 -269l-305 -178q20 -133 100 -254l328 260q39 -117 39 -159zM600 371l-115 260q-78 -33 -182 -143t-106 -179q-1 -37 111 -37t292 99zM1032 1278q0 29 -35 25q-175 -33 -241 -179
q-34 -71 -60 -172q336 205 336 326z" />
    <glyph glyph-name="quotesingle" unicode="'" horiz-adv-x="454" 
d="M227 1458q88 0 88 -121q0 -45 -39 -463q-6 -63 -49 -63t-49 63q-39 418 -39 463q0 121 88 121z" />
    <glyph glyph-name="parenleft" unicode="(" horiz-adv-x="667" 
d="M739 1446q74 0 74 -78q0 -37 -45 -98q-166 -232 -301 -584t-135 -606q0 -59 16 -178q8 4 21 4q31 0 31 -70t-38 -116q-37 -46 -92 -46q-170 0 -170 428t377 1084q67 112 137 186t125 74z" />
    <glyph glyph-name="parenright" unicode=")" horiz-adv-x="667" 
d="M109 -326q-74 0 -74 78q0 37 45 98q166 232 301 584t135 606q0 59 -16 179q-8 -4 -21 -5q-31 0 -31 70t37 116t93 46q170 0 170 -428t-377 -1084q-66 -112 -137 -186t-125 -74z" />
    <glyph glyph-name="asterisk" unicode="*" horiz-adv-x="1122" 
d="M999 736q-1 -18 -23 -66q-22 -49 -26 -62l-252 219l-18 -344q-16 5 -54 15t-49 17q-36 23 -36 70q0 48 26 244l-194 -133q-6 -4 -32 -24t-50 -21q-23 0 -39 23q-16 22 -16 62t50 85t135 90t101 58q-68 63 -121 93t-65 38q-33 26 -33 97t53 71q45 0 94 -52q32 -34 76 -71
q43 -37 62 -55l4 147v21q0 55 22 77q59 66 87 66q55 0 57 -51q0 -18 -8 -39t-19 -119l-12 -111q190 113 260 113q23 0 35 -12t29 -39t40 -47l-319 -148l182 -143q4 -4 16 -14q12 -9 24 -23q13 -14 13 -32z" />
    <glyph glyph-name="plus" unicode="+" horiz-adv-x="1314" 
d="M1217 471h-402v-448h-129v448h-403v123h403v412h129v-412h402v-123z" />
    <glyph glyph-name="comma" unicode="," horiz-adv-x="616" 
d="M303 287q105 0 105 -43t-34 -121t-60 -109q-78 -93 -104 -107q-26 -13 -38 -21q-13 -8 -31 -9h-41q68 90 93 139q-78 23 -78 79t61 124t127 68z" />
    <glyph glyph-name="hyphen" unicode="-" horiz-adv-x="655" 
d="M0 655h614v-180h-614v180z" />
    <glyph glyph-name="period" unicode="." horiz-adv-x="616" 
d="M420 232q0 -14 -16 -69t-61 -117q-44 -62 -91 -57t-70 10q-22 5 -46 25t-23 52q0 68 63 152t143 67q4 0 22 -3q79 -13 79 -60z" />
    <glyph glyph-name="slash" unicode="/" horiz-adv-x="946" 
d="M203 -190q-57 0 -95 40t-38 100q0 58 53 194t219 420t205 345q274 461 522 664q19 -66 19 -115t-74 -172l-406 -659q-158 -257 -226 -405t-140 -367q-14 -45 -39 -45z" />
    <glyph glyph-name="zero" unicode="0" 
d="M1092 938q0 41 -20 81t-54 40q-35 0 -80 -38t-51 -38q-20 0 -21 37q-258 -145 -395 -340q-187 -266 -135 -471q14 -55 51 -55q43 0 121 42t119 78l200 185q88 98 177 243q88 145 88 236zM1241 938q-1 -147 -65 -311q-141 -359 -445 -544q-162 -97 -340 -110
q-133 -10 -216 98t-83 259t86 327q86 175 214 317t324 250t302 107q60 0 122 -53t62 -90q0 -12 -30 -22t-33 -15q102 -33 102 -213z" />
    <glyph glyph-name="one" unicode="1" 
d="M518 -70q-12 0 -34 14t-64 32q-44 18 -60 30t-33 41t-17 83t48 192q49 137 95 213q154 256 374 544l-4 4l-194 -73q-41 -20 -56 -21q-25 0 -16 47q0 37 26 60q7 6 11 12t28 18t29 17q305 176 349 176t72 -55q30 -55 30 -92t-35 -102t-281 -480t-245 -559l6 -72
q0 -29 -29 -29z" />
    <glyph glyph-name="two" unicode="2" 
d="M285 842q0 68 37 153q37 86 77 131q82 92 276 146t351 53q63 0 101 -11t70 -44q58 -60 58 -269q0 -43 -4 -67q-5 -24 -29 -69q-24 -46 -75 -88q-135 -111 -431 -269t-466 -291l4 -4l797 139q-57 -162 -90 -213q-66 -92 -183 -114q-238 -45 -404 -53t-208 26
q-41 34 -65 100q-23 66 -23 112q1 79 81 159q137 136 387 277q137 78 199 112q62 33 72 39q289 158 289 268q0 27 -25 40t-57 13q-154 0 -427 -135q-111 -54 -122 -57v-4l121 -15q78 0 78 -43q0 -33 -51 -37l-222 -43l-69 -10q-47 0 -47 68z" />
    <glyph glyph-name="three" unicode="3" 
d="M905 457q0 113 -381 121q-92 0 -154 -12t-87 -13q-37 0 -31 43q14 100 64 152t144 60q271 20 545 123q153 58 152 122q0 84 -212 84t-439 -86v-4l43 -9q76 -12 76 -34q0 -39 -228 -39q-49 -1 -77 29t-27 74q0 84 69 125q195 123 512 123q317 1 396 -116q37 -54 37 -124
t-36 -130t-87 -94q-82 -51 -244 -84l-309 -68v-4q8 -2 115 -20t140 -35q99 -53 117 -80q47 -67 51 -130q9 -130 -172 -280q-87 -73 -240 -122q-152 -49 -308 -49t-245 30t-121 67q-32 35 -32 71t71 116t105 80t33 -25q0 -14 -47 -61q118 -47 228 -47t258 47t234 104
q87 57 87 95z" />
    <glyph glyph-name="four" unicode="4" 
d="M500 49q0 52 18 136q18 83 23 114q-45 -2 -122 -7t-149 -7q-114 -3 -133 37q-61 116 -61 184t79 170t160 172q187 162 487 316t402 153q30 0 54 -14t24 -42t-43 -65q55 -27 41 -92q-6 -59 -53 -119q-139 -172 -291 -412l156 11q76 0 75 -52q0 -39 -44 -106
q-44 -68 -48 -76l-287 -35q-34 -121 -34 -157t41 -97q-14 -6 -117 -61t-129 -53q-49 0 -49 102zM668 557l491 594l-4 4q-353 -162 -597 -349q-134 -104 -180 -156t-63 -89q0 -18 76 -20q91 -7 277 16z" />
    <glyph glyph-name="five" unicode="5" 
d="M711 1322q11 3 167 3h447q-102 -184 -129 -215q-47 -53 -141 -59h-54l-348 4q-104 -84 -174 -209q164 43 295 43t228 -72q98 -72 98 -204t-74 -255q-100 -168 -311 -273t-506 -105q-76 0 -118 8q-72 14 -88 84q-5 28 -5 90t77 118t149 80t100 23q28 0 28 -23
q0 -16 -43 -45l-125 -86l4 -4q336 37 549 159t213 220q0 38 -49 58t-119 20q-89 0 -233 -33t-170 -34q-27 -1 -66 57t-41 162q1 80 101 184l211 225q31 35 49 45t26 16q9 6 25 11q16 4 27 7z" />
    <glyph glyph-name="six" unicode="6" 
d="M819 729q-90 0 -317 -199q-52 -47 -72 -67q-46 -48 -47 -169q0 -122 51 -114q133 23 287 163t158 308q-1 50 -17 64t-43 14zM152 391q0 127 63 259t169 244q196 208 439 357q78 47 115 59t79 13h54q11 0 25 1q120 9 125 -28q0 -25 -43 -43q-164 -76 -322 -213l-281 -243
l5 -4q19 8 100 46t160 40q110 0 178 -80t68 -195q0 -116 -72 -236q-124 -212 -358 -341q-95 -53 -148 -54q-104 0 -230 122t-126 296z" />
    <glyph glyph-name="seven" unicode="7" 
d="M302 936q-14 0 -31 13t-17 37t58 104t104 128t195 77q148 30 495 30q86 0 108 -30t38 -86q18 -56 18 -89t-103 -114q-217 -184 -363 -394t-218 -487q27 10 48 10t23 -20q5 -25 -115 -101q-203 -129 -261 -43q-25 37 -25 95q0 163 291 532l434 455q-80 6 -159 1t-125 -3
q-46 1 -95 -9t-83 -13t-62 -19q-29 -15 -53 -28q-24 -14 -56 -30t-46 -16z" />
    <glyph glyph-name="eight" unicode="8" 
d="M435 1137q174 172 601 200q170 6 260 -24q33 -8 33 -47q0 -38 -48 -112q-49 -74 -69 -90t-57 -7q8 -37 -2 -57t-63 -68l-340 -303q98 -121 102 -297q0 -114 -87 -215q-49 -57 -149 -97t-210 -48q-110 -7 -187 39q-78 46 -78 135t93 190q93 102 183 180q89 78 99 88
q-4 6 -26 33t-27 35q-7 8 -25 32t-24 35q-6 12 -31 54q-33 54 -33 157t85 187zM391 121q102 0 192 55q89 55 89 150q0 68 -68 166l-172 -158q-111 -100 -110 -170q0 -31 16 -37t53 -6zM557 913q0 -31 37 -90t76 -98l395 340l-158 12q-160 12 -255 -40t-95 -124z" />
    <glyph glyph-name="nine" unicode="9" 
d="M994 936q-24 0 -23 25q0 16 106 106l-4 4q-338 -86 -498 -209t-159 -237q0 -33 33 -33q109 0 275 85t269 173q109 86 141 86t74 -14t41 -44q0 -30 -67 -104l-539 -633q-88 -102 -148 -144t-126 -48q-45 -4 -45 37q0 19 40 83t44 70l13 18q19 23 73 23l387 461l-4 4
q-93 -67 -221 -135t-192 -68t-160 98t-95 217q0 120 135 256t335 225t372 87q55 -2 128 -84t73 -121t-78 -88q-34 -17 -39 -22l-76 -47q-41 -27 -65 -27z" />
    <glyph glyph-name="colon" unicode=":" horiz-adv-x="616" 
d="M342 561q0 68 64 152t143 67q31 0 59 -12t34 -24q7 -12 7 -27t-16 -69q-17 -54 -61 -116t-91 -58q-47 5 -69 10q-22 4 -46 24t-24 53zM98 76q0 68 64 152t143 67q35 -1 61 -13t32 -24q8 -12 8 -26t-16 -69q-16 -54 -61 -117q-45 -62 -92 -57t-69 10t-46 25t-24 52z" />
    <glyph glyph-name="semicolon" unicode=";" horiz-adv-x="616" 
d="M344 563q0 68 64 152t143 67q31 0 58 -12q28 -12 35 -24t7 -27t-16 -69q-17 -54 -61 -116t-91 -58q-47 5 -69 10q-22 4 -46 24t-24 53zM113 88q0 63 61 131t127 68q105 0 105 -43t-34 -121t-60 -109q-78 -93 -104 -107q-26 -13 -38 -21q-13 -8 -31 -9h-41q68 90 92 139
q-45 13 -64 34q-13 15 -13 38z" />
    <glyph glyph-name="less" unicode="&#x3c;" horiz-adv-x="1327" 
d="M1225 8l-922 461v125l922 459v-138l-795 -380v-5l795 -385v-137z" />
    <glyph glyph-name="equal" unicode="=" horiz-adv-x="1263" 
d="M1165 264h-932v123h932v-123zM1165 680h-932v123h932v-123z" />
    <glyph glyph-name="greater" unicode="&#x3e;" horiz-adv-x="1327" 
d="M303 1053l922 -459v-127l-920 -459v137l793 383v4l-795 383v138z" />
    <glyph glyph-name="question" unicode="?" horiz-adv-x="956" 
d="M356 -23q-42 0 -76 30q-34 31 -34 85t35 144t86 90t88 -39t37 -101t-36 -135q-36 -74 -100 -74zM915 1114q0 55 -44 69q-44 13 -127 13q-82 0 -146 -24t-139 -52l20 -8q61 -23 62 -49q0 -37 -43 -37q-6 0 -37 6l-80 12h-21q-77 0 -77 54q0 29 18 83t35 83q39 63 183 101
t258 38t177 -49t64 -168q0 -186 -144 -357l-266 -315q-6 -8 -19 -21t-23 -27t-11 -44l12 -55q0 -47 -45 -48q-47 -1 -82 49t-34 99q0 115 147 254l235 217q4 4 56 51t61 73q10 27 10 52z" />
    <glyph glyph-name="at" unicode="@" horiz-adv-x="1626" 
d="M1010 727q-119 0 -232 -95t-145 -226q-15 -68 7 -112t92 -44t159 81q88 81 131 173l94 207q-49 16 -106 16zM635 -229q-305 0 -441 178t-62 476t345 519q272 221 623 221q307 0 439 -170t75 -401t-208 -357t-308 -126q-72 0 -108 47t-17 133h-6q-156 -180 -336 -180
q-98 0 -147 71q-48 72 -17 193q47 197 218 332t378 135q145 0 235 -47l-159 -359q-92 -211 12 -215q86 0 189 89t147 259q53 219 -60 359t-363 141q-250 0 -496 -184q-245 -185 -311 -451t56 -415q123 -148 367 -148q184 0 336 76l10 -92q-182 -84 -391 -84z" />
    <glyph glyph-name="A" unicode="A" horiz-adv-x="1595" 
d="M-78 -117q-72 0 -72 45q0 59 109 172t242 160l159 176q-98 -8 -148 -1t-50 42t92 128t162 117t129 30t65 -15q0 -18 -74 -27q-74 -10 -75 -28q0 -18 28 -18q98 6 125 6l459 381q426 352 539 352q31 0 51 -29q20 -30 20 -62t-63 -147l-254 -444q86 0 92 4q12 8 96 -12
q-72 -84 -153 -234l-164 -8l-129 -252q0 -33 37 -33q23 0 37 10t24 15q10 6 33 23q22 18 45 34t41 31l37 -53q-264 -264 -418 -264q-51 0 -78 34t-26 88l-2 15q0 49 151 332l-446 -15l-420 -418q-1 -2 -19 -19t-33 -33t-61 -50q-47 -33 -88 -33zM1141 713l278 467l-4 4
l-592 -490l4 -4z" />
    <glyph glyph-name="B" unicode="B" horiz-adv-x="1454" 
d="M430 322q0 -57 78 -85t149 -28q137 2 301 79t164 138q0 68 -190 102t-316 35l-114 -125q-72 -78 -72 -116zM1354 406q0 -108 -193 -248q-92 -68 -254 -119t-356 -62q-117 -8 -230 40q-54 24 -89 73q-34 48 -34 102t7 76q15 56 221 326q-136 7 -170 39q-18 16 -18 41
q0 68 237 95q98 11 111 15q10 10 77 78t93 88t82 62q97 72 221 73q-23 -53 -199 -260q355 49 502 162q70 55 65 96q-2 27 -23 51q-22 24 -92 41q-233 56 -757 -135q29 -14 29 -30q0 -35 -83 -48t-201 -52t-138 -40q-51 0 -51 56q0 14 25 65q26 51 69 107q100 135 172 162
q155 59 397 107t397 48q240 0 338 -74q99 -74 99 -181t-83 -182q-42 -38 -85 -70t-154 -73t-202 -62t-130 -31q-40 -10 -116 -23q-76 -14 -90 -17l-41 -36q9 -2 117 -18t178 -32q234 -55 303 -115q49 -43 49 -95z" />
    <glyph glyph-name="C" unicode="C" horiz-adv-x="1464" 
d="M969 862q35 0 20 -47l4 -4q141 123 235 247q93 124 93 178t-55 40q-21 0 -78 -20q-125 -43 -267 -155q-195 -158 -384 -380q-109 -127 -179 -281t-69 -270q0 -231 217 -231q172 -1 438 165t465 342q4 -93 -40 -141q-17 -20 -64 -65q-273 -266 -519 -387t-416 -121
t-280 101q-108 101 -108 291t137 410t317 391t436 336t420 164q94 0 150 -50t60 -146q5 -95 -79 -239q-85 -144 -205 -269t-257 -220t-232 -110q-45 -6 -80 23t-35 75q1 76 99 160l151 133q80 80 105 80z" />
    <glyph glyph-name="D" unicode="D" horiz-adv-x="1646" 
d="M426 1018h55q111 0 111 -23q0 -31 -64 -37q-36 -6 -160 -43t-180 -36q-78 0 -77 71q0 20 23 119q24 99 70 141t130 80q145 64 341 104t355 40q319 0 490 -109q106 -71 160 -193t55 -260q1 -204 -139 -376t-328 -278t-432 -173q-244 -68 -406 -68t-206 24t-44 101
q0 76 35 156t68 127t94 123l489 610q-252 -25 -440 -96v-4zM1585 846q0 178 -219 230q-110 26 -174 34t-178 14l-23 2h-10q-25 -94 -68 -151l-452 -590q-68 -88 -43 -139q23 -35 117 -37q205 -2 489 96q284 99 422 245q139 146 139 296z" />
    <glyph glyph-name="E" unicode="E" horiz-adv-x="1437" 
d="M1110 987q0 35 141 146q-379 6 -633 -141q-131 -75 -120 -126q6 -31 37 -43q106 -45 614 -35q137 0 137 -45q0 -27 -26 -71t-55 -67t-201 -51t-323 -83t-235 -115q-172 -122 -172 -190q0 -59 172 -66q213 -12 484 72q111 34 244 116t167 101q9 -121 -13 -189
q-45 -144 -348 -280q-212 -96 -513 -92q-125 2 -281 45q-61 16 -102 90t-41 136t40 129q168 281 744 425v6q-337 12 -449 78t-112 158q0 139 149 267q283 247 824 247q260 0 289 -61l4 -86q4 -88 -11 -112t-103 -51t-179 -79q-92 -52 -102 -54t-19 6q-8 7 -8 15z" />
    <glyph glyph-name="F" unicode="F" horiz-adv-x="1423" 
d="M283 -260q0 31 42 92t83 105q82 94 213 129l239 253l-305 -24q-20 -2 -61 3t-43 24q-14 98 53 141q102 66 276 98l314 60q66 85 150 245t83 228q0 32 -32 38q-9 1 -54 1t-149 -17q-395 -66 -689 -192l5 -4l106 2q39 0 39 -18t-61 -36l-238 -73q-124 -38 -149 -13
q-9 10 -9 41t61 146q60 115 97 157q37 47 94 79t95 42t120 29q563 129 811 129q211 0 211 -109q0 -100 -114 -324t-207 -364l137 -22l-82 -131q-35 -55 -55 -66q-47 -19 -168 -39l-351 -368q-80 -84 -216 -193t-197 -108q-20 0 -35 14q-14 14 -14 45z" />
    <glyph glyph-name="G" unicode="G" horiz-adv-x="1427" 
d="M1087 944q-27 0 -26 29q0 20 55 59l86 70l-4 4q-214 -63 -408 -183q-326 -202 -490 -458q-65 -100 -56 -141q18 -78 72 -78t139 63l749 570q27 27 47 27t76 -36q51 -29 51 -55q0 -14 -41 -98t-179 -296t-183 -282l4 -4l451 291q-4 -70 -21 -96q-37 -55 -248 -199
l-330 -223q-90 -123 -265 -287t-267 -164q-72 0 -76 93t109 214t268 197q227 291 328 506l-4 4l-228 -166q-17 -12 -55 -40q-188 -145 -308 -168q-22 -3 -40 -1q-115 12 -172 92t-57 199t75 264q76 145 176 248q145 161 424 313t654 195q53 6 87 -40t33 -126q0 -55 -83 -111
q-287 -186 -343 -186z" />
    <glyph glyph-name="H" unicode="H" horiz-adv-x="1845" 
d="M131 852q0 47 22 119t48 106q80 90 532 234q133 43 305 73t294 31q122 0 174 -57t52 -128q0 -140 -170 -316q-30 -32 -34 -37l-232 -246l316 37l370 465q111 147 154 147q35 0 35 -50t-29 -102t-139 -188l-221 -272h27q24 0 30 -1t28 -2q21 -1 29 -2t28 -3t30 -4
q10 -3 45 -12t61 -28q-150 -117 -246 -274q-96 23 -208 14q-4 -8 -56 -85t-51 -126q0 -16 23 -122q-33 8 -115 -34t-109 -34q-109 38 82 401l-377 -49l-213 -250q-2 -4 -16 -24l-22 -33q-64 -100 -148 -33q-33 27 -33 61t83 137t91 118q-209 -18 -209 84q0 39 38 97t77 58
l47 -14q6 0 45 12t291 62q125 123 406 440q86 92 86 139t-72 47q-184 0 -702 -215q29 -12 28 -30q0 -33 -54 -51q-116 -40 -156 -63q-161 -92 -203 -91q-62 0 -62 94z" />
    <glyph glyph-name="I" unicode="I" horiz-adv-x="1009" 
d="M506 784q18 0 18 -20t-17 -35t-52 -40t-54 -40q-78 -61 -111 -61q-34 0 -111 56t-73 95q14 150 158 312t336 265q193 103 348 103q98 0 151 -64q52 -65 52 -175t-98 -326q-97 -215 -195 -373t-203 -309q25 -61 -35 -146t-104 -89q-44 -5 -85 27q-40 32 -40 67t35 82
q252 363 398 635t147 356q1 32 -13 58t-43 26q-94 -12 -278 -148t-260 -278l51 10q68 12 78 12z" />
    <glyph glyph-name="J" unicode="J" horiz-adv-x="1114" 
d="M12 -510q-36 0 -58 31t-22 65q0 264 627 633l293 492q158 266 192 528q-227 -78 -402 -289t-220 -450q133 82 145 82t13 -18t-49 -70q-49 -52 -53 -55t-24 -27q-123 -144 -204 -144q-80 0 -80 154q0 188 143 457q76 143 188 254q113 111 223 170q221 118 353 116
q53 0 101 -47t47 -84q0 -118 -86 -326t-338 -632l4 -4l237 104l27 -65l-362 -172l-416 -482q-190 -221 -279 -221z" />
    <glyph glyph-name="K" unicode="K" horiz-adv-x="1720" 
d="M209 829q-63 0 -64 62q0 47 52 192q6 21 13 35t11 24q3 10 17 20q14 12 17 16t25 19t29 22l113 84q82 56 84 8v-2q0 -9 -12 -23t-82 -74l4 -4q14 4 110 43t176 68t205 59t193 33q68 4 84 -1t24 -13q8 -9 48 -59t40 -86t-51 -111l-104 -152l4 -4l653 309q104 47 123 47
q39 0 39 -38q0 -17 -35 -73t-100 -105q-66 -48 -129 -29l-752 -375q-47 -33 -47 -76q0 -35 60 -67q33 -17 34 -19l518 -301q57 -33 93 -59q36 -27 66 -73t30 -101q0 -100 -51 -101q-27 0 -103 45l-809 445l-164 -197q2 -70 -91 -154q-93 -83 -153 -83q-61 0 -61 41t43 96
l305 393q-35 49 -34 86q0 92 129 160l217 112l198 312q-298 -71 -512 -172q-74 -35 -286 -140q-78 -39 -117 -39z" />
    <glyph glyph-name="L" unicode="L" horiz-adv-x="1433" 
d="M1522 1304q0 -85 -91 -250q-32 -56 -81 -138t-62 -103q37 -4 37 -29q0 -37 -115 -118q-4 -4 -26 -20t-48 -36q-26 -19 -60 -35t-44 -16q-47 0 -47 62q0 178 275 487q25 29 10 37q-2 2 -6 2q-43 0 -342 -342l-410 -469q498 -96 823 -174q-108 -109 -142 -144
q-34 -34 -72 -54t-54 -19q-96 0 -171 16t-194 41q-302 65 -546 57l-45 -20q-14 -5 -68 -27t-105 -22q-52 0 -52 41t58 119q59 77 68 86q37 51 74 59t127 19t127 18l596 708q86 102 249 248t234 146q49 0 76 -41t27 -89z" />
    <glyph glyph-name="M" unicode="M" horiz-adv-x="2340" 
d="M1761 1257q0 -147 -305 -583l4 -4q86 74 321 285t435 368q63 63 111 65q32 1 83 -69q52 -70 52 -105t-88 -145l-318 -387q-236 -287 -235 -465q0 -37 19 -69t60 -32t168 89q127 88 318 272l8 -78q-39 -111 -289 -300t-376 -189q-94 0 -138 73q-43 73 -43 149
q0 134 58 251q32 65 54 107t76 118t70 101t80 105t66 83l-4 4q-166 -141 -230 -196q-209 -181 -350 -350q-82 -97 -204 -251t-177 -154t-83 73q-28 71 -28 129t82 167l140 183q227 299 332 499q32 62 24 75q-25 40 -84 -29l-491 -533l-308 -414q-2 -2 -22 -30
q-19 -28 -29 -38l-21 -20q-84 -76 -151 6q-12 16 -26 48t-22 48q-7 17 -17 49t-13 38l428 540q238 426 144 426q-20 0 -242 -109t-308 -159q-87 -50 -104 -52q-18 -3 -46 -3t-43 20t-7 56q43 229 53 240t11 15q6 10 23 22l21 15q13 10 30 24t43 32t61 45t51 26q25 0 25 -20
q0 -25 -109 -119l4 -4l232 107q2 0 42 18q87 39 195 84t150 43t59 -35q2 -4 9 -16t9 -17l50 -86q25 -44 25 -80t-62 -187q-61 -151 -66 -167l4 -4l326 315q238 225 334 228q45 2 97 -34t52 -108z" />
    <glyph glyph-name="N" unicode="N" horiz-adv-x="1712" 
d="M1767 504q9 -82 9 -96t-23 -43q-199 -258 -357 -375t-236 -117q-76 0 -110 52t-34 126q-1 135 110 340l349 641l-5 4q-319 -303 -487 -493q-39 -45 -385 -508q-41 -57 -72 -57t-93 48t-62 80q0 10 20 46q97 150 287 502t190 425q0 43 -32 43q-127 0 -639 -338
q-35 -27 -62 -26q-37 0 -37 88t57 184q94 160 268 282q67 46 91 46t23 -17q0 -25 -111 -131l4 -4q120 66 184 100t186 78t189 46q67 0 107 -31t34 -84q-8 -115 -70 -244t-286 -520l4 -4q492 592 619 678q12 8 59 41q47 32 109 74t95 42q34 0 100 -64t67 -125q0 -60 -70 -168
q-69 -108 -189 -285t-192 -319t-71 -183q0 -84 53 -84t197 133t212 217z" />
    <glyph glyph-name="O" unicode="O" horiz-adv-x="1308" 
d="M279 272q0 -133 108 -133q82 0 196 50t183 110q199 170 315 343q117 173 121 290q2 40 -20 70t-60 30q-128 0 -288 -100t-236 -215q-42 -55 -64 -55t-28 57q-227 -227 -227 -447zM1323 1241q0 -37 -100 -70q-33 -12 -90 -45l2 -2q117 33 184 -18q59 -49 63 -162
q4 -201 -132 -425t-362 -378t-452 -151q-132 0 -242 95t-122 323q-8 158 100 334q200 327 619 546q186 98 333 119q63 11 131 -59t68 -107z" />
    <glyph glyph-name="P" unicode="P" horiz-adv-x="1519" 
d="M868 723q0 -17 -44 -31t-97 -24t-65 -19l-46 -67q100 -27 226 -20q126 8 256 60t212 122q81 70 125 141q44 72 35 121q-10 57 -122 93q-173 56 -379 56q-2 -66 -45 -125l-215 -297q25 0 71 6t68 4q20 -2 20 -20zM389 166q0 -27 -104 -168q-70 -96 -121 -96q-70 0 -70 73
t146 317q45 75 49 83q-92 57 -92 131q0 53 55 92q55 38 101 54q46 14 68 22q21 8 59 19t44 14l326 430q-158 -2 -320 -37t-264 -68t-128 -33t-25 21q0 43 151 252q35 49 156 84q250 72 551 71q372 0 516 -114q73 -57 103 -130t30 -173q0 -215 -159 -382t-432 -246t-595 -42
l-84 -139q39 -8 39 -35z" />
    <glyph glyph-name="Q" unicode="Q" horiz-adv-x="1398" 
d="M721 854q0 -27 -41 -35q-160 -31 -324 -114q-57 -27 -75 -1t-19 148q-9 131 19 168q82 109 424 250t538 141q109 0 181 -73t73 -185q0 -173 -234 -396q-44 -42 -111 -95t-137 -108t-212 -147q-143 -91 -178 -114q467 -92 569 -92q38 0 104 12t78 14q-41 -131 -112 -258
q-23 -41 -98 -46t-220 20l-684 106q-6 -3 -37 -25q-90 -62 -138 -63q-48 0 -48 45q0 78 42 168q59 127 132 142q25 5 43 6l121 -5q438 231 689 471t251 347q0 45 -83 45t-311 -84t-399 -207v-4l87 2l59 2q47 0 50 -21q1 -6 1 -14z" />
    <glyph glyph-name="R" unicode="R" horiz-adv-x="1648" 
d="M143 -98q-47 0 -47 56q0 32 35 87l191 313q-58 17 -80 37t-19 39q13 86 97 146t219 65l303 438q-293 -49 -441 -106v-4q18 -2 56 -4q107 -5 113 -22q1 -3 1 -9q0 -23 -39 -23l-159 -16q-18 -2 -79 -11t-123 -9q-63 0 -62 49q0 47 35 126q36 79 69 122q73 88 359 156
t593 67q588 0 588 -281q0 -80 -44 -180t-120 -161t-154 -85q-79 -24 -117 -34t-123 -27t-149 -29t-202 -37q-137 -25 -246 -45v-4l553 -176q178 -57 284 -114q54 -27 70 -68q33 -54 30 -140t-52 -86q-42 0 -141 44t-113 49l-758 280l-176 -256q16 -49 -43 -98t-109 -49z
M887 924l-152 -232l510 133q94 25 226 100t133 140q0 41 -102 54t-165 7l-379 -26q0 -36 -6 -54l-9 -27t-14 -29t-25 -41q-15 -21 -17 -25z" />
    <glyph glyph-name="S" unicode="S" horiz-adv-x="1458" 
d="M504 879q0 -15 1 -19t25 -18q60 -34 519 -142q147 -34 225 -106t78 -152q0 -118 -78 -206t-191 -138t-303 -89q-190 -40 -438 -40q-330 0 -330 119q0 31 38 93t67 89q18 14 85 37t87 23t20 -16q1 -16 -23 -32q-24 -14 -46 -36v-4q531 -21 812 118q68 35 94 61t26 40
q-3 81 -451 164q-59 10 -91 16q-64 12 -136 22q-197 28 -197 171q0 53 20 142t45 130q58 94 318 196t565 103q125 0 258 -29q33 -8 43 -21t10 -46q0 -106 -36 -151q-37 -44 -118 -76t-111 -47t-91 -60q-37 -20 -51 -21q-33 0 -33 31q0 15 50 62t100 81l-4 5
q-404 -16 -641 -152q-117 -67 -117 -102z" />
    <glyph glyph-name="T" unicode="T" horiz-adv-x="1386" 
d="M119 924q0 20 10 78t14 84t7 33q2 7 6 27t7 25t10 21t13 21t16 17t24 18q12 6 28 16t37 18q297 135 766 135q281 0 369 -46q48 -22 85 -140q15 -45 23 -67t1 -49q-7 -26 -17 -43t-32 -48t-26 -37l-481 -729l4 -4q15 8 31 0t16 -37t-86 -137q-4 -4 -22 -30t-48 -59
q-70 -79 -112 -79q-43 0 -77 22t-34 64q0 199 510 850l205 262q-561 -10 -1036 -158v-4q34 0 86 -15q51 -15 64 -25t14 -21q0 -19 -20 -21t-68 4q-47 6 -76 7l-119 -3q-92 0 -92 50z" />
    <glyph glyph-name="U" unicode="U" horiz-adv-x="1789" 
d="M936 1077q0 20 -21 21q-3 0 -123 -50t-432 -204q-131 -66 -208 -66q-31 0 -44 9t-10 34q26 150 161 303q69 78 177 138t234 79q32 4 202 44t246 40q76 1 104 -79q41 -115 -27 -231q-26 -46 -132 -179q-95 -100 -283 -332t-188 -272q0 -41 48 -41t244 163t288 254t183 181
t142 142q242 247 293 269q16 8 29 9q41 0 63 -44t21 -87q8 -25 -46 -110t-344 -484q-184 -258 -184 -363q0 -35 23 -59q22 -24 54 -23q63 0 155 65t174 132q81 67 84 67q10 -57 10 -67q-1 -31 -107 -122t-248 -173t-220 -82t-122 45t-45 117q1 125 107 303l168 285l-4 4
q-762 -741 -869 -721q-193 33 -192 211q0 90 90 214q152 208 336 407t198 222q15 23 15 31z" />
    <glyph glyph-name="V" unicode="V" horiz-adv-x="1431" 
d="M584 784q0 -23 -75 -39q-127 -20 -301 -99q-46 -22 -58 -21q-45 0 -46 108q0 166 105 262q88 82 428 250t444 170q49 2 94 -63q44 -66 44 -99t-78 -153q-430 -686 -441 -826q-4 -45 10 -87q14 -43 47 -31q34 12 76 48t173 211t327 488q-10 61 35 151q46 90 106 151
q60 60 90 50q101 -34 -54 -340q-121 -237 -418 -628q-15 -15 -86 -112q-71 -98 -150 -170q-80 -72 -131 -75q-70 0 -152 88t-79 195q6 209 424 901l-5 4q-123 -59 -191 -93q-198 -100 -339 -222l4 -4l151 8q46 0 46 -23z" />
    <glyph glyph-name="W" unicode="W" horiz-adv-x="2002" 
d="M487 1366q0 -10 -10 -25l-57 -65l4 -4q97 39 148 54q51 14 105 32q143 47 267 47q123 0 166 -55q25 -33 44 -99q20 -65 20 -109t-22 -95t-156 -233t-390 -478q-51 -59 -2 -76q14 -6 120 85t310 297q205 206 430 462q8 8 40 49t56 67t62 50q95 61 140 -25q26 -49 26 -82
t-96 -165t-262 -406q-168 -274 -166 -354q-2 -14 8 -24t20 -7q150 70 348 290t328 498q-10 31 -10 78t63 128t90 81t41 -39t13 -69q-8 -213 -170 -497t-362 -486t-326 -220q-61 -8 -143 57q-81 65 -81 146q0 109 85 335q32 85 34 93l-4 4l-287 -309q-168 -180 -264 -256
q-95 -76 -159 -76t-129 96t-54 152q1 28 21 72q20 43 44 73t68 87q44 58 212 253q169 194 228 257q60 64 74 83t15 43q0 51 -76 51t-289 -85q-213 -87 -302 -141t-146 -54q-43 0 -46 69t56 197q31 70 123 131l141 111q23 22 41 22t18 -16z" />
    <glyph glyph-name="X" unicode="X" horiz-adv-x="1409" 
d="M836 168v37l16 311l-389 -366q-209 -199 -269 -199t-61 59q0 88 122 199t218 131l393 373l21 463q-33 -12 -113 -38q-309 -101 -459 -184v-4q33 -2 87 -4t58 -8q5 -6 5 -13q0 -16 -88 -39q-88 -22 -185 -55q-98 -33 -98 27q0 42 50 146t85 133q117 102 367 183t416 81
q100 0 124 -47t13 -154l-25 -254l334 314q70 63 98 63q37 0 37 -51t-58 -135t-118 -78l-309 -297l-41 -477q-10 -39 -4 -79t46 -40t82 22t101 62q59 41 66 45l37 -53q-78 -98 -217 -202t-232 -106q-57 0 -85 46t-26 102q1 57 1 86z" />
    <glyph glyph-name="Y" unicode="Y" horiz-adv-x="1519" 
d="M403 39q-53 0 -101 44t-40 93q0 57 43 128q108 186 322 433q223 267 247 309t24 56q1 14 -7 19t-21 7q-188 -94 -429 -224t-259 -144t-48 -12q-30 0 -36 19t13 81l30 110q16 53 43 83q88 97 492 273q244 105 375 105q59 1 101 -27t42 -77t-39 -116q-39 -68 -68 -105
q-29 -36 -39 -52t-40 -53l-29 -37q-91 -119 -173 -220q-151 -185 -189 -239q-37 -54 -38 -73q-1 -20 12 -30t40 -4q27 4 85 54t132 106t168 140t393 356q90 82 120 82q31 0 61 -43t30 -69t-10 -48q-12 -26 -129 -184t-290 -405q-173 -246 -198 -300t0 -57q13 0 27 8t121 73
q107 64 170 88q153 59 153 5q0 -22 -48 -66t-77 -60q-340 -256 -481 -422q-35 -42 -54 -62q-20 -20 -60 -48t-76 -28t-62 29q-25 29 -24 72q0 133 233 489t414 580l-4 4l-543 -469q-199 -172 -279 -172z" />
    <glyph glyph-name="Z" unicode="Z" horiz-adv-x="1318" 
d="M338 -258q0 -24 24 -25q104 1 329 187t278 342q-166 -82 -320 -197q-155 -115 -233 -199t-78 -108zM1200 1047q0 25 -24 39t-50 16q-150 0 -362 -92t-641 -338q8 219 64 332t211 202t357 146t351 57q326 0 326 -246q0 -216 -290 -367q-48 -26 -116 -61t-104 -55
q123 -23 184 -74t78 -166q70 23 106 26t40 -3q3 -6 3 -17v-2q-1 -22 -25 -38t-124 -54q-51 -270 -336 -522q-98 -88 -288 -190t-277 -103q-39 0 -106 44t-66 83q0 109 237 316q238 207 649 391q-1 50 -29 75t-60 33q-73 18 -216 -43l-213 -94q-106 -47 -146 -70
q-40 -24 -61 -24q-33 0 -32 28q0 29 38 129t78 131q73 57 359 187q286 129 428 232q57 42 57 92z" />
    <glyph glyph-name="bracketleft" unicode="[" horiz-adv-x="778" 
d="M719 -268h-606l444 1714h598l-55 -180h-328l-350 -1354h354z" />
    <glyph glyph-name="backslash" unicode="\" horiz-adv-x="684" 
d="M584 -80h-142l-153 1458h139z" />
    <glyph glyph-name="bracketright" unicode="]" horiz-adv-x="778" 
d="M338 1446h606l-444 -1714h-598l55 180h328l350 1354h-354z" />
    <glyph glyph-name="asciicircum" unicode="^" horiz-adv-x="1323" 
d="M1237 489h-139l-312 685l-311 -685h-133l385 814h125z" />
    <glyph glyph-name="underscore" unicode="_" horiz-adv-x="1024" 
d="M0 -154h1024v-102h-1024v102z" />
    <glyph glyph-name="grave" unicode="`" horiz-adv-x="716" 
d="M135 1071q27 0 68 -12l121 -37q208 -61 256 -94t49 -78q0 -18 -28 -18t-80 20q-53 21 -165 36t-174 11t-76 0q-25 8 -14 84q0 41 11 73q5 16 32 15z" />
    <glyph glyph-name="a" unicode="a" horiz-adv-x="997" 
d="M116 2q-44 0 -111 83q-161 200 70 403q142 126 321 201q313 131 400 44q36 -37 36 -63t-72 -52q59 -25 59 -83q0 -29 -89 -142t-89 -163t68 -50t218 115q48 37 68 49l17 -76q-78 -88 -236 -204t-217 -115q-59 0 -84 31t-25 90t76 217l-4 4l-188 -152q-174 -137 -218 -137
zM633 567q-355 -108 -458 -207q-91 -85 -88 -151q2 -62 40 -57q61 12 141 71q129 98 369 340z" />
    <glyph glyph-name="b" unicode="b" horiz-adv-x="819" 
d="M743 1221q-342 -291 -507 -617l4 -4q197 195 314 336q118 141 141 180q24 39 53 101zM152 -18q-152 0 -152 297q0 334 283 669q123 147 315 298t258 151q59 0 59 -76q0 -201 -434 -621l-319 -313q-27 -94 2 -164q42 -101 145 -39q20 12 48 46t32 38q-29 47 -29 80
q0 92 98 206t187 114q61 0 62 -90q1 -66 -47 -156t-52 -100q58 -10 106 10t111 65l21 -67q-123 -127 -328 -131q-207 -217 -366 -217z" />
    <glyph glyph-name="c" unicode="c" horiz-adv-x="735" 
d="M143 264q0 -41 41 -76q41 -34 114 -34t168 46t143 82t143 107l24 -80q-123 -131 -271 -233q-147 -102 -269 -102t-182 87q-60 88 -60 210t42 189t139 139q97 73 218 131t199 58q92 0 92 -94q0 -78 -85 -174t-125 -96q-72 0 -77 90l-172 -129q-82 -59 -82 -121z" />
    <glyph glyph-name="d" unicode="d" horiz-adv-x="1026" 
d="M584 569q-325 -105 -384 -201q-28 -44 -34 -120q-4 -33 31 -39q27 -6 195 137t192 223zM1044 1231q36 0 54 -24t18 -54q0 -60 -88 -197l-209 -323q-4 -8 -60 -94q-102 -156 -104 -268q-2 -111 45 -111q52 0 233 140q75 58 91 69l14 -68q-291 -322 -456 -321q-53 0 -81 45
t-28 100t16 158q-12 -11 -70 -65q-59 -54 -101 -91q-122 -106 -183 -105t-105 99t-44 170q0 113 110 221t244 169q133 60 227 67q47 0 86 -58q12 23 52 100q158 312 254 398q49 43 85 43z" />
    <glyph glyph-name="e" unicode="e" horiz-adv-x="731" 
d="M205 397q121 41 212 123t89 115q0 29 -25 22q-79 -20 -157 -91t-119 -169zM686 678q0 -90 -113 -192t-380 -189l-5 -45q-4 -53 34 -79t79 -26q99 0 186 54q35 20 55 31q24 14 106 77t93 74l19 -78q-116 -133 -266 -235t-287 -103q-104 0 -162 79q-57 79 -61 190
q-6 198 173 370t382 170q147 0 147 -98z" />
    <glyph glyph-name="f" unicode="f" horiz-adv-x="634" 
d="M-95 15q14 33 62 130q-59 63 -59 117q0 27 6 42l9 22q3 8 13 16t14 13q3 5 16 13q14 8 18 10q4 3 20 11q98 49 156 119q57 70 102 153q217 401 306 503t126 102q49 0 49 -90q-1 -56 -35 -146t-71 -141l-383 -535q38 -24 53 -50q14 -26 22 -39q8 -14 31 -72l277 172
l22 -76q-160 -143 -264 -195q6 -31 2 -112q-12 -168 -168 -321t-284 -171q-43 -6 -73 43q-48 78 -48 195t81 287zM45 -342q99 66 157 176t44 221q-88 -6 -148 17q-84 -140 -94 -228t41 -186z" />
    <glyph glyph-name="g" unicode="g" horiz-adv-x="907" 
d="M140 33q-76 0 -114 77q-38 76 -38 166t71 185q117 153 371 263q98 42 146 46t87 -8q37 -12 37 -45t-67 -80l-234 -127q-24 -16 -103 -56t-100 -64q-48 -55 -55 -90q-8 -36 -4 -67q2 -20 41 -22t118 34t134 95l219 242q51 57 79 57t52 -38q24 -39 25 -65q0 -26 -43 -106
l-154 -287l4 -4l312 223l10 -86l-432 -323q-146 -237 -276 -355t-199 -118q-20 0 -34 14q-13 14 -13 35q0 97 144 243t279 244l144 281l-4 4q-74 -82 -200 -175t-203 -93z" />
    <glyph glyph-name="h" unicode="h" horiz-adv-x="905" 
d="M715 666q37 0 67 -32t31 -66q0 -34 -106 -158q-111 -139 -116 -153q-5 -13 -5 -28q0 -43 54 -43t223 121q36 25 44 29l11 -84q-4 -2 -48 -36t-111 -83q-66 -49 -99 -69q-34 -20 -72 -42q-136 -80 -194 -11q-44 55 -14 149q31 94 156 248q42 53 48 61l-4 4
q-118 -80 -218 -171t-150 -149q-118 -137 -151 -137q-47 0 -64 71t-17 151t30 159q31 78 94 183q164 270 410 514t309 243q31 0 60 -14t28 -41q0 -62 -177 -280q-283 -348 -605 -664v-80q476 408 586 408z" />
    <glyph glyph-name="i" unicode="i" horiz-adv-x="569" 
d="M463 748q-37 0 -60 26t-22 62q0 61 58 109t120 48q29 0 48 -18t20 -45q0 -63 -50 -123q-51 -59 -114 -59zM160 -31q-94 0 -141 77q-46 76 -46 180t70 223t158 189t151 69q90 0 90 -58q0 -69 -100 -177t-188 -167q-25 -129 108 -129q71 0 157 60q30 20 77 58t63 50l19 -78
q-94 -115 -209 -206t-209 -91z" />
    <glyph glyph-name="j" unicode="j" horiz-adv-x="735" 
d="M596 842q-38 0 -60 26t-22 74q0 49 58 97t120 48q29 0 48 -18t20 -45q0 -63 -50 -123q-51 -59 -114 -59zM-70 -455q-55 0 -55 90t102 209t216 201l262 508q-59 -15 -209 -75t-236 -77q20 49 42 118t30 83q20 33 176 88q12 4 66 24t120 46q67 24 125 24q90 -4 90 -75
q0 -37 -47 -125l-213 -412l4 -4l334 197l13 -91l-437 -258q-2 -4 -91 -150t-163 -234t-129 -87z" />
    <glyph glyph-name="k" unicode="k" horiz-adv-x="993" 
d="M729 526q0 16 -41 16t-164 -78q-123 -79 -164 -134q47 -16 78 -45l193 133q2 2 29 20t37 31q9 12 21 24q12 13 11 33zM977 1284q0 -111 -595 -696q-241 -238 -259 -258l-4 -56q241 219 431 347q190 129 245 129t85 -48q60 -97 2 -202q-54 -95 -294 -224q-68 -37 -92 -51
q24 -35 36 -48q32 -36 105 -41q72 -5 364 229l21 -84q-8 -6 -101 -91q-118 -107 -222 -171q-103 -64 -156 -64q-53 -1 -97 21t-86 72q-43 50 -60 76t-56 85q-55 -49 -109 -139q-33 -62 -77 -62t-65 90q-22 90 -22 156q-1 66 15 107t36 79t29 52q8 14 38 58t34 52
q102 162 281 341q178 179 326 289t196 105q23 -1 37 -17t14 -36z" />
    <glyph glyph-name="l" unicode="l" horiz-adv-x="614" 
d="M479 1150q127 120 174 120t38 -119t-90 -269q-96 -182 -419 -493q-31 -59 -14 -141q35 -88 102 -88q126 0 353 205l28 -62q-233 -239 -353 -294q-67 -30 -128 -29q-182 0 -182 266q0 334 243 634q121 150 248 270zM223 582l4 -4q104 98 193 227q88 129 117 221
q-144 -69 -314 -444z" />
    <glyph glyph-name="m" unicode="m" horiz-adv-x="1454" 
d="M494 -6q-29 0 -55 24t-27 62q-2 78 180 356q12 12 12 26t-15 15q-15 0 -79 -63q-213 -225 -317 -355q-49 -57 -91 -57t-74 45q-49 72 -51 189q2 147 125 309t217 149q19 0 45 -6q48 -11 48 -41q0 -49 -134 -186q-42 -43 -54 -59t-38 -51q-28 -34 -28 -59q0 -26 11 -26
t54 44q279 285 455 402q86 56 130 56t66 -27t21 -67q0 -40 -36 -104q-36 -62 -89 -136t-65 -96l4 -4l454 358q73 58 89 58t24 -12t16 -28q8 -15 28 -45t20 -60t-89 -126q-87 -96 -117 -143q-52 -82 -18 -123q24 -27 82 -1t270 169l13 -96q-2 -2 -38 -30t-74 -59t-153 -110
q-115 -80 -169 -99q-53 -20 -85 -20t-62 36t-30 72q0 84 40 155q40 70 74 125t38 63l-4 4l-326 -299l-30 -30t-38 -37q-11 -9 -36 -28q-25 -18 -45 -26t-49 -8z" />
    <glyph glyph-name="n" unicode="n" horiz-adv-x="942" 
d="M391 91q0 46 9 82t36 83q27 46 38 66t52 75t41 58l-4 4q-170 -127 -315 -314q-111 -139 -166 -139t-82 64t-30 149q-3 86 73 220t170 214q29 25 82 24t81 -11t28 -16t2 -17q0 -43 -130 -179t-129 -158t21 -22t43 29q113 143 330 302t270 159q16 0 36 -48t27 -102
q0 -30 -62 -96t-126 -142t-63 -138q0 -14 11 -26t25 -11q54 0 177 102l122 103l17 -91q-2 -1 -121 -119t-200 -173t-142 -55t-91 38q-30 39 -30 85z" />
    <glyph glyph-name="o" unicode="o" horiz-adv-x="811" 
d="M127 215q0 -78 90 -78q58 0 110 40q17 13 48 42q-25 55 -25 98t25 103t45 95q20 36 18 38q-186 -109 -224 -147t-62 -91t-25 -100zM610 647q74 -21 74 -111t-47 -184q-4 -8 -17 -35t-16 -32q60 -12 114 28q19 14 51 42t46 38l21 -86q-70 -88 -146 -127t-186 -39
q-150 -154 -316 -153q-84 0 -145 79t-68 214q-6 197 187 344q174 141 383 151q41 2 77 -17t36 -53t-48 -59z" />
    <glyph glyph-name="p" unicode="p" horiz-adv-x="999" 
d="M-147 -428q-59 0 -60 92q-2 140 119 312t338 538l-4 4l-324 -309l-8 96l543 584q6 6 26 31q21 24 31 32t34 28t64 21q103 0 103 -49q0 -40 -76 -112l-38 -38q-143 -143 -200 -270l5 -4q276 199 405 199q41 0 63 -28t23 -68q0 -164 -332 -457q127 -8 196 26t240 183
l15 -94q-140 -135 -274 -215t-283 -80q-63 0 -146 41q-61 -12 -92 -12t-84 12l-192 -377q-45 -86 -92 -86zM645 480q0 32 -22 32q-39 0 -158 -82q-88 -63 -189 -199q93 7 173 -20l145 172q51 65 51 97z" />
    <glyph glyph-name="q" unicode="q" horiz-adv-x="925" 
d="M692 606l-2 2q-266 -72 -444 -192q-72 -49 -98 -92t-31 -125q93 -4 247 98t328 309zM146 -551q-38 0 -62 48t-23 87q-1 39 15 65q16 25 30 48t65 104t208 284q157 204 207 271l-4 4q-4 -4 -119 -112q-245 -229 -338 -230q-49 0 -103 66t-54 155t37 152q39 63 133 150
t269 160t326 73q53 0 74 -20q43 -42 -12 -101q49 -16 49 -65t-49 -122t-116 -153t-83 -106q48 -19 110 15t209 151l25 -78l-240 -211q18 -162 -198 -389q-84 -88 -201 -167t-155 -79zM471 25l-131 -183q-70 -96 -94 -192q96 39 200 143t105 184q0 14 -4 43q-35 1 -76 5z" />
    <glyph glyph-name="r" unicode="r" horiz-adv-x="712" 
d="M227 788q13 0 25 -10t12 -30t-14 -52q41 6 103 16q109 17 159 21q49 4 63 -10q43 -55 50 -109q0 -59 -41 -94q-14 -12 -45 -39q-160 -137 -160 -233q0 -25 19 -41q19 -17 51 -17t82 30t120 90t76 65l14 -76q-86 -98 -220 -207q-135 -108 -203 -108t-107 48t-39 111
t18 102q32 70 63 110l33 44q9 12 39 47t35 41l-4 5l-213 -48q-52 -80 -136 -154q-83 -73 -109 -100l-9 91q70 55 136 149q-33 2 -44 16t-12 48q-1 98 103 196t155 98z" />
    <glyph glyph-name="s" unicode="s" horiz-adv-x="735" 
d="M-148 178q-16 0 -26 12t-10 31t49 68l444 407q4 54 35 94t79 40t63 -16q14 -15 18 -51t22 -116t19 -131q0 -211 -266 -373q61 -9 119 7t92 38t100 70l123 94l20 -78q-123 -123 -262 -216t-250 -88q-111 4 -205 66t-120 169q-28 -27 -44 -27zM311 586l-295 -277
q35 -1 68 -23t49 -41t43 -57q96 60 127 102t35 128q-13 90 -27 168z" />
    <glyph glyph-name="t" unicode="t" horiz-adv-x="598" 
d="M84 608q-14 0 -30 -3t-50 -7l23 37q88 145 139 180t207 41l28 42q60 90 102 114t102 24q59 0 59 -39q0 -21 -37 -74q-37 -52 -43 -59l127 -10q-76 -154 -101 -184q-57 -74 -186 -74q-25 0 -51 2q-186 -242 -187 -381q0 -72 62 -72q23 1 42 9l38 16t74 47t75 53
q19 14 57 41t66 47l10 -90q-34 -35 -72 -68q-38 -32 -76 -66t-61 -50t-63 -47t-113 -64q-73 -34 -132 -34q-58 -1 -93 37t-35 112t53 193l-4 4l-104 -84l-23 78q217 166 312 327l-93 2h-22z" />
    <glyph glyph-name="u" unicode="u" horiz-adv-x="978" 
d="M133 217q31 0 105 42t141 103l203 183q59 59 161 146t134 87q39 0 47 -112q4 -46 -74 -116t-150 -166t-71 -157q0 -45 51 -45q74 0 315 193l13 -88q-218 -218 -309 -274q-177 -112 -253 -22q-32 40 -32 97t43 170l-4 4q-16 -14 -88 -90q-71 -76 -131 -120t-120 -44
t-104 65q-43 65 -43 138q0 139 88 278t197 211q35 23 90 23l59 2q71 0 66 -45q-4 -41 -82 -109q-87 -98 -149 -142t-91 -83t-29 -84t17 -45z" />
    <glyph glyph-name="v" unicode="v" horiz-adv-x="870" 
d="M748 764q61 0 61 -68q0 -54 -58 -162t-112 -184q29 -26 76 -26t168 82l14 -87q-127 -145 -262 -145q-35 0 -68 26q-34 26 -39 27q-57 -65 -174 -155t-170 -90q-88 0 -145 94t-57 219t67 242q68 117 141 175q74 58 115 58q123 0 123 -47q0 -61 -96 -180t-170 -181
q-31 -98 -31 -120q0 -80 49 -80q63 0 264 190q-8 103 103 242q129 170 201 170z" />
    <glyph glyph-name="w" unicode="w" horiz-adv-x="1300" 
d="M889 698q0 -28 -50 -106t-116 -204t-66 -171t39 -45q44 0 146 100q47 47 53 52q-8 66 6 110t88 141q109 143 174 144q33 0 49 -34t17 -69q0 -121 -139 -288q47 -29 71 -29q45 0 162 92l4 -90q-119 -123 -225 -123q-53 0 -123 41q-23 -16 -101 -89q-175 -165 -260 -165
q-39 0 -73 39q-31 39 -37 87t0 153q-14 -12 -85 -88q-151 -161 -234 -158q-84 4 -148 80q-63 76 -61 188t43 188t143 178q102 103 150 135t87 30q121 -6 121 -66q0 -67 -118 -185t-230 -206q-16 -34 -16 -98t21 -64t94 58t108 94l291 299q90 113 115 113t63 -14
q38 -13 37 -30z" />
    <glyph glyph-name="x" unicode="x" horiz-adv-x="712" 
d="M467 199q49 0 95 35q90 68 124 97q33 30 41 36l12 -82q-14 -11 -113 -111t-175 -154q-77 -54 -125 -53q-48 -1 -70 15t-32 66q-11 50 -9 107q2 56 2 58l-119 -115q-94 -88 -131 -88t-37 31t72 119q43 51 109 69l108 97l-2 245q-62 -30 -91 -47q-30 -16 -46 -24l-24 -12
q-24 -12 -42 -11q-17 2 -16 25q0 33 158 167t204 134t39 -107l-6 -186l182 166q74 70 117 69q20 1 28 -35t-58 -118t-125 -70l-142 -141l-2 -86q-4 -96 74 -96z" />
    <glyph glyph-name="y" unicode="y" horiz-adv-x="905" 
d="M164 -309q0 35 55 125l275 463l-5 4q-301 -254 -347 -250q-46 5 -99 71t-57 174t86 232q90 125 184 198q94 74 123 74t61 -36t33 -58q1 -51 -109 -166t-190 -178q-35 -51 -39 -119q113 12 293 181q71 66 198 186t150 137q23 16 33 19q23 4 39 -35t16 -68q0 -55 -84 -180
l-303 -451l4 -4l455 404l16 -76l-616 -678q-15 -14 -50 -58t-62 -44q-28 0 -44 49t-16 84z" />
    <glyph glyph-name="z" unicode="z" horiz-adv-x="753" 
d="M307 -43l-235 -184q-100 -80 -111 -166q109 29 219 137t127 213zM278 784q52 0 52 -71q110 16 183 37q73 22 89 22q25 0 45 -66q21 -66 21 -100q0 -35 -62 -76l-262 -190q82 -61 107 -162l323 250l6 -88l-327 -285q-17 -115 -79 -220q-109 -182 -294 -284
q-144 -78 -199 -16q-55 61 9 173q32 54 65 86t88 75l266 213q-14 60 -39 80q-26 20 -60 30t-50 13q-16 4 -22 6q-39 12 -35 42q5 29 44 61t141 104t189 143l-4 4l-250 -43l-233 -254l-23 68l144 174q-55 10 -55 60t85 132t137 82z" />
    <glyph glyph-name="braceleft" unicode="{" horiz-adv-x="716" 
d="M217 588v4q69 23 103 70t63 149l90 330q39 138 57 167q47 73 82 91q118 62 324 41v-4q-66 -20 -105 -72t-65 -150l-96 -348q-37 -133 -79 -192t-116 -84h-2v-4q72 -20 78 -84q6 -43 -31 -168l-108 -377q-29 -98 -20 -148t61 -77l-2 -4q-250 -14 -299 39q-35 35 -35 86
q6 68 37 143l104 373q27 94 17 146q-9 52 -60 73h2z" />
    <glyph glyph-name="bar" unicode="|" horiz-adv-x="829" 
d="M467 1540h162v-2052h-162v2052z" />
    <glyph glyph-name="braceright" unicode="}" horiz-adv-x="716" 
d="M653 586v-4q-69 -23 -103 -70t-63 -150l-90 -329q-24 -86 -39 -123q-41 -104 -104 -137q-114 -60 -320 -39v4q66 20 105 72t65 149l97 348q37 133 79 193t115 84h2v4q-72 20 -78 84q-6 43 31 168l109 377q29 98 19 148q-9 50 -60 77l2 4q250 14 299 -39q35 -35 35 -86
q-6 -68 -37 -143l-105 -373q-28 -95 -18 -147t61 -72h-2z" />
    <glyph glyph-name="asciitilde" unicode="~" horiz-adv-x="1226" 
d="M872 385q-78 0 -147 36q-27 13 -88 46q-115 65 -179 65t-110 -36q-45 -37 -94 -107l-76 70q47 86 124 138t154 52t113 -16q111 -49 119 -60q120 -69 181 -69q63 0 107 34t91 109l74 -72q-109 -190 -269 -190z" />
    <glyph glyph-name="uni00A0" unicode="&#xa0;" horiz-adv-x="696" 
 />
    <glyph glyph-name="exclamdown" unicode="&#xa1;" horiz-adv-x="802" 
d="M134 -551q-28 -1 -52 9q-23 10 -36 13q-64 15 -64 44t59 147l367 715q-24 48 9 95q19 30 52 30t76 -38t43 -73t-62 -178l-299 -684q-25 -63 -53 -75q-12 -6 -40 -5zM596 885q41 0 76 -30q35 -31 35 -85t-35 -144t-86 -89t-88 39t-37 100t36 136t99 73z" />
    <glyph glyph-name="cent" unicode="&#xa2;" 
d="M438 229q0 31 23 117q-125 10 -185 58q-59 48 -59 167q0 193 172 355q78 75 197 109q118 34 172 46q12 21 29 57t26 49q8 13 32 58t40 53l35 21q18 12 72 12q52 0 52 -24q0 -39 -52 -95t-72 -106q96 0 122 -23q49 -39 50 -131q0 -44 -18 -58t-80 -44q-62 -31 -74 -31
q-20 0 -20 20t20 40l-115 -9l-113 -260q18 4 101 21t125 40q42 22 53 21q29 0 28 -100q0 -120 -147 -178q-82 -32 -155 -49q-74 -17 -89 -21q-20 -94 -20 -238q-65 11 -108 30q-42 20 -42 93zM530 578l109 253q-221 -47 -242 -182q-8 -49 44 -63q32 -8 89 -8z" />
    <glyph glyph-name="sterling" unicode="&#xa3;" horiz-adv-x="1228" 
d="M1434 1416q0 -104 -164 -372q-76 -123 -92 -155q35 -10 36 -23q16 -33 -60 -94q-30 -25 -85 -67t-59 -43q-70 -51 -95 -52q-49 0 -49 78t67 204t134 206q127 156 82 155q-10 0 -49 -32q-116 -125 -280 -329t-222 -274q86 -10 129 -39t43 -57q0 -43 -49 -43q-14 0 -46 8
t-38 9l-123 24l-137 -158q170 -10 471 -91t377 -95q-21 -18 -81 -91t-112 -110t-104 -37q-53 0 -131 17q-183 43 -267 61t-236 38t-274 18q-32 -13 -101 -49q-70 -37 -105 -37q-74 0 -74 47t87 161t91 119l289 43l149 185q-94 20 -247 -6q49 79 83 101t119 15l127 -8l94 125
l431 543q111 139 203 198t146 53q52 -6 87 -46q35 -41 35 -100z" />
    <glyph glyph-name="currency" unicode="&#xa4;" horiz-adv-x="1421" 
d="M821 961h-4q-104 0 -177 -83t-73 -213t73 -211q74 -81 182 -81t180 82t73 211q0 129 -74 212t-180 83zM815 250q-133 0 -217 74l-127 -150l-86 84l135 139q-92 113 -92 273t92 262l-135 135l88 84l125 -147q88 80 224 80t222 -80l127 147l84 -84l-135 -135
q94 -100 94 -266q0 -70 -28 -145t-70 -122l139 -141l-86 -84l-129 154q-92 -78 -225 -78z" />
    <glyph glyph-name="yen" unicode="&#xa5;" horiz-adv-x="1658" 
d="M1668 596h-42l-299 -25q-11 -14 -29 -45t-28 -45l100 11q268 29 295 -39q12 -39 -52 -54q-61 -12 -101 -12h-42l-266 -25l-2 -2l-160 -282q-8 -58 -70 -106t-118 -47t-84 24q-29 23 -29 49q0 88 172 326q-139 -23 -254 -62q41 86 85 117t178 55l73 15q4 7 27 37t35 46
q-94 -14 -244 -59q31 61 53 89q50 60 211 85l72 12q141 178 350 345l-8 2l-649 -359q-238 -131 -339 -140t-159 30q-29 18 -22 41q0 75 236 257q172 133 315 236t166 131q22 28 22 36t-12 13q-12 4 -23 0q-565 -193 -817 -301q-37 -16 -76 -19t-47 5q-10 18 12 53l31 76
q14 35 47 57q101 66 567 215q466 150 619 114q55 -13 57 -48q0 -41 -128 -155q-28 -24 -48 -39l-44 -33q-24 -18 -69 -56t-155 -123q-110 -86 -175 -135t-80 -67q-15 -19 -15 -29t15 -15q42 -14 133 35t194 100t653 369q108 63 146 67t76 -22q38 -25 41 -42t-8 -32
q-12 -16 -112 -107t-249 -238q-148 -148 -179 -191l111 10q270 23 295 -38q5 -20 -9 -34t-59 -22q-45 -10 -85 -10z" />
    <glyph glyph-name="brokenbar" unicode="&#xa6;" horiz-adv-x="829" 
d="M467 358h160v-714h-160v714zM467 1386h160v-718h-160v718z" />
    <glyph glyph-name="section" unicode="&#xa7;" horiz-adv-x="1126" 
d="M397 702v-2q-14 -61 29 -101q42 -40 178 -83t201 -84q91 49 111 125t-20 118t-165 83t-201 76q-113 -54 -133 -132zM888 1233q-128 0 -204 -38t-90 -99q-14 -60 39 -98t209 -89t222 -123t35 -198q-32 -126 -204 -232q33 -29 44 -80t-1 -96q-27 -106 -116 -179
q-156 -128 -384 -128q-227 0 -338 84l80 133q106 -78 277 -78q96 0 179 39t101 110t-34 111q-51 40 -211 87q-160 48 -234 118t-43 195q17 68 75 131t150 100q-68 70 -41 174q35 143 171 220t316 77t296 -65l-72 -135q-94 59 -222 59z" />
    <glyph glyph-name="dieresis" unicode="&#xa8;" horiz-adv-x="917" 
d="M798 913q-48 1 -91 21q-83 39 2 165q41 60 108 50q33 -4 50 -8q17 -5 37 -21t18 -43q-6 -53 -41 -109t-83 -55zM409 913q-47 1 -91 21q-83 39 1 165q41 60 109 50q33 -4 50 -8q16 -5 36 -21t16 -56t-38 -96t-83 -55z" />
    <glyph glyph-name="copyright" unicode="&#xa9;" horiz-adv-x="1781" 
d="M1063 864q1 27 -15 46t-22 28q-55 51 -131 51q-195 0 -195 -256t195 -256q68 0 118 37t50 88h201q-27 -160 -116 -228t-258 -78q-169 -11 -283 111q-113 123 -113 327t113 325q114 121 283 109t258 -80t116 -224h-201zM891 1294q-231 0 -401 -170t-171 -401
q0 -231 170 -401q169 -170 401 -170t402 170t170 401t-170 401t-401 170zM891 1487q317 0 541 -223q224 -222 223 -540q0 -318 -223 -542q-222 -224 -540 -223q-318 0 -542 223q-223 222 -223 540t223 542q224 223 541 223z" />
    <glyph glyph-name="ordfeminine" unicode="&#xaa;" horiz-adv-x="786" 
d="M180 827h686v-67h-686v67zM633 1276l-4 4q-211 -60 -279 -114t-67 -111q0 -18 20 -19q70 0 330 240zM754 1270q0 -26 -58 -94t-59 -98q0 -30 46 -30t175 91l8 -47q-41 -45 -142 -114t-146 -69q-63 0 -64 66q0 49 47 135l-4 4l-119 -90q-118 -90 -144 -90t-69 53t-45 98
q-4 107 179 209t317 107q38 2 62 -21t24 -38t-47 -31q39 -15 39 -41z" />
    <glyph glyph-name="guillemotleft" unicode="&#xab;" horiz-adv-x="782" 
d="M698 231q-63 -1 -175 105t-99 170q0 47 57 121q18 31 77 120t87 154q4 -12 34 -69t31 -90q1 -32 -33 -73t-69 -96t-35 -77q1 -22 39 -49t76 -37q86 -23 86 -99q0 -35 -20 -57t-56 -23zM352 231q-63 -1 -175 105t-99 170q0 47 57 121q18 31 78 122t86 152q4 -12 34 -69
t31 -90q0 -32 -34 -73t-68 -96t-35 -77q0 -22 38 -49t77 -37q86 -23 86 -99q0 -35 -20 -57t-56 -23z" />
    <glyph glyph-name="logicalnot" unicode="&#xac;" horiz-adv-x="1259" 
d="M1161 215h-127v442h-807v123h934v-565z" />
    <glyph glyph-name="uni00AD" unicode="&#xad;" horiz-adv-x="655" 
d="M0 655h614v-180h-614v180z" />
    <glyph glyph-name="registered" unicode="&#xae;" horiz-adv-x="1781" 
d="M936 817q121 0 121 84q0 45 -29 65q-28 20 -54 21q-26 2 -69 2h-149v-172h180zM756 686v-317h-181v751h367q154 0 205 -33q90 -55 90 -196q0 -189 -188 -205l165 -317h-206l-154 317h-98zM891 152q229 0 400 171t171 401t-170 400t-401 170t-401 -170t-171 -400t171 -401
t401 -171zM891 1487q317 0 541 -223q224 -222 223 -540q0 -318 -223 -542q-222 -224 -540 -223q-318 0 -542 223q-223 222 -223 540t223 542q224 223 541 223z" />
    <glyph glyph-name="macron" unicode="&#xaf;" horiz-adv-x="696" 
d="M840 993v-4q-6 0 -31 -86t-51 -84q-360 18 -619 0q0 38 16 102t46 75q12 5 64 0q51 -5 147 -7t231 1t197 3z" />
    <glyph glyph-name="degree" unicode="&#xb0;" horiz-adv-x="985" 
d="M616 1253h-2q-74 0 -120 -55t-45 -145q0 -91 48 -149t124 -58q77 0 121 55t44 145t-44 149q-44 58 -126 58zM616 1339h2q121 0 199 -84q78 -85 78 -211t-80 -204t-197 -78q-118 0 -198 78t-80 208t80 210t196 81z" />
    <glyph glyph-name="plusminus" unicode="&#xb1;" horiz-adv-x="1347" 
d="M1247 -6h-932v119h932v-119zM1245 618h-401v-409h-127v409h-404v123h404v389h127v-389h401v-123z" />
    <glyph glyph-name="twosuperior" unicode="&#xb2;" horiz-adv-x="768" 
d="M559 1137q0 -19 -33 -23l-143 -24q-31 -6 -45 -7q-31 0 -31 40t24 92t50 79q53 55 181 91t216 36t120 -39t32 -163q0 -53 -20 -83t-66 -67t-272 -155t-285 -164l4 -5l514 84q-41 -104 -57 -127q-72 -91 -416 -98q-88 0 -105 14q-55 49 -55 136q0 37 37 71q85 78 198 142
t173 91t69 34q16 12 47 26t52 28q22 15 38 25q16 11 26 21t24 26t14 39q0 17 -30 17l-29 -2q-131 0 -361 -98v-5l80 -6q27 0 38 -9t11 -17z" />
    <glyph glyph-name="threesuperior" unicode="&#xb3;" horiz-adv-x="833" 
d="M524 1243q49 1 49 -21t-139 -22q-76 0 -76 64t127 110q94 33 279 33q256 0 256 -142q0 -41 -23 -75t-51 -52t-30 -19t-11 -4q-8 -3 -16 -5l-21 -6t-31 -8t-41 -10t-57 -12q-33 -7 -71 -15t-90 -19v-4q162 -23 215 -53q61 -39 61 -109q0 -90 -133 -179t-354 -89
q-115 0 -178 33q-62 33 -62 63t45 78q46 48 68 47q22 0 22 -12t-31 -39q57 -20 129 -20q140 0 266 50t126 89q0 46 -92 60t-155 14t-114 -13l-39 -4q-20 0 -20 37t39 79t106 50q440 49 441 133q0 53 -132 53t-288 -53v-4z" />
    <glyph glyph-name="acute" unicode="&#xb4;" horiz-adv-x="716" 
d="M657 1061q41 12 67 12t32 -15q12 -29 12 -73q11 -74 -14 -84q-12 -4 -75 0t-175 -11q-112 -16 -165 -36q-52 -20 -80 -20t-28 18q-1 45 49 78t257 94z" />
    <glyph glyph-name="mu" unicode="&#xb5;" horiz-adv-x="978" 
d="M215 248q0 -29 16 -33q31 2 105 44t141 103l203 183q39 39 151 136t144 97q39 0 47 -112q4 -46 -74 -116t-150 -166t-71 -157q0 -45 51 -45q76 0 316 193l12 -88l-59 -59q-166 -162 -226 -201q-121 -76 -182 -76t-94 40t-33 97t43 170l-4 4q-16 -14 -88 -90t-131 -120
t-118 -44t-128 88q-113 -227 -221 -332q-109 -104 -184 -63q-137 74 65 221q145 104 352 500q90 172 252 278q35 23 90 23l60 2q70 0 65 -45q-3 -22 -31 -56t-51 -53q-86 -98 -143 -138q-125 -88 -125 -185z" />
    <glyph glyph-name="paragraph" unicode="&#xb6;" horiz-adv-x="1345" 
d="M903 -98h-137v622h-25q-159 0 -277 100t-117 298t141 318t448 120q162 0 254 -19v-1439h-139v1327h-148v-1327z" />
    <glyph glyph-name="periodcentered" unicode="&#xb7;" horiz-adv-x="616" 
d="M254 389q0 68 63 152t144 67q31 0 59 -12t34 -24q7 -12 7 -27t-16 -69q-17 -54 -61 -116t-91 -58q-47 5 -69 10q-22 4 -46 24t-24 53z" />
    <glyph glyph-name="cedilla" unicode="&#xb8;" horiz-adv-x="696" 
d="M446 -232q0 -72 -64 -106q-64 -35 -135 -31q-69 4 -157 31t-88 68q0 23 18 22q12 0 60 -22t84 -23q38 -1 70 19t32 55q0 68 -116 67l77 152h84l-57 -113q74 5 133 -21t59 -98z" />
    <glyph glyph-name="onesuperior" unicode="&#xb9;" horiz-adv-x="727" 
d="M785 1413q23 0 42 -27q23 -38 23 -64t-100 -185l-109 -168q-156 -238 -156 -328l4 -43q0 -16 -18 -16q-11 0 -25 8t-40 19q-70 30 -70 81q0 86 92 254l168 234l76 90l-4 4l-162 -55q-10 0 -10 28q4 35 61 62l68 34q137 72 160 72z" />
    <glyph glyph-name="ordmasculine" unicode="&#xba;" horiz-adv-x="686" 
d="M180 827h586v-67h-586v67zM311 1065q1 -25 13 -33t53 -8t90 43q-16 29 -16 52q-1 23 9 51t29 62q19 32 19 34l-4 2q-8 -6 -59 -33t-93 -65q-41 -37 -41 -105zM346 922q-53 0 -94 50t-43 132q-2 117 115 204t254 93q26 2 50 -9q24 -10 24 -30t-31 -39q47 -11 47 -65
t-52 -152q36 -7 61 8q25 16 47 34t30 23l12 -51q-84 -100 -215 -100q-102 -98 -205 -98z" />
    <glyph glyph-name="guillemotright" unicode="&#xbb;" horiz-adv-x="782" 
d="M209 901q63 0 175 -105t99 -169q0 -47 -57 -121q-18 -31 -78 -122t-86 -153q-4 12 -34 72t-31 90q0 29 34 70t68 96q35 55 35 77t-38 49t-77 38q-86 23 -86 98q1 35 21 57t55 23zM555 901q63 0 175 -105t99 -169q0 -47 -57 -121q-18 -31 -78 -122t-86 -153q-4 12 -34 72
t-31 90q0 29 34 70t68 96q35 55 35 77t-38 49t-77 38q-86 23 -86 98q1 35 21 57t55 23z" />
    <glyph glyph-name="onequarter" unicode="&#xbc;" horiz-adv-x="1624" 
d="M496 535h-168l161 645h-4l-161 -62l-7 113l226 88h147zM326 -20h-133l1107 1347h132zM1241 301l53 217q16 68 37 121l-6 2q-49 -55 -92 -98l-264 -240l2 -2h270zM1323 0h-158l47 190h-413l22 91l533 510h166l-123 -490h131l-27 -111h-131z" />
    <glyph glyph-name="onehalf" unicode="&#xbd;" horiz-adv-x="1708" 
d="M1320 664q-95 0 -200 -62l-20 109q152 84 296 84t204 -66t35 -170q-26 -104 -127 -189t-257 -186l-86 -53l-2 -4h379l-33 -127h-600l25 96l178 123q178 121 254 190t90 124t-13 93q-28 38 -123 38zM496 535h-168l161 645h-4l-161 -62l-7 113l226 88h147zM326 -20h-133
l1107 1347h132z" />
    <glyph glyph-name="threequarters" unicode="&#xbe;" horiz-adv-x="1779" 
d="M630 1329q150 0 210 -54q60 -53 42 -127q-32 -137 -220 -194l-3 -4q91 -12 135 -65t25 -125q-25 -100 -137 -168t-283 -68q-170 0 -254 54l66 114q73 -49 183 -49t174 35t79 92q14 57 -44 92t-169 35h-65l24 104h68q90 0 161 32t83 81q8 41 -24 70q-32 28 -122 28
t-190 -53l-11 109q122 61 272 61zM483 -20h-133l1108 1347h131zM1399 301l55 217q14 57 35 121l-4 2q-61 -66 -94 -100l-265 -238l2 -2h271zM1479 0h-156l49 190h-416l23 91l530 510h166l-121 -490h129l-26 -111h-131z" />
    <glyph glyph-name="questiondown" unicode="&#xbf;" horiz-adv-x="956" 
d="M649 877q41 0 76 -30q35 -31 35 -85t-35 -144t-86 -90t-88 39t-37 101t36 135q36 74 99 74zM482 532q46 0 81 -49t35 -98q0 -115 -147 -254l-236 -217q-4 -4 -54 -49t-62 -74q-11 -28 -11 -53q0 -55 44 -69q44 -13 127 -13q82 0 178 36q32 11 108 40l-21 8q-61 23 -61 49
q0 37 43 37q6 0 37 -6l80 -13h20q44 0 61 -13t17 -41q-1 -28 -19 -82t-34 -83q-40 -63 -184 -101t-258 -38t-177 49t-63 168q0 186 143 357l266 315q6 8 29 30t25 62l-13 55q0 47 46 47z" />
    <glyph glyph-name="Agrave" unicode="&#xc0;" horiz-adv-x="1595" 
d="M1683 1509q1 -18 -27 -18q-28 1 -80 21t-164 35t-176 11q-62 -4 -75 1q-25 8 -14 83q0 74 23 84q10 4 28 4t59 -12l121 -37q207 -61 256 -94t49 -78zM-78 -117q-72 0 -72 45q0 59 109 172t242 160l159 176q-98 -8 -148 -1t-50 42t92 128t162 117t129 30t65 -15
q0 -18 -74 -27q-74 -10 -75 -28q0 -18 28 -18q98 6 125 6l459 381q426 352 539 352q31 0 51 -29q20 -30 20 -62t-63 -147l-254 -444q86 0 92 4q12 8 96 -12q-72 -84 -153 -234l-164 -8l-129 -252q0 -33 37 -33q23 0 37 10t24 15q10 6 33 23q22 18 45 34t41 31l37 -53
q-264 -264 -418 -264q-51 0 -78 34t-26 88l-2 15q0 49 151 332l-446 -15l-420 -418q-1 -2 -19 -19t-33 -33t-61 -50q-47 -33 -88 -33zM1141 713l278 467l-4 4l-592 -490l4 -4z" />
    <glyph glyph-name="Aacute" unicode="&#xc1;" horiz-adv-x="1595" 
d="M1314 1452q-28 0 -28 18q0 45 49 78t256 94l121 37q65 19 80 12q16 -7 20 -19t8 -21q4 -10 3 -47q11 -76 -15 -84q-12 -4 -74 0t-176 -12q-112 -16 -164 -36t-80 -20zM-78 -117q-72 0 -72 45q0 59 109 172t242 160l159 176q-98 -8 -148 -1t-50 42t92 128t162 117t129 30
t65 -15q0 -18 -74 -27q-74 -10 -75 -28q0 -18 28 -18q98 6 125 6l459 381q426 352 539 352q31 0 51 -29q20 -30 20 -62t-63 -147l-254 -444q86 0 92 4q12 8 96 -12q-72 -84 -153 -234l-164 -8l-129 -252q0 -33 37 -33q23 0 37 10t24 15q10 6 33 23q22 18 45 34t41 31l37 -53
q-264 -264 -418 -264q-51 0 -78 34t-26 88l-2 15q0 49 151 332l-446 -15l-420 -418q-1 -2 -19 -19t-33 -33t-61 -50q-47 -33 -88 -33zM1141 713l278 467l-4 4l-592 -490l4 -4z" />
    <glyph glyph-name="Acircumflex" unicode="&#xc2;" horiz-adv-x="1595" 
d="M1260 1468q0 68 129 119l165 66q121 47 164 47t121 -84q2 -2 36 -34t34 -56q0 -25 -43 -56q-33 -20 -41 -30q-16 8 -88 72t-107 65q-16 0 -102 -35l-180 -76q-61 -27 -70 -26q-18 0 -18 28zM-78 -117q-72 0 -72 45q0 59 109 172t242 160l159 176q-98 -8 -148 -1t-50 42
t92 128t162 117t129 30t65 -15q0 -18 -74 -27q-74 -10 -75 -28q0 -18 28 -18q98 6 125 6l459 381q426 352 539 352q31 0 51 -29q20 -30 20 -62t-63 -147l-254 -444q86 0 92 4q12 8 96 -12q-72 -84 -153 -234l-164 -8l-129 -252q0 -33 37 -33q23 0 37 10t24 15q10 6 33 23
q22 18 45 34t41 31l37 -53q-264 -264 -418 -264q-51 0 -78 34t-26 88l-2 15q0 49 151 332l-446 -15l-420 -418q-1 -2 -19 -19t-33 -33t-61 -50q-47 -33 -88 -33zM1141 713l278 467l-4 4l-592 -490l4 -4z" />
    <glyph glyph-name="Atilde" unicode="&#xc3;" horiz-adv-x="1595" 
d="M1462 1457v-7q0 -20 -25 -20t-110 70q-31 28 -31 70t16 66t62 23l266 -27l5 4q-72 49 -72 72q0 10 8 19t18 10q35 1 95 -59t61 -113q0 -86 -88 -86q-41 0 -126 15t-128 13q49 -37 49 -50zM-78 -117q-72 0 -72 45q0 59 109 172t242 160l159 176q-98 -8 -148 -1t-50 42
t92 128t162 117t129 30t65 -15q0 -18 -74 -27q-74 -10 -75 -28q0 -18 28 -18q98 6 125 6l459 381q426 352 539 352q31 0 51 -29q20 -30 20 -62t-63 -147l-254 -444q86 0 92 4q12 8 96 -12q-72 -84 -153 -234l-164 -8l-129 -252q0 -33 37 -33q23 0 37 10t24 15q10 6 33 23
q22 18 45 34t41 31l37 -53q-264 -264 -418 -264q-51 0 -78 34t-26 88l-2 15q0 49 151 332l-446 -15l-420 -418q-1 -2 -19 -19t-33 -33t-61 -50q-47 -33 -88 -33zM1141 713l278 467l-4 4l-592 -490l4 -4z" />
    <glyph glyph-name="Adieresis" unicode="&#xc4;" horiz-adv-x="1595" 
d="M1752 1511q-48 1 -91 21q-83 39 2 165q41 60 109 50q33 -4 50 -8q16 -5 36 -21t16 -56t-39 -96t-83 -55zM1363 1511q-48 1 -91 21q-83 39 2 165q41 60 108 50q32 -4 50 -8q18 -5 37 -21t18 -43q-6 -53 -41 -109t-83 -55zM-78 -117q-72 0 -72 45q0 59 109 172t242 160
l159 176q-98 -8 -148 -1t-50 42t92 128t162 117t129 30t65 -15q0 -18 -74 -27q-74 -10 -75 -28q0 -18 28 -18q98 6 125 6l459 381q426 352 539 352q31 0 51 -29q20 -30 20 -62t-63 -147l-254 -444q86 0 92 4q12 8 96 -12q-72 -84 -153 -234l-164 -8l-129 -252q0 -33 37 -33
q23 0 37 10t24 15q10 6 33 23q22 18 45 34t41 31l37 -53q-264 -264 -418 -264q-51 0 -78 34t-26 88l-2 15q0 49 151 332l-446 -15l-420 -418q-1 -2 -19 -19t-33 -33t-61 -50q-47 -33 -88 -33zM1141 713l278 467l-4 4l-592 -490l4 -4z" />
    <glyph glyph-name="Aring" unicode="&#xc5;" horiz-adv-x="1595" 
d="M1657 1534q0 -2 5 -10t5 -11q68 59 79 87t11 53q0 26 -6 51q-94 -70 -94 -170zM1884 1650q0 -67 -45 -136t-131 -68q-59 0 -106 44q-48 44 -48 110t69 136q69 71 106 70q10 1 61 -28l74 -41q20 -20 20 -87zM-78 -117q-72 0 -72 45q0 59 109 172t242 160l159 176
q-98 -8 -148 -1t-50 42t92 128t162 117t129 30t65 -15q0 -18 -74 -27q-74 -10 -75 -28q0 -18 28 -18q98 6 125 6l459 381q426 352 539 352q31 0 51 -29q20 -30 20 -62t-63 -147l-254 -444q86 0 92 4q12 8 96 -12q-72 -84 -153 -234l-164 -8l-129 -252q0 -33 37 -33
q23 0 37 10t24 15q10 6 33 23q22 18 45 34t41 31l37 -53q-264 -264 -418 -264q-51 0 -78 34t-26 88l-2 15q0 49 151 332l-446 -15l-420 -418q-1 -2 -19 -19t-33 -33t-61 -50q-47 -33 -88 -33zM1141 713l278 467l-4 4l-592 -490l4 -4z" />
    <glyph glyph-name="AE" unicode="&#xc6;" horiz-adv-x="2623" 
d="M1141 188q45 0 110 60l17 14q51 117 178 209t267 143t302 82v4l-323 45q-88 19 -142 51t-92 93l-94 -166q58 6 76 4t41 -20q-82 -98 -140 -228l-106 -6l-70 -133q-72 -137 -41 -150q6 -2 17 -2zM825 694l4 -4l312 23l276 465l-4 4zM1235 131q-285 -221 -369 -115
q-27 35 -26 88l-2 15q0 49 151 332l-446 -15l-420 -418q-1 -2 -19 -19t-33 -33t-61 -50q-47 -33 -88 -33q-72 0 -72 45q0 59 109 172t242 160l159 176q-98 -8 -148 -1t-50 42t92 128t162 117t129 30t65 -15q0 -18 -74 -27q-74 -10 -75 -28q0 -18 28 -18q98 6 125 6l459 381
q426 352 539 352q36 0 58 -35t-1 -98l4 -4q289 190 752 190h69q195 0 220 -57l4 -86q4 -88 -12 -112t-96 -49q-81 -25 -179 -80t-113 -54q-23 0 -22 20q0 24 68 84t69 62v-4h4v4q-379 6 -633 -141q-130 -75 -121 -125q6 -31 35 -44q104 -47 617 -36q137 0 137 -43
q0 -27 -27 -71t-55 -68t-200 -51q-172 -28 -323 -83q-248 -90 -363 -224q-44 -50 -44 -81q0 -59 172 -65q213 -12 484 71q110 33 243 116t168 101q9 -122 -13 -190t-106 -137q-139 -117 -348 -177q-208 -60 -370 -58q-162 3 -318 46q-61 16 -102 87t-35 120z" />
    <glyph glyph-name="Ccedilla" unicode="&#xc7;" horiz-adv-x="1464" 
d="M969 862q35 0 20 -47l4 -4q141 123 235 247q93 124 93 178t-55 40q-21 0 -78 -20q-125 -43 -267 -155q-195 -158 -384 -380q-109 -127 -179 -281t-69 -270q0 -231 217 -231q172 -1 438 165t465 342q4 -93 -40 -141q-17 -20 -64 -65q-406 -391 -773 -484l-36 -73
q74 6 133 -21q59 -26 59 -98t-64 -107t-136 -31q-70 4 -157 32q-87 26 -87 67q0 23 18 22q12 -1 60 -23t84 -22t69 20t33 54q0 68 -117 68l47 94q-35 -6 -65 -6q-174 0 -283 101q-108 101 -108 291t137 410t317 391t436 336t420 164q94 0 150 -50t60 -146q5 -95 -79 -239
q-85 -144 -205 -269t-257 -220t-232 -110q-45 -6 -80 23t-35 75q1 76 99 160l151 133q80 80 105 80z" />
    <glyph glyph-name="Egrave" unicode="&#xc8;" horiz-adv-x="1437" 
d="M1276 1489q0 -19 -28 -19t-80 21t-164 36q-114 15 -176 11t-74 0q-26 9 -15 84q0 73 24 84q9 4 27 4t60 -12l121 -37q207 -61 256 -94t49 -78zM1110 987q0 35 141 146q-379 6 -633 -141q-131 -75 -120 -126q6 -31 37 -43q106 -45 614 -35q137 0 137 -45q0 -27 -26 -71
t-55 -67t-201 -51t-323 -83t-235 -115q-172 -122 -172 -190q0 -59 172 -66q213 -12 484 72q111 34 244 116t167 101q9 -121 -13 -189q-45 -144 -348 -280q-212 -96 -513 -92q-125 2 -281 45q-61 16 -102 90t-41 136t40 129q168 281 744 425v6q-337 12 -449 78t-112 158
q0 139 149 267q283 247 824 247q260 0 289 -61l4 -86q4 -88 -11 -112t-103 -51t-179 -79q-92 -52 -102 -54t-19 6q-8 7 -8 15z" />
    <glyph glyph-name="Eacute" unicode="&#xc9;" horiz-adv-x="1437" 
d="M804 1452q-28 0 -28 18q0 45 49 78t256 94l121 37q65 19 80 12q31 -14 31 -87q11 -76 -15 -84q-12 -4 -74 0t-176 -12q-112 -16 -164 -36t-80 -20zM1110 987q0 35 141 146q-379 6 -633 -141q-131 -75 -120 -126q6 -31 37 -43q106 -45 614 -35q137 0 137 -45
q0 -27 -26 -71t-55 -67t-201 -51t-323 -83t-235 -115q-172 -122 -172 -190q0 -59 172 -66q213 -12 484 72q111 34 244 116t167 101q9 -121 -13 -189q-45 -144 -348 -280q-212 -96 -513 -92q-125 2 -281 45q-61 16 -102 90t-41 136t40 129q168 281 744 425v6q-337 12 -449 78
t-112 158q0 139 149 267q283 247 824 247q260 0 289 -61l4 -86q4 -88 -11 -112t-103 -51t-179 -79q-92 -52 -102 -54t-19 6q-8 7 -8 15z" />
    <glyph glyph-name="Ecircumflex" unicode="&#xca;" horiz-adv-x="1437" 
d="M750 1468q0 68 129 119l165 66q121 47 164 47t121 -84q2 -2 36 -34t34 -56q0 -25 -43 -56q-33 -20 -41 -30q-16 8 -88 72t-107 65q-14 0 -102 -35l-180 -76q-61 -27 -70 -26q-18 0 -18 28zM1110 987q0 35 141 146q-379 6 -633 -141q-131 -75 -120 -126q6 -31 37 -43
q106 -45 614 -35q137 0 137 -45q0 -27 -26 -71t-55 -67t-201 -51t-323 -83t-235 -115q-172 -122 -172 -190q0 -59 172 -66q213 -12 484 72q111 34 244 116t167 101q9 -121 -13 -189q-45 -144 -348 -280q-212 -96 -513 -92q-125 2 -281 45q-61 16 -102 90t-41 136t40 129
q168 281 744 425v6q-337 12 -449 78t-112 158q0 139 149 267q283 247 824 247q260 0 289 -61l4 -86q4 -88 -11 -112t-103 -51t-179 -79q-92 -52 -102 -54t-19 6q-8 7 -8 15z" />
    <glyph glyph-name="Edieresis" unicode="&#xcb;" horiz-adv-x="1437" 
d="M1344 1511q-48 1 -91 21q-83 39 2 165q41 60 109 50q33 -4 50 -8q16 -5 36 -21t16 -56t-39 -96t-83 -55zM955 1511q-48 1 -91 21q-83 39 2 165q41 60 109 50q33 -4 50 -8q17 -5 37 -21t15 -56q-4 -40 -39 -96t-83 -55zM1110 987q0 35 141 146q-379 6 -633 -141
q-131 -75 -120 -126q6 -31 37 -43q106 -45 614 -35q137 0 137 -45q0 -27 -26 -71t-55 -67t-201 -51t-323 -83t-235 -115q-172 -122 -172 -190q0 -59 172 -66q213 -12 484 72q111 34 244 116t167 101q9 -121 -13 -189q-45 -144 -348 -280q-212 -96 -513 -92q-125 2 -281 45
q-61 16 -102 90t-41 136t40 129q168 281 744 425v6q-337 12 -449 78t-112 158q0 139 149 267q283 247 824 247q260 0 289 -61l4 -86q4 -88 -11 -112t-103 -51t-179 -79q-92 -52 -102 -54t-19 6q-8 7 -8 15z" />
    <glyph glyph-name="Igrave" unicode="&#xcc;" horiz-adv-x="1009" 
d="M1026 1509q0 -18 -28 -18q-28 1 -80 21t-164 35q-114 15 -176 11t-74 1q-26 9 -15 83q0 73 24 84q9 4 27 4t60 -12l121 -37q207 -61 256 -94t49 -78zM506 784q18 0 18 -20t-17 -35t-52 -40t-54 -40q-78 -61 -111 -61q-34 0 -111 56t-73 95q14 150 158 312t336 265
q193 103 348 103q98 0 151 -64q52 -65 52 -175t-98 -326q-97 -215 -195 -373t-203 -309q25 -61 -35 -146t-104 -89q-44 -5 -85 27q-40 32 -40 67t35 82q252 363 398 635t147 356q1 32 -13 58t-43 26q-94 -12 -278 -148t-260 -278l51 10q68 12 78 12z" />
    <glyph glyph-name="Iacute" unicode="&#xcd;" horiz-adv-x="1009" 
d="M590 1452q-28 0 -27 18q0 45 49 78t256 94l121 37q65 19 80 12q31 -14 31 -87q12 -76 -14 -84q-12 -4 -76 0q-62 4 -174 -12t-166 -36q-52 -20 -80 -20zM506 784q18 0 18 -20t-17 -35t-52 -40t-54 -40q-78 -61 -111 -61q-34 0 -111 56t-73 95q14 150 158 312t336 265
q193 103 348 103q98 0 151 -64q52 -65 52 -175t-98 -326q-97 -215 -195 -373t-203 -309q25 -61 -35 -146t-104 -89q-44 -5 -85 27q-40 32 -40 67t35 82q252 363 398 635t147 356q1 32 -13 58t-43 26q-94 -12 -278 -148t-260 -278l51 10q68 12 78 12z" />
    <glyph glyph-name="Icircumflex" unicode="&#xce;" horiz-adv-x="1009" 
d="M537 1468q0 68 129 119l165 66q121 47 164 47t121 -84q2 -2 36 -34t34 -56q0 -25 -43 -56q-33 -20 -41 -30q-16 8 -88 72t-107 65q-14 0 -102 -35l-180 -76q-61 -27 -70 -26q-18 0 -18 28zM506 784q18 0 18 -20t-17 -35t-52 -40t-54 -40q-78 -61 -111 -61q-34 0 -111 56
t-73 95q14 150 158 312t336 265q193 103 348 103q98 0 151 -64q52 -65 52 -175t-98 -326q-97 -215 -195 -373t-203 -309q25 -61 -35 -146t-104 -89q-44 -5 -85 27q-40 32 -40 67t35 82q252 363 398 635t147 356q1 32 -13 58t-43 26q-94 -12 -278 -148t-260 -278l51 10
q68 12 78 12z" />
    <glyph glyph-name="Idieresis" unicode="&#xcf;" horiz-adv-x="1009" 
d="M1095 1511q-48 1 -91 21q-83 39 2 165q41 60 108 50q33 -4 50 -8q16 -5 36 -21t19 -43q-6 -53 -41 -109t-83 -55zM705 1511q-48 1 -91 21q-83 39 2 165q41 60 109 50q33 -4 50 -8q17 -5 37 -21t15 -56q-4 -40 -39 -96t-83 -55zM506 784q18 0 18 -20t-17 -35t-52 -40
t-54 -40q-78 -61 -111 -61q-34 0 -111 56t-73 95q14 150 158 312t336 265q193 103 348 103q98 0 151 -64q52 -65 52 -175t-98 -326q-97 -215 -195 -373t-203 -309q25 -61 -35 -146t-104 -89q-44 -5 -85 27q-40 32 -40 67t35 82q252 363 398 635t147 356q1 32 -13 58t-43 26
q-94 -12 -278 -148t-260 -278l51 10q68 12 78 12z" />
    <glyph glyph-name="Eth" unicode="&#xd0;" horiz-adv-x="1646" 
d="M426 1018h55q111 0 111 -23q0 -31 -64 -37q-36 -6 -160 -43t-180 -36q-78 0 -77 71q0 20 22 119q23 99 69 141t160 92q114 52 311 92q196 40 357 40q319 0 490 -109q106 -71 160 -193t55 -260q1 -204 -139 -376t-328 -278t-432 -173q-244 -68 -406 -68t-206 24t-44 108
q0 164 197 399l59 72l-4 4q-38 0 -124 -18q-85 -18 -89 -17q-12 1 -12 21t21 64q22 44 57 50q131 23 256 29l325 405q-252 -25 -440 -96v-4zM918 602q-209 0 -297 -6l-160 -211q-49 -66 -49 -113q0 -63 123 -63q225 1 499 99t412 243q139 145 139 295q0 178 -219 230
q-110 26 -174 34t-178 14l-23 2h-10q-25 -94 -68 -151l-200 -262l110 4q162 0 164 -64q0 -51 -69 -51z" />
    <glyph glyph-name="Ntilde" unicode="&#xd1;" horiz-adv-x="1712" 
d="M1419 1708q0 10 8 19t19 10q35 1 95 -59t61 -113q0 -86 -89 -86q-41 0 -125 15t-128 13q8 -6 16 -14t12 -11l10 -10q10 -10 11 -15v-7q0 -20 -21 -20q-14 0 -38 16t-36 25q-14 9 -22 15q-49 34 -49 80q1 46 17 70t61 23l266 -27l4 4q-72 49 -72 72zM1767 504q9 -82 9 -96
t-23 -43q-199 -258 -357 -375t-236 -117q-76 0 -110 52t-34 126q-1 135 110 340l349 641l-5 4q-319 -303 -487 -493q-39 -45 -385 -508q-41 -57 -72 -57t-93 48t-62 80q0 10 20 46q97 150 287 502t190 425q0 43 -32 43q-127 0 -639 -338q-35 -27 -62 -26q-37 0 -37 88
t57 184q94 160 268 282q67 46 91 46t23 -17q0 -25 -111 -131l4 -4q120 66 184 100t186 78t189 46q67 0 107 -31t34 -84q-8 -115 -70 -244t-286 -520l4 -4q492 592 619 678q12 8 59 41q47 32 109 74t95 42q34 0 100 -64t67 -125q0 -60 -70 -168q-69 -108 -189 -285t-192 -319
t-71 -183q0 -84 53 -84t197 133t212 217z" />
    <glyph glyph-name="Ograve" unicode="&#xd2;" horiz-adv-x="1308" 
d="M1236 1491q-28 1 -80 21t-164 35t-176 11q-62 -4 -75 1q-25 8 -14 83q0 74 24 84q9 4 27 4t60 -12l120 -37q207 -61 256 -94t50 -78q0 -18 -28 -18zM279 272q0 -133 108 -133q82 0 196 50t183 110q199 170 315 343q117 173 121 290q2 40 -20 70t-60 30q-128 0 -288 -100
t-236 -215q-42 -55 -64 -55t-28 57q-227 -227 -227 -447zM1323 1241q0 -37 -100 -70q-33 -12 -90 -45l2 -2q117 33 184 -18q59 -49 63 -162q4 -201 -132 -425t-362 -378t-452 -151q-132 0 -242 95t-122 323q-8 158 100 334q200 327 619 546q186 98 333 119q63 11 131 -59
t68 -107z" />
    <glyph glyph-name="Oacute" unicode="&#xd3;" horiz-adv-x="1308" 
d="M863 1452q-28 0 -27 18q0 45 49 78t256 94l121 37q63 19 80 12q30 -13 30 -87q11 -76 -14 -84q-12 -4 -75 0t-175 -12t-165 -36q-52 -20 -80 -20zM279 272q0 -133 108 -133q82 0 196 50t183 110q199 170 315 343q117 173 121 290q2 40 -20 70t-60 30q-128 0 -288 -100
t-236 -215q-42 -55 -64 -55t-28 57q-227 -227 -227 -447zM1323 1241q0 -37 -100 -70q-33 -12 -90 -45l2 -2q117 33 184 -18q59 -49 63 -162q4 -201 -132 -425t-362 -378t-452 -151q-132 0 -242 95t-122 323q-8 158 100 334q200 327 619 546q186 98 333 119q63 11 131 -59
t68 -107z" />
    <glyph glyph-name="Ocircumflex" unicode="&#xd4;" horiz-adv-x="1308" 
d="M768 1468q0 68 129 119l166 66q121 47 164 47t121 -84l17 -17q52 -49 52 -73q0 -25 -43 -56q-33 -20 -41 -30q-16 8 -88 72q-71 64 -97 65q-26 0 -112 -35l-180 -76q-61 -27 -70 -26q-18 0 -18 28zM279 272q0 -133 108 -133q82 0 196 50t183 110q199 170 315 343
q117 173 121 290q2 40 -20 70t-60 30q-128 0 -288 -100t-236 -215q-42 -55 -64 -55t-28 57q-227 -227 -227 -447zM1323 1241q0 -37 -100 -70q-33 -12 -90 -45l2 -2q117 33 184 -18q59 -49 63 -162q4 -201 -132 -425t-362 -378t-452 -151q-132 0 -242 95t-122 323
q-8 158 100 334q200 327 619 546q186 98 333 119q63 11 131 -59t68 -107z" />
    <glyph glyph-name="Otilde" unicode="&#xd5;" horiz-adv-x="1308" 
d="M1116 1757q35 0 95 -59t61 -113q0 -86 -88 -86q-41 0 -126 15t-128 14q8 -6 16 -14l12 -12q4 -3 8 -7t7 -6q6 -6 6 -11v-8q0 -20 -21 -20q-14 0 -50 25t-45 31q-50 29 -50 77q0 49 16 73q17 23 62 23l266 -26l4 4q-72 49 -71 72q0 10 8 19t18 9zM279 272q0 -133 108 -133
q82 0 196 50t183 110q199 170 315 343q117 173 121 290q2 40 -20 70t-60 30q-128 0 -288 -100t-236 -215q-42 -55 -64 -55t-28 57q-227 -227 -227 -447zM1323 1241q0 -37 -100 -70q-33 -12 -90 -45l2 -2q117 33 184 -18q59 -49 63 -162q4 -201 -132 -425t-362 -378
t-452 -151q-132 0 -242 95t-122 323q-8 158 100 334q200 327 619 546q186 98 333 119q63 11 131 -59t68 -107z" />
    <glyph glyph-name="Odieresis" unicode="&#xd6;" horiz-adv-x="1308" 
d="M1332 1511q-48 1 -91 21q-83 39 2 165q41 60 109 50q33 -4 50 -8q16 -5 36 -21t16 -56t-39 -96t-83 -55zM943 1511q-48 1 -91 21q-83 39 2 165q41 60 109 50q33 -4 50 -8q17 -5 37 -21t15 -56q-4 -40 -39 -96t-83 -55zM279 272q0 -133 108 -133q82 0 196 50t183 110
q199 170 315 343q117 173 121 290q2 40 -20 70t-60 30q-128 0 -288 -100t-236 -215q-42 -55 -64 -55t-28 57q-227 -227 -227 -447zM1323 1241q0 -37 -100 -70q-33 -12 -90 -45l2 -2q117 33 184 -18q59 -49 63 -162q4 -201 -132 -425t-362 -378t-452 -151q-132 0 -242 95
t-122 323q-8 158 100 334q200 327 619 546q186 98 333 119q63 11 131 -59t68 -107z" />
    <glyph glyph-name="multiply" unicode="&#xd7;" horiz-adv-x="1312" 
d="M1208 119l-92 -88l-373 395l-370 -393l-88 86l377 395l-375 395l90 86l373 -391l370 393l88 -84l-379 -397z" />
    <glyph glyph-name="Oslash" unicode="&#xd8;" horiz-adv-x="1308" 
d="M424 141q66 0 200 69t193 134q143 125 299 344q39 76 74 176l-4 4l-834 -725q6 -2 72 -2zM541 662q-15 0 -21 7t-8 14t-4 19t-4 17q-229 -236 -225 -457l895 750q-16 20 -50 20q-130 -2 -290 -101t-236 -214q-41 -55 -57 -55zM1325 1241q0 -37 -100 -70q-33 -12 -90 -45
l2 -2q117 33 184 -18q13 8 73 52q149 110 195 110q24 0 43 -16q18 -16 26 -23t21 -23q14 -16 17 -18l-322 -189q8 -23 8 -94q-2 -147 -97 -324t-219 -298t-281 -202t-293 -88t-232 48q-6 -6 -36 -34t-55 -53t-34 -46q-10 -21 -18 -39q-9 -20 -23 -40q-15 -20 -49 -21
q-35 -1 -61 26t-27 71q0 44 84 118l104 120q-63 113 -72 253t59 279q124 251 443 482q141 102 287 168t264 82q63 11 131 -59t68 -107z" />
    <glyph glyph-name="Ugrave" unicode="&#xd9;" horiz-adv-x="1789" 
d="M1577 1509q0 -18 -28 -18q-27 1 -79 21t-165 35t-175 11t-75 1q-26 9 -15 83q0 73 24 84q10 4 28 4t59 -12l121 -37q207 -61 256 -94t49 -78zM936 1077q0 20 -21 21q-3 0 -123 -50t-432 -204q-131 -66 -208 -66q-31 0 -44 9t-10 34q26 150 161 303q69 78 177 138t234 79
q32 4 202 44t246 40q76 1 104 -79q41 -115 -27 -231q-26 -46 -132 -179q-95 -100 -283 -332t-188 -272q0 -41 48 -41t244 163t288 254t183 181t142 142q242 247 293 269q16 8 29 9q41 0 63 -44t21 -87q8 -25 -46 -110t-344 -484q-184 -258 -184 -363q0 -35 23 -59
q22 -24 54 -23q63 0 155 65t174 132q81 67 84 67q10 -57 10 -67q-1 -31 -107 -122t-248 -173t-220 -82t-122 45t-45 117q1 125 107 303l168 285l-4 4q-762 -741 -869 -721q-193 33 -192 211q0 90 90 214q152 208 336 407t198 222q15 23 15 31z" />
    <glyph glyph-name="Uacute" unicode="&#xda;" horiz-adv-x="1789" 
d="M1205 1452q-28 0 -27 18q0 45 49 78t256 94l121 37q63 19 80 12q30 -13 30 -87q11 -76 -14 -84q-12 -4 -75 0t-175 -12t-165 -36q-52 -20 -80 -20zM936 1077q0 20 -21 21q-3 0 -123 -50t-432 -204q-131 -66 -208 -66q-31 0 -44 9t-10 34q26 150 161 303q69 78 177 138
t234 79q32 4 202 44t246 40q76 1 104 -79q41 -115 -27 -231q-26 -46 -132 -179q-95 -100 -283 -332t-188 -272q0 -41 48 -41t244 163t288 254t183 181t142 142q242 247 293 269q16 8 29 9q41 0 63 -44t21 -87q8 -25 -46 -110t-344 -484q-184 -258 -184 -363q0 -35 23 -59
q22 -24 54 -23q63 0 155 65t174 132q81 67 84 67q10 -57 10 -67q-1 -31 -107 -122t-248 -173t-220 -82t-122 45t-45 117q1 125 107 303l168 285l-4 4q-762 -741 -869 -721q-193 33 -192 211q0 90 90 214q152 208 336 407t198 222q15 23 15 31z" />
    <glyph glyph-name="Ucircumflex" unicode="&#xdb;" horiz-adv-x="1789" 
d="M1049 1468q0 68 129 119l165 66q121 47 164 47t121 -84q2 -2 36 -34t34 -56q0 -25 -43 -56q-33 -20 -41 -30q-16 8 -88 72t-107 65q-16 0 -102 -35l-180 -76q-61 -27 -70 -26q-18 0 -18 28zM936 1077q0 20 -21 21q-3 0 -123 -50t-432 -204q-131 -66 -208 -66q-31 0 -44 9
t-10 34q26 150 161 303q69 78 177 138t234 79q32 4 202 44t246 40q76 1 104 -79q41 -115 -27 -231q-26 -46 -132 -179q-95 -100 -283 -332t-188 -272q0 -41 48 -41t244 163t288 254t183 181t142 142q242 247 293 269q16 8 29 9q41 0 63 -44t21 -87q8 -25 -46 -110t-344 -484
q-184 -258 -184 -363q0 -35 23 -59q22 -24 54 -23q63 0 155 65t174 132q81 67 84 67q10 -57 10 -67q-1 -31 -107 -122t-248 -173t-220 -82t-122 45t-45 117q1 125 107 303l168 285l-4 4q-762 -741 -869 -721q-193 33 -192 211q0 90 90 214q152 208 336 407t198 222
q15 23 15 31z" />
    <glyph glyph-name="Udieresis" unicode="&#xdc;" horiz-adv-x="1789" 
d="M1709 1511q-48 1 -91 21q-83 39 2 165q41 60 109 50q33 -4 50 -8q17 -5 37 -21t15 -56q-4 -40 -39 -96t-83 -55zM1320 1511q-48 1 -91 21q-83 39 2 165q41 60 108 50q33 -4 51 -8q18 -5 36 -21q19 -16 18 -43q-6 -53 -41 -109t-83 -55zM936 1077q0 20 -21 21
q-3 0 -123 -50t-432 -204q-131 -66 -208 -66q-31 0 -44 9t-10 34q26 150 161 303q69 78 177 138t234 79q32 4 202 44t246 40q76 1 104 -79q41 -115 -27 -231q-26 -46 -132 -179q-95 -100 -283 -332t-188 -272q0 -41 48 -41t244 163t288 254t183 181t142 142q242 247 293 269
q16 8 29 9q41 0 63 -44t21 -87q8 -25 -46 -110t-344 -484q-184 -258 -184 -363q0 -35 23 -59q22 -24 54 -23q63 0 155 65t174 132q81 67 84 67q10 -57 10 -67q-1 -31 -107 -122t-248 -173t-220 -82t-122 45t-45 117q1 125 107 303l168 285l-4 4q-762 -741 -869 -721
q-193 33 -192 211q0 90 90 214q152 208 336 407t198 222q15 23 15 31z" />
    <glyph glyph-name="Yacute" unicode="&#xdd;" horiz-adv-x="1519" 
d="M1111 1452q-28 0 -28 18q-1 45 49 78t257 94l120 37q65 19 80 12q31 -14 31 -87q11 -76 -14 -84q-12 -4 -75 0t-175 -12t-165 -36q-52 -20 -80 -20zM403 39q-53 0 -101 44t-40 93q0 57 43 128q108 186 322 433q223 267 247 309t24 56q1 14 -7 19t-21 7
q-188 -94 -429 -224t-259 -144t-48 -12q-30 0 -36 19t13 81l30 110q16 53 43 83q88 97 492 273q244 105 375 105q59 1 101 -27t42 -77t-39 -116q-39 -68 -68 -105q-29 -36 -39 -52t-40 -53l-29 -37q-91 -119 -173 -220q-151 -185 -189 -239q-37 -54 -38 -73q-1 -20 12 -30
t40 -4q27 4 85 54t132 106t168 140t393 356q90 82 120 82q31 0 61 -43t30 -69t-10 -48q-12 -26 -129 -184t-290 -405q-173 -246 -198 -300t0 -57q13 0 27 8t121 73q107 64 170 88q153 59 153 5q0 -22 -48 -66t-77 -60q-340 -256 -481 -422q-35 -42 -54 -62q-20 -20 -60 -48
t-76 -28t-62 29q-25 29 -24 72q0 133 233 489t414 580l-4 4l-543 -469q-199 -172 -279 -172z" />
    <glyph glyph-name="Thorn" unicode="&#xde;" horiz-adv-x="1253" 
d="M1360 782q0 88 -121 124t-342 48l-360 -462q53 -16 193 -16t296 60q158 60 246 132t88 114zM1169 1446q37 0 37 -47q0 -27 -45 -86l-88 -117q168 -24 309 -134t142 -263q0 -86 -67 -179q-67 -94 -185 -176t-305 -135q-188 -53 -408 -53q-80 0 -178 12l-88 -147
q37 0 37 -38t-62 -110t-116 -71q-58 0 -58 90q0 46 72 172l78 133q-55 10 -88 41t-33 65q0 76 99 136q100 59 229 59l282 360q-293 -14 -546 -89q-81 -24 -87 -23q-24 0 -24 26t72 136q73 112 98 132q26 20 238 48t301 29q89 0 151 -5l100 142q66 92 133 92z" />
    <glyph glyph-name="germandbls" unicode="&#xdf;" horiz-adv-x="1138" 
d="M965 1073q0 37 -26 61t-72 24t-108 -45q-63 -45 -119 -107t-134 -207l299 114q160 61 160 160zM31 -180q-76 0 -76 98q1 77 63 220q177 402 222 487q-66 8 -66 57q0 59 141 80q129 213 203 291q27 29 85 81t171 112t204 60t142 -45q51 -47 51 -125q-1 -78 -71 -144
t-146 -102t-192 -84t-144 -61l5 -4q178 9 265 -19q175 -55 175 -228q1 -133 -105 -257t-251 -195t-275 -71q-72 0 -108 24t-35 91q0 96 69 137q14 7 60 19t64 12q20 0 20 -20t-15 -29l5 -4q340 61 339 276q0 88 -71 128q-72 40 -164 34l-174 -10l-256 -631q-2 -4 -12 -31
q-54 -147 -123 -147z" />
    <glyph glyph-name="agrave" unicode="&#xe0;" horiz-adv-x="997" 
d="M770 850q0 -18 -28 -18t-80 20q-52 21 -164 36q-114 15 -176 11t-74 0q-26 9 -15 84q-1 38 3 48q4 9 9 25t32 15q26 0 67 -12l121 -37q207 -61 256 -94t49 -78zM116 2q-44 0 -111 83q-161 200 70 403q142 126 321 201q313 131 400 44q36 -37 36 -63t-72 -52
q59 -25 59 -83q0 -29 -89 -142t-89 -163t68 -50t218 115q48 37 68 49l17 -76q-78 -88 -236 -204t-217 -115q-59 0 -84 31t-25 90t76 217l-4 4l-188 -152q-174 -137 -218 -137zM633 567q-355 -108 -458 -207q-91 -85 -88 -151q2 -62 40 -57q61 12 141 71q129 98 369 340z" />
    <glyph glyph-name="aacute" unicode="&#xe1;" horiz-adv-x="997" 
d="M858 1073q18 0 28 -4q24 -10 23 -84q11 -74 -14 -84q-13 -4 -75 0t-174 -11q-112 -16 -166 -36q-52 -20 -80 -20t-27 18q0 45 49 78t256 94l121 37q41 12 59 12zM116 2q-44 0 -111 83q-161 200 70 403q142 126 321 201q313 131 400 44q36 -37 36 -63t-72 -52
q59 -25 59 -83q0 -29 -89 -142t-89 -163t68 -50t218 115q48 37 68 49l17 -76q-78 -88 -236 -204t-217 -115q-59 0 -84 31t-25 90t76 217l-4 4l-188 -152q-174 -137 -218 -137zM633 567q-355 -108 -458 -207q-91 -85 -88 -151q2 -62 40 -57q61 12 141 71q129 98 369 340z" />
    <glyph glyph-name="acircumflex" unicode="&#xe2;" horiz-adv-x="997" 
d="M262 821q-18 0 -18 29q0 68 129 119l166 65q121 47 164 47t120 -84q1 -2 17 -16q52 -47 53 -73q0 -26 -43 -56q-33 -20 -41 -31q-16 8 -88 73t-107 64q-16 1 -102 -34l-180 -76q-61 -27 -70 -27zM116 2q-44 0 -111 83q-161 200 70 403q142 126 321 201q313 131 400 44
q36 -37 36 -63t-72 -52q59 -25 59 -83q0 -29 -89 -142t-89 -163t68 -50t218 115q48 37 68 49l17 -76q-78 -88 -236 -204t-217 -115q-59 0 -84 31t-25 90t76 217l-4 4l-188 -152q-174 -137 -218 -137zM633 567q-355 -108 -458 -207q-91 -85 -88 -151q2 -62 40 -57
q61 12 141 71q129 98 369 340z" />
    <glyph glyph-name="atilde" unicode="&#xe3;" horiz-adv-x="997" 
d="M659 1069q1 9 9 19t18 10q35 0 95 -60t61 -112q0 -86 -88 -86q-41 0 -126 15t-128 13q8 -6 16 -14t20 -17t13 -16v-10q0 -20 -20 -20q-20 -1 -54 25q-35 26 -43 31q-50 29 -49 78q1 47 17 71t61 24l266 -27l4 4q-72 49 -72 72zM116 2q-44 0 -111 83q-161 200 70 403
q142 126 321 201q313 131 400 44q36 -37 36 -63t-72 -52q59 -25 59 -83q0 -29 -89 -142t-89 -163t68 -50t218 115q48 37 68 49l17 -76q-78 -88 -236 -204t-217 -115q-59 0 -84 31t-25 90t76 217l-4 4l-188 -152q-174 -137 -218 -137zM633 567q-355 -108 -458 -207
q-91 -85 -88 -151q2 -62 40 -57q61 12 141 71q129 98 369 340z" />
    <glyph glyph-name="adieresis" unicode="&#xe4;" horiz-adv-x="997" 
d="M839 913q-48 1 -91 21q-83 39 2 165q41 60 108 50q33 -4 50 -8q16 -5 36 -21t19 -43q-6 -53 -41 -109t-83 -55zM449 913q-48 1 -91 21q-83 39 2 165q41 60 109 50q33 -4 50 -8q17 -5 37 -21t15 -56q-4 -40 -39 -96t-83 -55zM116 2q-44 0 -111 83q-161 200 70 403
q142 126 321 201q313 131 400 44q36 -37 36 -63t-72 -52q59 -25 59 -83q0 -29 -89 -142t-89 -163t68 -50t218 115q48 37 68 49l17 -76q-78 -88 -236 -204t-217 -115q-59 0 -84 31t-25 90t76 217l-4 4l-188 -152q-174 -137 -218 -137zM633 567q-355 -108 -458 -207
q-91 -85 -88 -151q2 -62 40 -57q61 12 141 71q129 98 369 340z" />
    <glyph glyph-name="aring" unicode="&#xe5;" horiz-adv-x="997" 
d="M844 1034q0 26 -6 51q-94 -70 -95 -170q-1 -2 5 -10t6 -10q68 59 79 86t11 53zM808 827q-72 0 -120 44q-47 44 -47 110q0 67 69 137t105 70q11 0 62 -29l73 -41q20 -20 20 -86t-44 -136q-46 -69 -118 -69zM116 2q-44 0 -111 83q-161 200 70 403q142 126 321 201
q313 131 400 44q36 -37 36 -63t-72 -52q59 -25 59 -83q0 -29 -89 -142t-89 -163t68 -50t218 115q48 37 68 49l17 -76q-78 -88 -236 -204t-217 -115q-59 0 -84 31t-25 90t76 217l-4 4l-188 -152q-174 -137 -218 -137zM633 567q-355 -108 -458 -207q-91 -85 -88 -151
q2 -62 40 -57q61 12 141 71q129 98 369 340z" />
    <glyph glyph-name="ae" unicode="&#xe6;" horiz-adv-x="1286" 
d="M-45 238q0 115 88 211q89 96 199 157q110 62 250 116t216 54q77 0 130 -71q131 71 265 71t134 -98q0 -92 -111 -192t-378 -189l-5 -45q0 -104 127 -105q85 0 172 54q34 20 54 31q24 14 107 77q82 63 93 74l19 -78q-115 -133 -265 -235t-288 -103q-46 0 -106 31t-82 66
q-22 36 -30 76q-9 40 -8 76t1 79q-18 -12 -114 -90q-245 -201 -298 -201q-35 0 -103 81t-67 153zM760 397q121 41 210 122t88 111t-22 27q-80 -20 -158 -91t-118 -169zM142 166q38 0 98 45l84 57q172 119 327 301l-4 4q-300 -83 -460 -205q-31 -24 -57 -68t-26 -89t38 -45z
" />
    <glyph glyph-name="ccedilla" unicode="&#xe7;" horiz-adv-x="735" 
d="M143 264q0 -41 41 -76q41 -34 114 -34t168 46t143 82t143 107l24 -80q-238 -256 -448 -317l-54 -105q74 6 134 -20q59 -27 59 -99t-65 -106q-65 -35 -135 -31t-157 31t-87 68q0 23 18 22q12 0 59 -22t84 -23t70 19t33 55q0 68 -117 67l66 127q-2 -2 -9 -2q-113 0 -173 88
t-60 210t42 189t139 139q97 73 218 131t199 58q92 0 92 -94q0 -78 -85 -174t-125 -96q-72 0 -77 90l-172 -129q-82 -59 -82 -121z" />
    <glyph glyph-name="egrave" unicode="&#xe8;" horiz-adv-x="731" 
d="M637 850q0 -18 -28 -18q-27 0 -79 20q-52 21 -165 36t-175 11t-75 0q-26 9 -15 84q0 73 24 84q10 4 28 4t59 -12l121 -37q207 -61 256 -94t49 -78zM205 397q121 41 212 123t89 115q0 29 -25 22q-79 -20 -157 -91t-119 -169zM686 678q0 -90 -113 -192t-380 -189l-5 -45
q-4 -53 34 -79t79 -26q99 0 186 54q35 20 55 31q24 14 106 77t93 74l19 -78q-116 -133 -266 -235t-287 -103q-104 0 -162 79q-57 79 -61 190q-6 198 173 370t382 170q147 0 147 -98z" />
    <glyph glyph-name="eacute" unicode="&#xe9;" horiz-adv-x="731" 
d="M725 1073q17 0 27 -4q24 -10 24 -84q11 -74 -14 -84q-12 -4 -74 0t-176 -11q-113 -16 -165 -36t-80 -20t-27 18q0 45 49 78t256 94l121 37q41 12 59 12zM205 397q121 41 212 123t89 115q0 29 -25 22q-79 -20 -157 -91t-119 -169zM686 678q0 -90 -113 -192t-380 -189
l-5 -45q-4 -53 34 -79t79 -26q99 0 186 54q35 20 55 31q24 14 106 77t93 74l19 -78q-116 -133 -266 -235t-287 -103q-104 0 -162 79q-57 79 -61 190q-6 198 173 370t382 170q147 0 147 -98z" />
    <glyph glyph-name="ecircumflex" unicode="&#xea;" horiz-adv-x="731" 
d="M129 821q-18 0 -18 29q0 68 129 119l166 65q122 47 164 47t120 -84q2 -2 18 -16q52 -47 52 -73t-43 -56q-33 -20 -41 -31q-16 8 -88 73t-107 64q-14 1 -102 -34l-180 -76q-61 -27 -70 -27zM205 397q121 41 212 123t89 115q0 29 -25 22q-79 -20 -157 -91t-119 -169z
M686 678q0 -90 -113 -192t-380 -189l-5 -45q-4 -53 34 -79t79 -26q99 0 186 54q35 20 55 31q24 14 106 77t93 74l19 -78q-116 -133 -266 -235t-287 -103q-104 0 -162 79q-57 79 -61 190q-6 198 173 370t382 170q147 0 147 -98z" />
    <glyph glyph-name="edieresis" unicode="&#xeb;" horiz-adv-x="731" 
d="M705 913q-48 1 -91 21q-83 39 2 165q41 60 109 50q33 -4 50 -8q17 -5 37 -21t15 -56q-4 -40 -39 -96t-83 -55zM316 913q-48 1 -91 21q-83 39 2 165q41 60 109 50q33 -4 50 -8q16 -5 36 -21t16 -56t-39 -96t-83 -55zM205 397q121 41 212 123t89 115q0 29 -25 22
q-79 -20 -157 -91t-119 -169zM686 678q0 -90 -113 -192t-380 -189l-5 -45q-4 -53 34 -79t79 -26q99 0 186 54q35 20 55 31q24 14 106 77t93 74l19 -78q-116 -133 -266 -235t-287 -103q-104 0 -162 79q-57 79 -61 190q-6 198 173 370t382 170q147 0 147 -98z" />
    <glyph glyph-name="igrave" unicode="&#xec;" horiz-adv-x="569" 
d="M555 850q0 -18 -28 -18q-27 0 -79 20q-52 21 -165 36t-175 11t-75 0q-26 9 -15 84q0 38 4 48q4 9 8 25q5 16 32 15q26 0 67 -12l121 -37q207 -61 256 -94t49 -78zM160 -31q-94 0 -141 77q-46 76 -46 180t70 223t158 189t151 69q90 0 90 -58q0 -69 -100 -177t-188 -167
q-25 -129 108 -129q71 0 157 60q30 20 77 58t63 50l19 -78q-94 -115 -209 -206t-209 -91z" />
    <glyph glyph-name="iacute" unicode="&#xed;" horiz-adv-x="569" 
d="M643 1073q17 0 27 -4q24 -10 24 -84q11 -74 -14 -84q-12 -4 -74 0t-176 -11q-112 -16 -164 -36t-81 -20q-28 0 -27 18q0 45 49 78t256 94l121 37q41 12 59 12zM160 -31q-94 0 -141 77q-46 76 -46 180t70 223t158 189t151 69q90 0 90 -58q0 -69 -100 -177t-188 -167
q-25 -129 108 -129q71 0 157 60q30 20 77 58t63 50l19 -78q-94 -115 -209 -206t-209 -91z" />
    <glyph glyph-name="icircumflex" unicode="&#xee;" horiz-adv-x="569" 
d="M47 821q-18 0 -18 29q0 68 129 119l166 65q121 47 164 47t120 -84q2 -2 18 -16q52 -47 52 -73t-43 -56q-33 -20 -41 -31q-16 8 -88 73t-107 64q-14 1 -102 -34l-180 -76q-61 -27 -70 -27zM160 -31q-94 0 -141 77q-46 76 -46 180t70 223t158 189t151 69q90 0 90 -58
q0 -69 -100 -177t-188 -167q-25 -129 108 -129q71 0 157 60q30 20 77 58t63 50l19 -78q-94 -115 -209 -206t-209 -91z" />
    <glyph glyph-name="idieresis" unicode="&#xef;" horiz-adv-x="569" 
d="M624 913q-48 1 -92 21q-83 39 3 165q41 60 108 50q33 -4 50 -8q17 -5 37 -21t18 -43q-6 -53 -41 -109t-83 -55zM234 913q-48 1 -91 21q-83 39 2 165q41 60 109 50q33 -4 50 -8q16 -5 36 -21t16 -56t-39 -96t-83 -55zM160 -31q-94 0 -141 77q-46 76 -46 180t70 223
t158 189t151 69q90 0 90 -58q0 -69 -100 -177t-188 -167q-25 -129 108 -129q71 0 157 60q30 20 77 58t63 50l19 -78q-94 -115 -209 -206t-209 -91z" />
    <glyph glyph-name="eth" unicode="&#xf0;" horiz-adv-x="1026" 
d="M127 215q0 -78 90 -78q63 0 154 82q111 123 196 375q-172 -18 -306 -129t-134 -250zM637 283q68 0 178 110l21 -86q-70 -88 -146 -127t-186 -39q-150 -154 -316 -153q-84 0 -147 80t-64 213q0 201 185 346q80 65 192 107t191 42q47 0 67 -37h4q25 84 25 158t-8 123
l-166 -59q-43 -16 -55 -17q-10 0 -27 29q-16 29 -16 41q0 18 26 28l207 76q-39 74 -118 142q-22 18 -22 28t22 35t46 25t99 -58q74 -58 112 -121l150 54q59 23 73 23t27 -32q12 -31 13 -45q0 -14 -43 -30l-179 -64q35 -117 35 -235q0 -262 -213 -555q12 -2 33 -2z" />
    <glyph glyph-name="ntilde" unicode="&#xf1;" horiz-adv-x="942" 
d="M657 1098q35 0 95 -60t61 -112q0 -86 -88 -86q-41 0 -126 15t-128 13q8 -6 16 -14q9 -8 21 -16t12 -16v-11q0 -20 -20 -20q-20 -1 -54 25t-42 31q-50 29 -50 78q0 47 16 71t62 24l266 -27l4 4q-72 49 -71 72q0 9 8 19t18 10zM391 91q0 46 9 82t36 83q27 46 38 66t52 75
t41 58l-4 4q-170 -127 -315 -314q-111 -139 -166 -139t-82 64t-30 149q-3 86 73 220t170 214q29 25 82 24t81 -11t28 -16t2 -17q0 -43 -130 -179t-129 -158t21 -22t43 29q113 143 330 302t270 159q16 0 36 -48t27 -102q0 -30 -62 -96t-126 -142t-63 -138q0 -14 11 -26
t25 -11q54 0 177 102l122 103l17 -91q-2 -1 -121 -119t-200 -173t-142 -55t-91 38q-30 39 -30 85z" />
    <glyph glyph-name="ograve" unicode="&#xf2;" horiz-adv-x="811" 
d="M183 1071q26 0 67 -12l121 -37q207 -61 255 -94t50 -78q0 -18 -28 -18t-80 20q-52 21 -164 36q-114 15 -176 11t-74 0q-26 9 -15 84q0 41 12 73q6 16 32 15zM127 215q0 -78 90 -78q58 0 110 40q17 13 48 42q-25 55 -25 98t25 103t45 95q20 36 18 38q-186 -109 -224 -147
t-62 -91t-25 -100zM610 647q74 -21 74 -111t-47 -184q-4 -8 -17 -35t-16 -32q60 -12 114 28q19 14 51 42t46 38l21 -86q-70 -88 -146 -127t-186 -39q-150 -154 -316 -153q-84 0 -145 79t-68 214q-6 197 187 344q174 141 383 151q41 2 77 -17t36 -53t-48 -59z" />
    <glyph glyph-name="oacute" unicode="&#xf3;" horiz-adv-x="811" 
d="M764 1073q18 0 28 -4q24 -10 23 -84q11 -74 -14 -84q-12 -4 -75 0q-64 4 -176 -11q-112 -16 -164 -36t-80 -20t-27 18q0 45 49 78t256 94l121 37q41 12 59 12zM127 215q0 -78 90 -78q58 0 110 40q17 13 48 42q-25 55 -25 98t25 103t45 95q20 36 18 38
q-186 -109 -224 -147t-62 -91t-25 -100zM610 647q74 -21 74 -111t-47 -184q-4 -8 -17 -35t-16 -32q60 -12 114 28q19 14 51 42t46 38l21 -86q-70 -88 -146 -127t-186 -39q-150 -154 -316 -153q-84 0 -145 79t-68 214q-6 197 187 344q174 141 383 151q41 2 77 -17t36 -53
t-48 -59z" />
    <glyph glyph-name="ocircumflex" unicode="&#xf4;" horiz-adv-x="811" 
d="M168 821q-18 0 -18 29q0 68 129 119l165 65q121 47 164 47t121 -84q2 -2 36 -34t34 -56q0 -25 -43 -55q-33 -20 -41 -31q-16 8 -88 73t-107 64q-16 1 -102 -34l-180 -76q-61 -27 -70 -27zM127 215q0 -78 90 -78q58 0 110 40q17 13 48 42q-25 55 -25 98t25 103t45 95
q20 36 18 38q-186 -109 -224 -147t-62 -91t-25 -100zM610 647q74 -21 74 -111t-47 -184q-4 -8 -17 -35t-16 -32q60 -12 114 28q19 14 51 42t46 38l21 -86q-70 -88 -146 -127t-186 -39q-150 -154 -316 -153q-84 0 -145 79t-68 214q-6 197 187 344q174 141 383 151
q41 2 77 -17t36 -53t-48 -59z" />
    <glyph glyph-name="otilde" unicode="&#xf5;" horiz-adv-x="811" 
d="M565 1069q0 9 8 19t19 10q35 0 95 -60t61 -112q0 -86 -89 -86q-41 0 -125 15t-128 13q8 -6 16 -14t12 -11t10 -9q10 -10 11 -16v-7q0 -20 -19 -20q-19 -1 -54 25q-36 26 -44 31q-49 31 -49 78q1 47 17 71t61 24l266 -27l4 4q-72 49 -72 72zM127 215q0 -78 90 -78
q58 0 110 40q17 13 48 42q-25 55 -25 98t25 103t45 95q20 36 18 38q-186 -109 -224 -147t-62 -91t-25 -100zM610 647q74 -21 74 -111t-47 -184q-4 -8 -17 -35t-16 -32q60 -12 114 28q19 14 51 42t46 38l21 -86q-70 -88 -146 -127t-186 -39q-150 -154 -316 -153
q-84 0 -145 79t-68 214q-6 197 187 344q174 141 383 151q41 2 77 -17t36 -53t-48 -59z" />
    <glyph glyph-name="odieresis" unicode="&#xf6;" horiz-adv-x="811" 
d="M744 913q-48 1 -91 21q-83 39 2 165q41 60 109 50q33 -4 50 -8q16 -5 36 -21t16 -56t-39 -96t-83 -55zM355 913q-48 1 -91 21q-83 39 2 165q41 60 109 50q33 -4 50 -8q17 -5 37 -21t15 -56q-4 -40 -39 -96t-83 -55zM127 215q0 -78 90 -78q58 0 110 40q17 13 48 42
q-25 55 -25 98t25 103t45 95q20 36 18 38q-186 -109 -224 -147t-62 -91t-25 -100zM610 647q74 -21 74 -111t-47 -184q-4 -8 -17 -35t-16 -32q60 -12 114 28q19 14 51 42t46 38l21 -86q-70 -88 -146 -127t-186 -39q-150 -154 -316 -153q-84 0 -145 79t-68 214q-6 197 187 344
q174 141 383 151q41 2 77 -17t36 -53t-48 -59z" />
    <glyph glyph-name="divide" unicode="&#xf7;" horiz-adv-x="1308" 
d="M748 293h2q36 0 64 -31t28 -72q0 -42 -30 -74t-68 -32t-68 32q-29 32 -29 74t29 73q29 30 72 30zM1210 471h-934v123h934v-123zM748 772h-3q-37 0 -65 30t-29 72q0 42 30 72q30 31 68 31q37 0 67 -31t30 -73q0 -41 -28 -71t-70 -30z" />
    <glyph glyph-name="oslash" unicode="&#xf8;" horiz-adv-x="811" 
d="M127 215q0 -78 90 -78q58 0 110 40q17 13 48 42q-25 55 -25 98t25 103t45 95q20 36 18 38q-186 -109 -224 -147t-62 -91t-25 -100zM684 536q0 -90 -47 -184q-4 -8 -17 -35t-16 -32q60 -12 114 28q19 14 51 42t46 38l21 -86q-70 -88 -146 -127t-186 -39
q-147 -152 -311 -153l-58 -119q-6 -63 -53 -74q-111 41 -16 213l12 23q-94 76 -103 250q-6 197 187 344q174 141 383 151q16 0 24 -2l62 74q25 39 42 47t72 -10l74 -8l-203 -232q68 -19 68 -109z" />
    <glyph glyph-name="ugrave" unicode="&#xf9;" horiz-adv-x="978" 
d="M266 1071q27 0 68 -12l121 -37q207 -61 255 -94t50 -78q0 -18 -28 -18t-80 20q-52 21 -164 36q-114 15 -176 11t-74 0q-26 9 -15 84q0 41 11 73q5 16 32 15zM133 217q31 0 105 42t141 103l203 183q59 59 161 146t134 87q39 0 47 -112q4 -46 -74 -116t-150 -166t-71 -157
q0 -45 51 -45q74 0 315 193l13 -88q-218 -218 -309 -274q-177 -112 -253 -22q-32 40 -32 97t43 170l-4 4q-16 -14 -88 -90q-71 -76 -131 -120t-120 -44t-104 65q-43 65 -43 138q0 139 88 278t197 211q35 23 90 23l59 2q71 0 66 -45q-4 -41 -82 -109q-87 -98 -149 -142
t-91 -83t-29 -84t17 -45z" />
    <glyph glyph-name="uacute" unicode="&#xfa;" horiz-adv-x="978" 
d="M848 1073q18 0 28 -4q24 -10 23 -84q11 -74 -14 -84q-12 -4 -75 0q-64 4 -176 -11q-112 -16 -164 -36t-80 -20t-28 18q0 45 50 78t256 94l120 37q42 12 60 12zM133 217q31 0 105 42t141 103l203 183q59 59 161 146t134 87q39 0 47 -112q4 -46 -74 -116t-150 -166
t-71 -157q0 -45 51 -45q74 0 315 193l13 -88q-218 -218 -309 -274q-177 -112 -253 -22q-32 40 -32 97t43 170l-4 4q-16 -14 -88 -90q-71 -76 -131 -120t-120 -44t-104 65q-43 65 -43 138q0 139 88 278t197 211q35 23 90 23l59 2q71 0 66 -45q-4 -41 -82 -109
q-87 -98 -149 -142t-91 -83t-29 -84t17 -45z" />
    <glyph glyph-name="ucircumflex" unicode="&#xfb;" horiz-adv-x="978" 
d="M252 821q-18 0 -19 29q0 68 129 119l166 65q121 47 164 47t121 -84q2 -2 17 -16t33 -32q48 -48 -23 -97q-33 -20 -41 -31q-16 8 -88 73t-107 64q-14 1 -102 -34l-180 -76q-61 -27 -70 -27zM133 217q31 0 105 42t141 103l203 183q59 59 161 146t134 87q39 0 47 -112
q4 -46 -74 -116t-150 -166t-71 -157q0 -45 51 -45q74 0 315 193l13 -88q-218 -218 -309 -274q-177 -112 -253 -22q-32 40 -32 97t43 170l-4 4q-16 -14 -88 -90q-71 -76 -131 -120t-120 -44t-104 65q-43 65 -43 138q0 139 88 278t197 211q35 23 90 23l59 2q71 0 66 -45
q-4 -41 -82 -109q-87 -98 -149 -142t-91 -83t-29 -84t17 -45z" />
    <glyph glyph-name="udieresis" unicode="&#xfc;" horiz-adv-x="978" 
d="M828 913q-48 1 -91 21q-83 39 2 165q41 60 109 50q33 -4 50 -8q16 -5 36 -21t16 -56t-39 -96t-83 -55zM439 913q-48 1 -91 21q-83 39 2 165q41 60 109 50q33 -4 50 -8q17 -5 37 -21t15 -56q-4 -40 -39 -96t-83 -55zM133 217q31 0 105 42t141 103l203 183q59 59 161 146
t134 87q39 0 47 -112q4 -46 -74 -116t-150 -166t-71 -157q0 -45 51 -45q74 0 315 193l13 -88q-218 -218 -309 -274q-177 -112 -253 -22q-32 40 -32 97t43 170l-4 4q-16 -14 -88 -90q-71 -76 -131 -120t-120 -44t-104 65q-43 65 -43 138q0 139 88 278t197 211q35 23 90 23
l59 2q71 0 66 -45q-4 -41 -82 -109q-87 -98 -149 -142t-91 -83t-29 -84t17 -45z" />
    <glyph glyph-name="yacute" unicode="&#xfd;" horiz-adv-x="905" 
d="M811 1073q17 0 27 -4q24 -10 24 -84q11 -74 -14 -84q-12 -4 -74 0t-176 -11q-113 -16 -165 -36t-80 -20t-27 18q0 45 49 78t256 94l121 37q41 12 59 12zM164 -309q0 35 55 125l275 463l-5 4q-301 -254 -347 -250q-46 5 -99 71t-57 174t86 232q90 125 184 198
q94 74 123 74t61 -36t33 -58q1 -51 -109 -166t-190 -178q-35 -51 -39 -119q113 12 293 181q71 66 198 186t150 137q23 16 33 19q23 4 39 -35t16 -68q0 -55 -84 -180l-303 -451l4 -4l455 404l16 -76l-616 -678q-15 -14 -50 -58t-62 -44q-28 0 -44 49t-16 84z" />
    <glyph glyph-name="thorn" unicode="&#xfe;" horiz-adv-x="999" 
d="M459 -6q-63 0 -146 41q-61 -12 -92 -12t-84 12l-192 -377q-45 -86 -92 -86q-59 0 -60 92q-2 140 119 312t338 538l-4 4l-324 -309l-8 96l405 436q94 100 437 494q53 63 118 63q27 0 63 -15t36 -40q0 -8 -101 -125l-294 -338q-135 -158 -177 -248l5 -4q276 199 405 199
q41 0 63 -28t23 -68q0 -164 -332 -457l60 -2q91 0 161 42t215 169l15 -94q-140 -135 -274 -215t-283 -80zM645 480q0 32 -22 32q-39 0 -158 -82q-88 -63 -189 -199q93 7 173 -20l145 172q51 65 51 97z" />
    <glyph glyph-name="ydieresis" unicode="&#xff;" horiz-adv-x="905" 
d="M791 913q-48 1 -91 21q-83 39 2 165q41 60 109 50q33 -4 50 -8q17 -5 37 -21t15 -56q-4 -40 -39 -96t-83 -55zM402 913q-48 1 -91 21q-83 39 2 165q41 60 109 50q33 -4 50 -8q16 -5 36 -21t16 -56t-39 -96t-83 -55zM164 -309q0 35 55 125l275 463l-5 4
q-301 -254 -347 -250q-46 5 -99 71t-57 174t86 232q90 125 184 198q94 74 123 74t61 -36t33 -58q1 -51 -109 -166t-190 -178q-35 -51 -39 -119q113 12 293 181q71 66 198 186t150 137q23 16 33 19q23 4 39 -35t16 -68q0 -55 -84 -180l-303 -451l4 -4l455 404l16 -76
l-616 -678q-15 -14 -50 -58t-62 -44q-28 0 -44 49t-16 84z" />
    <glyph glyph-name="dotlessi" unicode="&#x131;" horiz-adv-x="569" 
d="M160 -31q-94 0 -141 77q-46 76 -46 180t70 223t158 189t151 69q90 0 90 -58q0 -69 -100 -177t-188 -167q-25 -129 108 -129q71 0 157 60q30 20 77 58t63 50l19 -78q-94 -115 -209 -206t-209 -91z" />
    <glyph glyph-name="Lslash" unicode="&#x141;" horiz-adv-x="1433" 
d="M1522 1304q0 -85 -91 -250q-32 -56 -81 -138t-62 -103q37 -4 37 -29q0 -37 -115 -118q-4 -4 -26 -20t-48 -36q-26 -19 -60 -35t-44 -16q-47 0 -47 62q0 178 275 487q25 29 10 37q-2 2 -6 2q-45 0 -342 -342l-170 -197q152 17 172 -49q10 -39 -37 -55q-14 -4 -45 -4
t-41 -2l-125 -9l-33 -4l-131 -149q498 -96 823 -174q-108 -109 -142 -144q-34 -34 -72 -54t-54 -19q-96 0 -171 16t-194 41q-302 65 -546 57l-45 -20q-14 -5 -68 -27t-105 -22q-52 0 -52 41t58 119q59 77 68 86q37 51 74 59t127 19t127 18l109 125l-5 4q-59 -12 -163 -62
q27 88 54 119q28 31 111 47l109 21l381 454q86 102 249 248t234 146q49 0 76 -41t27 -89z" />
    <glyph glyph-name="lslash" unicode="&#x142;" horiz-adv-x="614" 
d="M225 582l4 -4q104 98 193 227q88 129 117 221q-144 -69 -314 -444zM653 1270q23 0 33 -25t8 -51q-10 -131 -53 -227q65 14 91 -17q33 -40 -94 -95q-42 -17 -52 -24l-25 -12q-113 -174 -379 -430q-31 -59 -14 -141q35 -88 102 -88q125 0 353 205l28 -62
q-233 -239 -353 -294q-67 -30 -128 -29q-182 0 -182 266q0 150 59 301l-4 4q-82 -66 -119 -96q8 95 36 137t134 110l33 21q53 94 86 133q348 414 440 414z" />
    <glyph glyph-name="OE" unicode="&#x152;" horiz-adv-x="2375" 
d="M1206 459l-6 -4l4 -4q118 97 258 148q141 52 226 76q84 24 102 30v4l-152 12q-178 16 -268 57q-10 -55 -41 -120t-53 -99t-70 -100zM303 307q1 -133 123 -133q68 0 182 50t183 110q199 170 316 343q118 173 122 290q2 39 -21 69t-61 29q-129 0 -289 -99t-235 -214
q-81 -109 -93 2q-227 -227 -227 -447zM2210 1184v-4h4v4q-379 6 -633 -141q-130 -75 -121 -125q6 -31 35 -44q104 -45 616 -34q137 0 138 -45q0 -27 -27 -71q-26 -44 -54 -68t-201 -51q-173 -28 -323 -83q-247 -90 -363 -224q-44 -50 -44 -81q0 -59 172 -65q213 -12 483 71
q108 33 242 116q135 83 170 101q8 -122 -14 -190t-105 -137q-139 -117 -348 -177t-371 -58q-162 3 -317 46q-61 16 -103 90t-41 126t37 134l-4 5q-126 -117 -280 -187t-296 -66t-248 101q-105 98 -118 315q-8 158 100 334q200 326 619 547q186 98 334 119q63 10 131 -60
t68 -106t-101 -70q-18 -6 -50 -22l-42 -21l4 -4l78 8q35 0 84 -16q127 158 389 242q180 59 492 63q257 9 288 -57l4 -86q4 -88 -11 -112t-85 -46t-138 -57q-67 -35 -109 -58t-56 -22q-23 0 -23 23t70 82q68 59 68 61z" />
    <glyph glyph-name="oe" unicode="&#x153;" horiz-adv-x="1159" 
d="M127 244q0 -54 20 -103q21 -49 59 -49t128 55q29 14 72 86q0 150 88 269q1 30 -13 57q-354 -126 -354 -315zM184 -39q-76 0 -125 67q-79 109 -81 288q-1 179 178 307q78 55 184 94t176 39t96 -20q27 -20 45 -68q145 108 299 108t154 -98q0 -92 -112 -192t-382 -189
l-4 -45q0 -53 38 -79t79 -26q99 0 186 54q35 20 55 31q24 14 106 77t93 74l19 -78q-116 -133 -266 -235t-287 -103q-76 0 -121 33t-82 102q-13 -16 -29 -36t-32 -31q-111 -74 -187 -74zM633 397q121 41 210 122t88 111t-22 27q-79 -20 -157 -91t-119 -169z" />
    <glyph glyph-name="Scaron" unicode="&#x160;" horiz-adv-x="1458" 
d="M1348 1706q18 0 18 -29q0 -68 -129 -118l-166 -66q-121 -47 -164 -47t-121 84q-2 2 -17 16t-33 32t-19 43q0 24 38 49t46 36q16 -8 88 -73t106 -64q17 0 103 35l180 75q61 27 70 27zM504 879q0 -15 1 -19t25 -18q60 -34 519 -142q147 -34 225 -106t78 -152
q0 -118 -78 -206t-191 -138t-303 -89q-190 -40 -438 -40q-330 0 -330 119q0 31 38 93t67 89q18 14 85 37t87 23t20 -16q1 -16 -23 -32q-24 -14 -46 -36v-4q531 -21 812 118q68 35 94 61t26 40q-3 81 -451 164q-59 10 -91 16q-64 12 -136 22q-197 28 -197 171q0 53 20 142
t45 130q58 94 318 196t565 103q125 0 258 -29q33 -8 43 -21t10 -46q0 -106 -36 -151q-37 -44 -118 -76t-111 -47t-91 -60q-37 -20 -51 -21q-33 0 -33 31q0 15 50 62t100 81l-4 5q-404 -16 -641 -152q-117 -67 -117 -102z" />
    <glyph glyph-name="scaron" unicode="&#x161;" horiz-adv-x="735" 
d="M834 1108q18 0 18 -29q0 -68 -129 -118l-166 -66q-121 -47 -164 -47t-121 84q-2 2 -17 16t-33 32t-19 43q0 24 38 49t46 36q16 -8 88 -73t106 -64q15 0 103 35l180 75q61 27 70 27zM-148 178q-16 0 -26 12t-10 31t49 68l444 407q4 54 35 94t79 40t63 -16q14 -15 18 -51
t22 -116t19 -131q0 -211 -266 -373q61 -9 119 7t92 38t100 70l123 94l20 -78q-123 -123 -262 -216t-250 -88q-111 4 -205 66t-120 169q-28 -27 -44 -27zM311 586l-295 -277q35 -1 68 -23t49 -41t43 -57q96 60 127 102t35 128q-13 90 -27 168z" />
    <glyph glyph-name="Ydieresis" unicode="&#x178;" horiz-adv-x="1519" 
d="M1549 1511q-48 1 -91 21q-83 39 2 165q41 60 109 50q33 -4 50 -8q17 -5 37 -21t15 -56q-4 -40 -39 -96t-83 -55zM1160 1511q-48 1 -91 21q-83 39 2 165q41 60 109 50q33 -4 50 -8q16 -5 36 -21t16 -56t-39 -96t-83 -55zM403 39q-53 0 -101 44t-40 93q0 57 43 128
q108 186 322 433q223 267 247 309t24 56q1 14 -7 19t-21 7q-188 -94 -429 -224t-259 -144t-48 -12q-30 0 -36 19t13 81l30 110q16 53 43 83q88 97 492 273q244 105 375 105q59 1 101 -27t42 -77t-39 -116q-39 -68 -68 -105q-29 -36 -39 -52t-40 -53l-29 -37
q-91 -119 -173 -220q-151 -185 -189 -239q-37 -54 -38 -73q-1 -20 12 -30t40 -4q27 4 85 54t132 106t168 140t393 356q90 82 120 82q31 0 61 -43t30 -69t-10 -48q-12 -26 -129 -184t-290 -405q-173 -246 -198 -300t0 -57q13 0 27 8t121 73q107 64 170 88q153 59 153 5
q0 -22 -48 -66t-77 -60q-340 -256 -481 -422q-35 -42 -54 -62q-20 -20 -60 -48t-76 -28t-62 29q-25 29 -24 72q0 133 233 489t414 580l-4 4l-543 -469q-199 -172 -279 -172z" />
    <glyph glyph-name="Zcaron" unicode="&#x17d;" horiz-adv-x="1318" 
d="M1294 1706q18 0 19 -29q0 -68 -129 -118l-166 -66q-121 -47 -164 -47t-121 84q-2 2 -17 16q-16 14 -34 32t-18 43q0 24 38 49t46 36q16 -8 88 -73t106 -64q16 0 102 35l181 75q61 27 69 27zM338 -258q0 -24 24 -25q104 1 329 187t278 342q-166 -82 -320 -197
q-155 -115 -233 -199t-78 -108zM1200 1047q0 25 -24 39t-50 16q-150 0 -362 -92t-641 -338q8 219 64 332t211 202t357 146t351 57q326 0 326 -246q0 -216 -290 -367q-48 -26 -116 -61t-104 -55q123 -23 184 -74t78 -166q70 23 106 26t40 -3q3 -6 3 -17v-2q-1 -22 -25 -38
t-124 -54q-51 -270 -336 -522q-98 -88 -288 -190t-277 -103q-39 0 -106 44t-66 83q0 109 237 316q238 207 649 391q-1 50 -29 75t-60 33q-73 18 -216 -43l-213 -94q-106 -47 -146 -70q-40 -24 -61 -24q-33 0 -32 28q0 29 38 129t78 131q73 57 359 187q286 129 428 232
q57 42 57 92z" />
    <glyph glyph-name="zcaron" unicode="&#x17e;" horiz-adv-x="753" 
d="M844 1108q18 0 18 -29q0 -68 -129 -118l-166 -66q-121 -47 -164 -47t-120 84q-1 2 -17 16q-52 47 -53 73q0 26 43 56q33 20 41 31q16 -8 88 -73t107 -64q16 0 102 35l180 75q61 27 70 27zM307 -43l-235 -184q-100 -80 -111 -166q109 29 219 137t127 213zM278 784
q52 0 52 -71q110 16 183 37q73 22 89 22q25 0 45 -66q21 -66 21 -100q0 -35 -62 -76l-262 -190q82 -61 107 -162l323 250l6 -88l-327 -285q-17 -115 -79 -220q-109 -182 -294 -284q-144 -78 -199 -16q-55 61 9 173q32 54 65 86t88 75l266 213q-14 60 -39 80q-26 20 -60 30
t-50 13q-16 4 -22 6q-39 12 -35 42q5 29 44 61t141 104t189 143l-4 4l-250 -43l-233 -254l-23 68l144 174q-55 10 -55 60t85 132t137 82z" />
    <glyph glyph-name="florin" unicode="&#x192;" horiz-adv-x="1331" 
d="M1194 1253q-18 0 -41 -32l-66 -99l-282 -504q59 -8 123 -32t73 -64q12 -43 -36 -43q-37 0 -88 17l-132 24l-268 -479q-55 -99 -181 -247t-198 -148q-53 0 -99 59q-63 80 -33 223q5 25 27 89t75 249q-39 4 -45 29q-11 39 112 144q91 81 121 81q47 0 63 -61
q27 -103 -23 -239t-124 -249q-16 -39 5 -39t79 70q57 70 117 172l211 371l-101 4l-145 -14q28 79 56 101t114 13l127 -10l332 616q59 106 118 181q106 127 187 127q39 1 90 -53t51 -130q0 -148 -28 -239q-11 -39 -33 -115t-39 -137l16 -4q25 0 30 -21q1 -4 6 -18t-32 -60
q-44 -56 -129 -124q-51 -51 -80 -52q-51 0 -70 77t14 200q34 123 100 245q67 122 26 121z" />
    <glyph glyph-name="circumflex" unicode="&#x2c6;" horiz-adv-x="819" 
d="M172 821q-18 0 -18 29q0 68 129 119l166 65q121 47 163 47t121 -84q1 -2 17 -16q52 -47 53 -73q0 -26 -43 -56q-33 -20 -41 -31q-16 8 -88 73t-107 64q-16 1 -102 -34l-180 -76q-61 -27 -70 -27z" />
    <glyph glyph-name="caron" unicode="&#x2c7;" horiz-adv-x="698" 
d="M815 1108q18 0 19 -29q0 -68 -129 -118l-166 -66q-121 -47 -164 -47t-121 84q-2 2 -17 16t-33 32q-48 48 23 97q33 20 41 31q16 -8 88 -73t107 -64q16 0 102 35l180 75q61 27 70 27z" />
    <glyph glyph-name="uni02C9" unicode="&#x2c9;" horiz-adv-x="696" 
d="M840 993v-4q-6 0 -31 -86t-51 -84q-360 18 -619 0q0 38 16 102t46 75q12 5 64 0q51 -5 147 -7t231 1t197 3z" />
    <glyph glyph-name="breve" unicode="&#x2d8;" horiz-adv-x="696" 
d="M483 848q-75 0 -143 37t-100 75t-33 60q1 23 31 44t53 40q41 -23 81 -65q40 -41 79 -65t102 -24q98 8 219 123q8 7 32 19t34 12q18 0 18 -29q0 -67 -123 -147t-250 -80z" />
    <glyph glyph-name="dotaccent" unicode="&#x2d9;" horiz-adv-x="696" 
d="M715 1102q-1 -14 -17 -68t-60 -118q-44 -62 -91 -57t-70 10t-47 25t-22 52q0 68 63 152t143 67q4 0 42 -7t48 -24q11 -18 11 -32z" />
    <glyph glyph-name="ring" unicode="&#x2da;" horiz-adv-x="602" 
d="M545 915q0 -2 5 -10t5 -10q68 59 79 86t11 53t-6 51q-94 -70 -94 -170zM772 1055q0 -90 -45 -159t-117 -69t-121 44q-47 44 -47 110q0 67 69 137t105 70q11 0 62 -29l74 -41q20 -20 20 -63z" />
    <glyph glyph-name="ogonek" unicode="&#x2db;" horiz-adv-x="696" 
d="M547 -127q0 -74 96 -74q41 -1 94 17t63 18t9 -16q0 -23 -55 -43q-92 -41 -172 -41t-130 30t-50 82q0 50 30 78t54 37q24 7 54 17t35 12h113v-4l-35 -13q-106 -39 -106 -100z" />
    <glyph glyph-name="tilde" unicode="&#x2dc;" horiz-adv-x="696" 
d="M397 818v-7q0 -20 -18 -20q-18 -1 -54 25t-44 31q-46 29 -48 77q-1 48 15 72t61 24l266 -27l5 4q-72 49 -72 72q0 9 8 19t19 10q35 0 95 -60t60 -112q0 -86 -88 -86q-41 0 -126 15t-128 13q49 -37 49 -50z" />
    <glyph glyph-name="hungarumlaut" unicode="&#x2dd;" horiz-adv-x="710" 
d="M705 1419q53 -39 57 -49q2 -18 -44 -66t-102 -130q-70 -114 -89 -170t-34 -74t-30 -6q-37 32 -29 104t92 240l56 110q25 51 35 65q11 13 31 13t57 -37zM261 1442q11 14 34 14t53 -37q53 -39 58 -49q2 -18 -44 -66t-102 -130q-70 -114 -89 -170t-35 -74t-30 -6
q-36 32 -28 104t92 240l55 110q25 50 36 64z" />
    <glyph glyph-name="uni03A9" unicode="&#x3a9;" horiz-adv-x="1492" 
d="M362 160v4q-94 90 -136 231t3 318q68 264 290 440q221 176 497 176t401 -183t66 -425q-45 -181 -159 -325t-253 -232l-2 -4h303l-41 -160h-526l29 119q145 72 263 214t168 342t-26 346t-264 146t-341 -140t-203 -343t-3 -351t154 -214l-29 -119h-528l38 160h299z" />
    <glyph glyph-name="uni03BC" unicode="&#x3bc;" horiz-adv-x="978" 
d="M215 248q0 -29 16 -33q31 2 105 44t141 103l203 183q39 39 151 136t144 97q39 0 47 -112q4 -46 -74 -116t-150 -166t-71 -157q0 -45 51 -45q76 0 316 193l12 -88l-59 -59q-166 -162 -226 -201q-121 -76 -182 -76t-94 40t-33 97t43 170l-4 4q-16 -14 -88 -90t-131 -120
t-118 -44t-128 88q-113 -227 -221 -332q-109 -104 -184 -63q-137 74 65 221q145 104 352 500q90 172 252 278q35 23 90 23l60 2q70 0 65 -45q-3 -22 -31 -56t-51 -53q-86 -98 -143 -138q-125 -88 -125 -185z" />
    <glyph glyph-name="pi" unicode="&#x3c0;" horiz-adv-x="1204" 
d="M504 977h844l-60 -166h-155l-129 -520q-49 -193 -46 -291h-200q-18 55 35 274l133 537h-330q-58 -190 -160 -440t-182 -371h-201q88 147 189 390q100 243 149 421q-156 0 -223 -23l6 132q98 57 330 57z" />
    <glyph glyph-name="endash" unicode="&#x2013;" horiz-adv-x="1024" 
d="M0 475v180h1024v-180h-1024z" />
    <glyph glyph-name="emdash" unicode="&#x2014;" horiz-adv-x="2048" 
d="M0 655h2048v-180h-2048v180z" />
    <glyph glyph-name="quoteleft" unicode="&#x2018;" horiz-adv-x="616" 
d="M324 1001q-104 0 -105 48q0 39 34 117q33 78 59 108q76 93 113 111q17 9 30 17t31 9h40q-68 -90 -92 -139q78 -23 78 -79t-61 -124t-127 -68z" />
    <glyph glyph-name="quoteright" unicode="&#x2019;" horiz-adv-x="616" 
d="M373 1204q0 63 61 131t127 68q105 0 105 -43t-34 -121t-60 -109t-58 -66t-52 -44q-19 -10 -33 -18t-32 -9h-39q68 90 93 140q-47 14 -63 31q-15 17 -15 40z" />
    <glyph glyph-name="quotesinglbase" unicode="&#x201a;" horiz-adv-x="616" 
d="M303 287q105 0 105 -43t-34 -121t-60 -109q-78 -93 -104 -107q-26 -13 -38 -21q-13 -8 -31 -9h-41q68 90 93 139q-78 23 -78 79t61 124t127 68z" />
    <glyph glyph-name="quotedblleft" unicode="&#x201c;" horiz-adv-x="962" 
d="M612 1200q0 -63 -61 -131t-127 -68q-104 0 -105 48q0 39 34 117t60 108q78 92 103 106q26 14 39 22t31 9h41q-68 -90 -92 -139q45 -13 64 -34q13 -15 13 -38zM958 1200q0 -63 -61 -131t-127 -68q-104 0 -104 48q0 39 34 117t59 108q78 92 104 106q25 14 33 20
q18 12 39 11h38q-68 -90 -92 -139q46 -14 62 -31q15 -18 15 -41z" />
    <glyph glyph-name="quotedblright" unicode="&#x201d;" horiz-adv-x="962" 
d="M612 1204q0 63 62 131t127 68q104 0 104 -47q0 -39 -34 -117q-33 -78 -59 -109q-77 -93 -113 -111q-17 -9 -25 -14q-19 -12 -39 -12h-37q68 90 92 140q-47 14 -63 31q-15 17 -15 40zM266 1204q0 63 62 131t127 68q104 0 104 -47q0 -39 -34 -117q-33 -78 -59 -109
q-76 -93 -113 -111q-17 -9 -25 -14q-19 -12 -39 -12h-37q68 90 92 140q-47 14 -63 31q-15 17 -15 40z" />
    <glyph glyph-name="quotedblbase" unicode="&#x201e;" horiz-adv-x="962" 
d="M649 287q105 0 105 -43t-34 -121t-60 -109t-58 -66t-52 -44q-19 -10 -32 -18t-31 -9h-41q68 90 93 139q-78 23 -78 79t61 124t127 68zM303 287q105 0 105 -43t-34 -121t-60 -109q-78 -93 -104 -107q-26 -13 -38 -21q-13 -8 -31 -9h-41q68 90 93 139q-78 23 -78 79t61 124
t127 68z" />
    <glyph glyph-name="dagger" unicode="&#x2020;" horiz-adv-x="1073" 
d="M709 1356h196l-125 -420l381 16l-45 -180l-373 16l-202 -886h-195l240 886l-379 -16l45 180l371 -16z" />
    <glyph glyph-name="daggerdbl" unicode="&#x2021;" horiz-adv-x="1073" 
d="M711 1356h188l-113 -391l383 16l-45 -176l-372 16l-97 -383l383 17l-45 -176l-372 16l-84 -393h-189l111 393l-375 -16l43 176l369 -17l96 383l-377 -16l43 176l369 -16z" />
    <glyph glyph-name="bullet" unicode="&#x2022;" horiz-adv-x="819" 
d="M885 876q0 -102 -46 -216q-45 -114 -139 -206t-188 -92t-178 23t-155 81t-71 142t52 188q51 106 102 166t132 97t175 26q129 0 223 -53q94 -54 93 -156z" />
    <glyph glyph-name="ellipsis" unicode="&#x2026;" horiz-adv-x="2048" 
d="M1552 76q0 68 64 152t143 67q35 -1 61 -13t32 -24q8 -12 8 -26t-16 -69q-16 -54 -61 -117q-45 -62 -92 -57t-69 10t-46 25t-24 52zM870 76q0 68 64 152t143 67q35 -1 61 -13t32 -24q8 -12 8 -26t-16 -69q-16 -54 -61 -117q-45 -62 -92 -57t-69 10t-46 25t-24 52zM188 76
q0 68 64 152t143 67q35 -1 61 -13t32 -24q8 -12 8 -26t-16 -69q-16 -54 -61 -117q-45 -62 -92 -57t-69 10t-46 25t-24 52z" />
    <glyph glyph-name="perthousand" unicode="&#x2030;" horiz-adv-x="2473" 
d="M434 -20h-123l1116 1347h125zM1403 672q-84 0 -150 -80q-67 -80 -99 -207t-2 -204t111 -77t147 75t99 212q70 281 -106 281zM1440 791h2q139 -1 207 -105q67 -104 21 -291t-173 -299t-266 -110q-139 0 -211 106t-27 288t172 297q128 114 275 114zM2181 672h-2
q-81 0 -147 -80t-99 -208t-3 -204t111 -76t147 75t100 212q69 281 -107 281zM2218 791h2q139 -1 207 -105q67 -104 21 -291t-173 -299t-266 -110q-139 0 -211 106t-26 290t173 296q126 113 273 113zM629 1210h-2q-84 0 -151 -80q-66 -80 -98 -208t-2 -204q30 -77 110 -77
t147 76q66 76 98 211q35 126 11 204t-113 78zM664 1329h2q138 0 206 -104t22 -291q-46 -188 -173 -300t-266 -112t-212 108t-27 290t174 296t274 113z" />
    <glyph glyph-name="guilsinglleft" unicode="&#x2039;" horiz-adv-x="436" 
d="M352 231q-63 -1 -175 105t-99 170q0 47 57 121q18 31 78 122t86 152q4 -12 34 -69t31 -90q0 -32 -34 -73t-68 -96t-35 -77q0 -22 38 -49t77 -37q86 -23 86 -99q0 -35 -20 -57t-56 -23z" />
    <glyph glyph-name="guilsinglright" unicode="&#x203a;" horiz-adv-x="436" 
d="M219 901q63 0 175 -105t100 -169q0 -47 -58 -121q-18 -31 -76 -119t-88 -156q-4 12 -34 72t-31 90q0 29 34 70t68 96q35 55 35 77t-38 49t-77 38q-86 23 -86 98q1 35 21 57t55 23z" />
    <glyph glyph-name="fraction" unicode="&#x2044;" horiz-adv-x="352" 
d="M-215 -20h-131l1104 1349h133z" />
    <glyph glyph-name="Euro" unicode="&#x20ac;" 
d="M739 166q190 0 328 98l-55 -217q-119 -74 -343 -74t-333 114t-92 345h-162l102 164h82q10 73 31 117h-145l102 164h98q94 209 256 331t382 121q220 0 323 -78l-53 -213q-84 96 -283 97q-291 0 -402 -258h572l-103 -164h-536q-13 -47 -29 -117h492l-103 -164h-405
q-7 -126 63 -196t213 -70z" />
    <glyph glyph-name="afii61289" unicode="&#x2113;" horiz-adv-x="1028" 
d="M821 1296q-61 0 -125 -73q-63 -74 -104 -238l-90 -367q350 291 403 496q45 182 -84 182zM502 -18q-160 0 -224 89t-47 230q0 8 5 21q-18 -10 -62 -39t-70 -43l-30 108q162 104 196 129l121 484q61 245 187 361t266 116q141 0 188 -92t9 -245t-185 -316t-399 -349l-15 -57
q-28 -115 16 -176t129 -61t171 54t151 130l70 -84q-209 -260 -477 -260z" />
    <glyph glyph-name="trademark" unicode="&#x2122;" horiz-adv-x="1499" 
d="M1552 1401v-664h-180v469h-4l-158 -469h-84l-159 469h-4v-469h-181v664h271l114 -328h4l113 328h268zM707 1401v-150h-193v-514h-180v514h-189v150h562z" />
    <glyph glyph-name="Omega" unicode="&#x2126;" horiz-adv-x="1492" 
d="M362 160v4q-94 90 -136 231t3 318q68 264 290 440q221 176 497 176t401 -183t66 -425q-45 -181 -159 -325t-253 -232l-2 -4h303l-41 -160h-526l29 119q145 72 263 214t168 342t-26 346t-264 146t-341 -140t-203 -343t-3 -351t154 -214l-29 -119h-528l38 160h299z" />
    <glyph glyph-name="estimated" unicode="&#x212e;" horiz-adv-x="1900" 
d="M1561 682v371q0 27 -19 45q-197 192 -460 192t-457 -198q-18 -18 -19 -48v-362q0 -12 10 -12h936q9 0 9 12zM1837 633h-1221q-10 0 -10 -8v-369q0 -23 17 -43q195 -201 460 -201q143 0 269 60t219 166h108q-102 -123 -260 -194t-338 -71q-311 0 -532 199
q-221 200 -221 480t221 480t533 200t534 -200q221 -200 221 -481v-18z" />
    <glyph glyph-name="partialdiff" unicode="&#x2202;" horiz-adv-x="1146" 
d="M479 141h2q123 0 238 123t176 289q-5 68 -63 131q-58 64 -166 64t-210 -96q-104 -96 -136 -223q-32 -128 12 -208t147 -80zM418 -20q-100 0 -173 40t-103 107q-69 152 -25 295q53 213 212 347t345 134q120 0 192 -60t92 -122h3q84 277 6 439q-70 144 -228 144t-297 -90
l-28 142q174 110 396 110t332 -190t26 -526t-286 -553q-204 -217 -464 -217z" />
    <glyph glyph-name="Delta" unicode="&#x2206;" horiz-adv-x="1343" 
d="M242 160h792l-104 643q-38 278 -41 340h-8q-24 -45 -191 -309zM-8 0l28 121l803 1220h242l186 -1218l-30 -123h-1229z" />
    <glyph glyph-name="product" unicode="&#x220f;" horiz-adv-x="1712" 
d="M1663 1130h-223v-1310h-199v1310h-514v-1310h-199v1310h-221v177h1356v-177z" />
    <glyph glyph-name="summation" unicode="&#x2211;" horiz-adv-x="1398" 
d="M1360 -180h-1057v123l522 618l-499 610v136h1001v-168h-721v-9l451 -542l-490 -584v-4h793v-180z" />
    <glyph glyph-name="minus" unicode="&#x2212;" horiz-adv-x="1212" 
d="M1114 471h-934v123h934v-123z" />
    <glyph glyph-name="uni2215" unicode="&#x2215;" horiz-adv-x="352" 
d="M-215 -20h-131l1104 1349h133z" />
    <glyph glyph-name="uni2219" unicode="&#x2219;" horiz-adv-x="616" 
d="M254 389q0 68 63 152t144 67q31 0 59 -12t34 -24q7 -12 7 -27t-16 -69q-17 -54 -61 -116t-91 -58q-47 5 -69 10q-22 4 -46 24t-24 53z" />
    <glyph glyph-name="radical" unicode="&#x221a;" horiz-adv-x="1443" 
d="M1464 1559l-460 -1833h-168l-320 843l-149 -57l-37 111l307 122l244 -667q6 -27 20 -73t19 -66l2 -2q4 23 15 79t13 68l367 1475h147z" />
    <glyph glyph-name="infinity" unicode="&#x221e;" horiz-adv-x="1685" 
d="M1278 745h-2q-77 0 -141 -55q-37 -31 -53 -45t-56 -59q-39 -45 -41 -47q101 -117 163 -164t140 -47t128 63t50 150t-52 145t-136 59zM563 328h2q44 0 84 18t60 37q20 17 30 25q25 19 65 66t50 54q-39 50 -52 66t-49 54q-92 97 -210 97q-76 0 -127 -61q-51 -62 -51 -150
t55 -147t143 -59zM1587 543v-2q0 -145 -92 -235t-219 -91q-90 0 -174 53t-184 176q-96 -113 -178 -171t-200 -58q-116 0 -206 91t-90 229q0 137 91 229t228 92q103 0 187 -58t176 -169q53 59 75 83q94 98 161 121t128 23q129 0 213 -87t84 -226z" />
    <glyph glyph-name="integral" unicode="&#x222b;" horiz-adv-x="1005" 
d="M537 1118q0 490 323 490q68 0 117 -27l-25 -131q-33 18 -88 18t-90 -47q-61 -72 -61 -323q0 -148 14 -452t14 -466q0 -250 -79 -375q-70 -119 -226 -118q-92 0 -145 32l28 138q51 -23 93 -23q157 0 155 346q0 166 -15 476t-15 462z" />
    <glyph glyph-name="approxequal" unicode="&#x2248;" horiz-adv-x="1273" 
d="M506 375q-64 0 -108 -36t-95 -108l-76 70q47 86 124 138q77 53 154 53t118 -18l52 -24q46 -21 58 -30q12 -8 64 -37t78 -33t65 -4q83 0 174 143l74 -71q-109 -190 -268 -191q-56 1 -104 19t-146 74t-164 55zM922 580q-58 0 -106 18t-148 74t-154 56q-53 0 -92 -24
q-39 -22 -63 -49t-56 -71l-76 69q47 87 124 139t155 52t150 -34q20 -9 28 -13q8 -3 28 -15t24 -15t24 -13t26 -14q73 -42 136 -42q102 1 192 144l74 -72q-109 -190 -266 -190z" />
    <glyph glyph-name="notequal" unicode="&#x2260;" horiz-adv-x="1318" 
d="M1221 791v-121h-351l-129 -277h480v-119h-529l-106 -233l-97 43l89 190h-291v119h342l125 277h-467v121h516l104 227l97 -43l-84 -184h301z" />
    <glyph glyph-name="lessequal" unicode="&#x2264;" horiz-adv-x="1359" 
d="M1262 -16h-934v120h934v-120zM1255 180l-917 436v129l917 437v-140l-790 -358v-4l790 -361v-139z" />
    <glyph glyph-name="greaterequal" unicode="&#x2265;" horiz-adv-x="1359" 
d="M1257 -16h-927v120h927v-120zM340 1182l917 -439v-127l-917 -436v139l790 361v2l-790 360v140z" />
    <glyph glyph-name="lozenge" unicode="&#x25ca;" horiz-adv-x="1445" 
d="M1163 647l-268 500q-27 55 -37 96h-6q-12 -43 -39 -96l-266 -490l270 -503q27 -57 37 -95h6q12 53 35 93zM1343 653l-411 -747h-158l-405 747l409 748h160z" />
    </font>
</defs>
</svg>
